SplineFontDB: 3.2
FontName: RealMadrid2022
FullName: Real Madrid 2022
FamilyName: Real Madrid 2022
Weight: Book
Copyright: Real Madrid 2022
Version: Sagynysh Seitkaliyev
ItalicAngle: 0
UnderlinePosition: -307
UnderlineWidth: 102
Ascent: 1536
Descent: 512
InvalidEm: 0
sfntRevision: 0x00010000
LayerCount: 2
Layer: 0 1 "Back" 1
Layer: 1 1 "Fore" 0
XUID: [1021 90 147467999 10827]
StyleMap: 0x0040
FSType: 0
OS2Version: 3
OS2_WeightWidthSlopeOnly: 0
OS2_UseTypoMetrics: 0
CreationTime: 1527752480
ModificationTime: 1746233774
PfmFamily: 81
TTFWeight: 400
TTFWidth: 5
LineGap: 0
VLineGap: 0
Panose: 0 0 0 0 0 0 0 0 0 0
OS2TypoAscent: 1536
OS2TypoAOffset: 0
OS2TypoDescent: -512
OS2TypoDOffset: 0
OS2TypoLinegap: 0
OS2WinAscent: 1780
OS2WinAOffset: 0
OS2WinDescent: 39
OS2WinDOffset: 0
HheadAscent: 1536
HheadAOffset: 0
HheadDescent: -512
HheadDOffset: 0
OS2SubXSize: 1331
OS2SubYSize: 1229
OS2SubXOff: 0
OS2SubYOff: 154
OS2SupXSize: 1331
OS2SupYSize: 1229
OS2SupXOff: 0
OS2SupYOff: 717
OS2StrikeYSize: 102
OS2StrikeYPos: 614
OS2CapHeight: 700
OS2XHeight: 500
OS2Vendor: 'FFF '
OS2CodePages: 00000001.00000000
OS2UnicodeRanges: 00000001.00000000.00000000.00000000
Lookup: 258 0 0 "'kern' Horizontal Kerning in Latin lookup 0" { "'kern' Horizontal Kerning in Latin lookup 0 subtable"  } ['kern' ('DFLT' <'dflt' > 'latn' <'dflt' > ) ]
DEI: 91125
ShortTable: maxp 16
  1
  0
  64
  513
  35
  0
  0
  2
  0
  1
  1
  0
  64
  0
  0
  0
EndShort

StartChar: exclam
Encoding: 33 33 5
Width: 620
GlyphClass: 2
Flags: W
LayerCount: 2
Fore
SplineSet
336 1436 m 1,0,-1
 422 1350 l 1,1,-1
 422 1071 l 1,2,-1
 201 850 l 1,3,-1
 201 1214 l 1,4,-1
 51 1214 l 1,5,-1
 51 1436 l 1,6,-1
 336 1436 l 1,0,-1
309 150 m 128,-1,8
 285 150 285 150 267 132 c 0,9,10
 250 115 250 115 250 90 c 128,-1,11
 250 65 250 65 267 48 c 128,-1,12
 284 31 284 31 309 31 c 128,-1,13
 334 31 334 31 351 48 c 0,14,15
 369 66 369 66 369 90 c 128,-1,16
 369 114 369 114 351 132 c 128,-1,7
 333 150 333 150 309 150 c 128,-1,8
309 80 m 1,17,-1
 319 80 l 1,18,-1
 319 74 l 1,19,-1
 309 74 l 1,20,-1
 309 66 l 1,21,22
 324 66 324 66 330 76 c 1,23,-1
 334 70 l 1,24,25
 323 59 323 59 309 59 c 1,26,-1
 309 51 l 1,27,-1
 301 51 l 1,28,-1
 301 59 l 1,29,30
 276 65 276 65 276 92 c 0,31,32
 276 108 276 108 291 119 c 1,33,-1
 283 125 l 1,34,35
 266 113 266 113 266 92 c 0,36,37
 266 76 266 76 276 66 c 1,38,-1
 272 59 l 1,39,40
 260 71 260 71 260 92 c 0,41,42
 260 119 260 119 285 135 c 1,43,-1
 291 129 l 1,44,-1
 297 123 l 2,45,46
 302 123 302 123 303 124 c 128,-1,47
 304 125 304 125 309 125 c 128,-1,48
 314 125 314 125 315 124 c 128,-1,49
 316 123 316 123 322 123 c 2,50,-1
 330 129 l 1,51,-1
 334 135 l 1,52,53
 358 120 358 120 358 92 c 0,54,55
 358 73 358 73 348 59 c 1,56,-1
 342 66 l 1,57,58
 352 76 352 76 352 92 c 0,59,60
 352 115 352 115 336 125 c 1,61,-1
 328 119 l 1,62,63
 334 115 334 115 338 109 c 1,64,-1
 332 104 l 1,65,66
 330 111 330 111 324 113 c 1,67,-1
 309 98 l 1,68,-1
 295 113 l 1,69,70
 285 107 285 107 285 92 c 0,71,72
 285 72 285 72 301 68 c 1,73,-1
 301 92 l 1,74,-1
 319 92 l 1,75,-1
 319 86 l 1,76,-1
 309 86 l 1,77,-1
 309 80 l 1,17,-1
328 45 m 1,78,-1
 315 57 l 1,79,80
 329 61 329 61 336 70 c 1,81,-1
 338 70 l 1,82,-1
 330 78 l 1,83,-1
 328 78 l 1,84,85
 322 68 322 68 311 68 c 1,86,-1
 311 72 l 1,87,-1
 322 72 l 1,88,-1
 322 82 l 1,89,-1
 311 82 l 1,90,-1
 311 84 l 1,91,-1
 322 84 l 1,92,-1
 322 94 l 1,93,-1
 299 94 l 1,94,-1
 299 76 l 1,95,-1
 287 90 l 1,96,-1
 287 92 l 2,97,98
 287 105 287 105 295 111 c 1,99,-1
 309 96 l 1,100,-1
 315 102 l 1,101,-1
 344 72 l 2,102,103
 344 70 344 70 343 69 c 128,-1,104
 342 68 342 68 342 66 c 1,105,-1
 340 66 l 1,106,-1
 346 57 l 1,107,108
 340 46 340 46 328 45 c 1,78,-1
276 100 m 1,109,-1
 270 104 l 1,110,111
 276 116 276 116 283 123 c 1,112,-1
 287 119 l 1,113,114
 281 113 281 113 276 100 c 1,109,-1
270 162 m 1,115,-1
 270 160 l 1,116,-1
 270 156 l 1,117,-1
 274 156 l 1,118,-1
 276 156 l 1,119,-1
 279 156 l 1,120,121
 279 154 279 154 281 154 c 0,122,123
 293 160 293 160 309 160 c 0,124,125
 326 160 326 160 338 154 c 1,126,-1
 340 154 l 1,127,-1
 340 156 l 1,128,-1
 342 156 l 1,129,-1
 344 156 l 1,130,-1
 348 156 l 1,131,132
 352 160 352 160 348 160 c 1,133,-1
 348 162 l 1,134,-1
 350 162 l 1,135,-1
 348 164 l 1,136,-1
 348 166 l 2,137,138
 348 168 348 168 346 168 c 1,139,-1
 348 170 l 1,140,-1
 346 172 l 1,141,-1
 346 174 l 1,142,-1
 344 176 l 1,143,-1
 342 176 l 1,144,-1
 342 178 l 2,145,146
 342 180 342 180 340 180 c 1,147,148
 340 182 340 182 336 182 c 0,149,150
 334 184 334 184 332 184 c 2,151,-1
 330 184 l 1,152,-1
 328 184 l 1,153,154
 328 188 328 188 326 188 c 128,-1,155
 324 188 324 188 324 186 c 1,156,-1
 324 188 l 2,157,158
 324 190 324 190 322 190 c 2,159,-1
 319 190 l 1,160,161
 319 193 319 193 317 193 c 128,-1,162
 315 193 315 193 315 190 c 1,163,164
 315 193 315 193 313 193 c 128,-1,165
 311 193 311 193 311 195 c 1,166,-1
 313 195 l 1,167,-1
 313 197 l 1,168,-1
 311 197 l 1,169,-1
 311 199 l 1,170,-1
 309 199 l 1,171,-1
 309 197 l 1,172,-1
 307 197 l 1,173,-1
 307 195 l 1,174,-1
 309 195 l 1,175,-1
 307 193 l 1,176,-1
 305 193 l 2,177,178
 303 193 303 193 303 190 c 1,179,180
 303 193 303 193 301 193 c 2,181,-1
 299 190 l 1,182,-1
 297 190 l 1,183,-1
 295 188 l 1,184,-1
 295 186 l 1,185,186
 295 188 295 188 293 188 c 0,187,188
 291 186 291 186 291 184 c 1,189,-1
 289 184 l 1,190,-1
 287 184 l 2,191,192
 285 184 285 184 285 182 c 1,193,-1
 283 182 l 2,194,195
 281 182 281 182 281 180 c 1,196,-1
 279 180 l 2,197,198
 276 180 276 180 276 178 c 2,199,-1
 276 176 l 1,200,201
 272 176 272 176 272 174 c 2,202,-1
 274 172 l 1,203,204
 270 172 270 172 270 170 c 2,205,-1
 272 168 l 1,206,207
 270 168 270 168 270 166 c 2,208,-1
 270 164 l 1,209,-1
 270 162 l 1,115,-1
309 164 m 1,210,-1
 307 164 l 1,211,-1
 309 166 l 1,212,-1
 311 164 l 1,213,-1
 309 164 l 1,210,-1
309 172 m 2,214,215
 311 172 311 172 311 170 c 128,-1,216
 311 168 311 168 309 168 c 2,217,-1
 307 168 l 1,218,-1
 307 170 l 1,219,-1
 307 172 l 1,220,-1
 309 172 l 2,214,215
309 158 m 0,221,222
 326 158 326 158 338 152 c 1,223,-1
 338 150 l 1,224,-1
 336 147 l 1,225,-1
 336 145 l 1,226,227
 322 152 322 152 309 152 c 0,228,229
 297 152 297 152 283 145 c 1,230,-1
 283 147 l 1,231,-1
 281 150 l 1,232,-1
 281 152 l 1,233,234
 293 158 293 158 309 158 c 0,221,222
338 158 m 1,235,-1
 336 160 l 1,236,-1
 334 160 l 1,237,238
 336 158 336 158 338 158 c 1,235,-1
330 160 m 1,239,-1
 328 162 l 1,240,-1
 328 164 l 1,241,-1
 326 162 l 1,242,243
 328 160 328 160 330 160 c 1,239,-1
322 162 m 1,244,-1
 319 164 l 1,245,-1
 317 164 l 1,246,-1
 315 164 l 1,247,248
 317 162 317 162 322 162 c 1,244,-1
317 166 m 1,249,-1
 315 168 l 1,250,251
 317 170 317 170 319 170 c 2,252,-1
 322 168 l 1,253,-1
 322 166 l 2,254,255
 322 164 322 164 324 164 c 128,-1,256
 326 164 326 164 326 166 c 2,257,-1
 324 168 l 2,258,259
 324 170 324 170 325 171 c 128,-1,260
 326 172 326 172 326 170 c 1,261,-1
 326 172 l 1,262,-1
 328 172 l 1,263,-1
 328 174 l 1,264,265
 321 178 321 178 317 178 c 128,-1,266
 313 178 313 178 311 176 c 2,267,-1
 311 174 l 1,268,269
 313 174 313 174 313 172 c 1,270,271
 315 172 315 172 315 170 c 0,272,273
 315 166 315 166 311 166 c 1,274,-1
 313 164 l 2,275,276
 315 164 315 164 315 165 c 128,-1,277
 315 166 315 166 317 166 c 1,249,-1
334 162 m 1,278,279
 334 164 334 164 338 164 c 0,280,281
 340 164 340 164 340 162 c 2,282,-1
 340 160 l 2,283,284
 340 158 340 158 342 158 c 1,285,-1
 340 160 l 2,286,287
 340 162 340 162 341 162 c 128,-1,288
 342 162 342 162 342 164 c 0,289,290
 338 170 338 170 332 170 c 1,291,292
 334 168 334 168 334 166 c 128,-1,293
 334 164 334 164 330 164 c 1,294,-1
 332 162 l 1,295,-1
 334 162 l 1,278,279
311 180 m 1,296,-1
 317 180 l 2,297,298
 324 180 324 180 326 178 c 1,299,300
 321 186 321 186 311 186 c 1,301,-1
 311 184 l 1,302,-1
 311 182 l 1,303,-1
 311 180 l 1,296,-1
330 170 m 128,-1,305
 328 170 328 170 326 168 c 2,306,-1
 328 166 l 2,307,308
 332 166 332 166 332 168 c 128,-1,304
 332 170 332 170 330 170 c 128,-1,305
334 172 m 1,309,310
 340 172 340 172 342 170 c 1,311,-1
 341 172 l 2,312,313
 340 174 340 174 339 174 c 0,314,315
 336 178 336 178 334 178 c 2,316,-1
 332 176 l 1,317,-1
 334 174 l 1,318,-1
 334 172 l 1,309,310
346 162 m 2,319,-1
 344 162 l 2,320,321
 342 160 342 160 344 158 c 0,322,323
 346 158 346 158 348 160 c 0,324,325
 348 162 348 162 346 162 c 2,319,-1
281 158 m 1,326,-1
 283 160 l 1,327,-1
 287 160 l 1,328,329
 285 158 285 158 281 158 c 1,326,-1
289 160 m 1,330,-1
 291 162 l 1,331,-1
 291 164 l 1,332,333
 293 162 293 162 295 162 c 1,334,335
 293 162 293 162 292 161 c 128,-1,336
 291 160 291 160 289 160 c 1,330,-1
299 162 m 1,337,338
 299 164 299 164 301 164 c 2,339,-1
 303 164 l 1,340,-1
 299 162 l 1,337,338
303 166 m 1,341,-1
 303 168 l 1,342,-1
 301 170 l 1,343,-1
 297 168 l 1,344,-1
 297 166 l 2,345,346
 297 164 297 164 295 164 c 128,-1,347
 293 164 293 164 293 166 c 2,348,-1
 295 168 l 2,349,350
 294 170 294 170 293 170 c 1,351,-1
 293 172 l 1,352,-1
 291 172 l 1,353,-1
 291 174 l 1,354,355
 298 178 298 178 303 178 c 0,356,357
 305 178 305 178 307 176 c 2,358,-1
 307 174 l 1,359,-1
 307 172 l 1,360,-1
 305 172 l 1,361,-1
 305 170 l 1,362,-1
 305 168 l 1,363,-1
 305 166 l 1,364,-1
 307 166 l 1,365,366
 307 164 307 164 305 164 c 2,367,-1
 303 166 l 1,341,-1
285 162 m 1,368,-1
 283 164 l 2,369,370
 279 164 279 164 279 162 c 2,371,-1
 281 160 l 2,372,373
 281 158 281 158 276 158 c 1,374,-1
 279 160 l 2,375,376
 279 161 279 161 276 164 c 0,377,378
 278 170 278 170 287 170 c 1,379,380
 285 168 285 168 285 166 c 128,-1,381
 285 164 285 164 289 164 c 1,382,383
 289 162 289 162 287 162 c 2,384,-1
 285 162 l 1,368,-1
307 180 m 1,385,-1
 303 180 l 2,386,387
 295 180 295 180 293 178 c 1,388,389
 298 186 298 186 307 186 c 1,390,-1
 307 184 l 1,391,-1
 307 182 l 1,392,-1
 307 180 l 1,385,-1
289 170 m 1,393,394
 293 170 293 170 293 168 c 128,-1,395
 293 166 293 166 291 166 c 128,-1,396
 289 166 289 166 289 168 c 2,397,-1
 289 170 l 1,393,394
285 172 m 1,398,399
 278 172 278 172 276 170 c 1,400,401
 282 176 282 176 287 178 c 1,402,-1
 287 176 l 1,403,-1
 285 174 l 1,404,-1
 285 172 l 1,398,399
272 162 m 2,405,-1
 276 162 l 1,406,407
 276 160 276 160 274 158 c 0,408,409
 272 158 272 158 272 160 c 1,410,411
 270 160 270 160 270 161 c 128,-1,412
 270 162 270 162 272 162 c 2,405,-1
317 117 m 1,413,-1
 309 109 l 1,414,-1
 303 117 l 1,415,-1
 309 117 l 1,416,-1
 317 117 l 1,413,-1
309 143 m 0,417,418
 287 143 287 143 272 128 c 0,419,420
 258 114 258 114 258 90 c 0,421,422
 258 67 258 67 272 53 c 128,-1,423
 286 39 286 39 309 39 c 0,424,425
 333 39 333 39 347 53 c 0,426,427
 362 68 362 68 362 90 c 0,428,429
 362 113 362 113 347 128 c 128,-1,430
 332 143 332 143 309 143 c 0,417,418
326 1415 m 1,431,-1
 74 1415 l 1,432,-1
 74 1403 l 1,433,-1
 322 1403 l 1,434,-1
 389 1335 l 1,435,-1
 389 1083 l 1,436,-1
 231 928 l 1,437,-1
 231 1247 l 1,438,-1
 74 1247 l 1,439,-1
 74 1235 l 1,440,-1
 221 1235 l 1,441,-1
 221 901 l 1,442,-1
 399 1079 l 1,443,-1
 399 1341 l 1,444,-1
 326 1415 l 1,431,-1
399 1006 m 1,445,-1
 389 993 l 1,446,-1
 389 190 l 1,447,-1
 549 190 l 1,448,-1
 549 201 l 1,449,-1
 399 201 l 1,450,-1
 399 1006 l 1,445,-1
231 838 m 1,451,-1
 221 825 l 1,452,-1
 221 201 l 1,453,-1
 74 201 l 1,454,-1
 74 190 l 1,455,-1
 231 190 l 1,456,-1
 231 838 l 1,451,-1
74 33 m 1,457,-1
 74 23 l 1,458,-1
 231 23 l 1,459,-1
 231 33 l 1,460,-1
 74 33 l 1,457,-1
389 23 m 1,461,-1
 549 23 l 1,462,-1
 549 33 l 1,463,-1
 389 33 l 1,464,-1
 389 23 l 1,461,-1
422 1044 m 1,465,-1
 422 223 l 1,466,-1
 569 223 l 1,467,-1
 569 0 l 1,468,-1
 51 0 l 1,469,-1
 51 223 l 1,470,-1
 201 223 l 1,471,-1
 201 823 l 1,472,-1
 422 1044 l 1,465,-1
EndSplineSet
EndChar

StartChar: numbersign
Encoding: 35 35 6
Width: 780
GlyphClass: 2
Flags: W
LayerCount: 2
Fore
SplineSet
51 1436 m 1,0,-1
 643 1436 l 1,1,-1
 729 1350 l 1,2,-1
 729 1014 l 1,3,-1
 643 928 l 1,4,-1
 330 928 l 1,5,-1
 506 1106 l 1,6,-1
 506 1214 l 1,7,-1
 51 1214 l 1,8,-1
 51 1436 l 1,0,-1
162 150 m 128,-1,10
 138 150 138 150 120 132 c 128,-1,11
 102 114 102 114 102 90 c 128,-1,12
 102 66 102 66 120 48 c 0,13,14
 137 31 137 31 162 31 c 128,-1,15
 187 31 187 31 204 48 c 128,-1,16
 221 65 221 65 221 90 c 128,-1,17
 221 115 221 115 204 132 c 0,18,9
 186 150 186 150 162 150 c 128,-1,10
160 80 m 1,19,-1
 170 80 l 1,20,-1
 170 74 l 1,21,-1
 160 74 l 1,22,-1
 160 66 l 1,23,-1
 162 66 l 2,24,25
 174 66 174 66 180 76 c 1,26,-1
 186 70 l 1,27,28
 175 59 175 59 162 59 c 2,29,-1
 160 59 l 1,30,-1
 160 51 l 1,31,-1
 154 51 l 1,32,-1
 154 59 l 1,33,34
 129 65 129 65 129 92 c 0,35,36
 129 108 129 108 141 119 c 1,37,-1
 135 125 l 1,38,39
 119 115 119 115 119 92 c 0,40,41
 119 74 119 74 127 66 c 1,42,-1
 123 59 l 1,43,44
 111 71 111 71 111 92 c 0,45,46
 111 121 111 121 137 135 c 1,47,-1
 141 129 l 1,48,-1
 147 123 l 1,49,50
 153 123 153 123 155 124 c 128,-1,51
 157 125 157 125 162 125 c 128,-1,52
 167 125 167 125 168 124 c 128,-1,53
 169 123 169 123 174 123 c 2,54,-1
 180 129 l 1,55,-1
 186 135 l 1,56,57
 211 119 211 119 211 92 c 0,58,59
 211 71 211 71 199 59 c 1,60,-1
 195 66 l 1,61,62
 203 74 203 74 203 92 c 0,63,64
 203 114 203 114 186 125 c 1,65,-1
 180 119 l 1,66,67
 182 118 182 118 188 109 c 1,68,-1
 182 104 l 1,69,70
 180 111 180 111 174 113 c 1,71,-1
 162 98 l 1,72,-1
 147 113 l 1,73,74
 135 107 135 107 135 92 c 0,75,76
 135 73 135 73 154 68 c 1,77,-1
 154 92 l 1,78,-1
 170 92 l 1,79,-1
 170 86 l 1,80,-1
 160 86 l 1,81,-1
 160 80 l 1,19,-1
180 45 m 1,82,-1
 168 57 l 1,83,84
 176 58 176 58 188 70 c 1,85,-1
 180 78 l 1,86,87
 174 68 174 68 162 68 c 1,88,-1
 162 72 l 1,89,-1
 172 72 l 1,90,-1
 172 82 l 1,91,-1
 162 82 l 1,92,-1
 162 84 l 1,93,-1
 172 84 l 1,94,-1
 172 94 l 1,95,-1
 152 94 l 1,96,-1
 152 76 l 1,97,-1
 137 90 l 1,98,-1
 137 92 l 2,99,100
 137 105 137 105 147 111 c 1,101,-1
 162 96 l 1,102,-1
 168 102 l 1,103,-1
 197 72 l 2,104,105
 195 70 195 70 195 69 c 128,-1,106
 195 68 195 68 193 66 c 2,107,-1
 190 66 l 1,108,-1
 199 57 l 1,109,110
 189 47 189 47 180 45 c 1,82,-1
127 100 m 1,111,-1
 123 104 l 1,112,113
 125 117 125 117 135 123 c 1,114,-1
 139 119 l 1,115,116
 132 113 132 113 127 100 c 1,111,-1
121 162 m 2,117,-1
 121 160 l 2,118,119
 121 158 121 158 123 156 c 2,120,-1
 127 156 l 1,121,-1
 129 156 l 1,122,-1
 131 154 l 1,123,124
 146 160 146 160 162 160 c 0,125,126
 174 160 174 160 190 154 c 0,127,128
 193 154 193 154 193 156 c 1,129,-1
 197 156 l 1,130,-1
 199 156 l 1,131,-1
 201 160 l 1,132,-1
 201 162 l 1,133,-1
 201 164 l 1,134,-1
 201 166 l 1,135,-1
 199 168 l 1,136,-1
 199 170 l 2,137,138
 199 172 199 172 197 172 c 1,139,-1
 197 174 l 2,140,141
 197 176 197 176 195 176 c 1,142,-1
 195 178 l 1,143,-1
 193 180 l 1,144,-1
 190 180 l 1,145,-1
 188 182 l 1,146,-1
 186 182 l 1,147,-1
 184 184 l 1,148,-1
 182 184 l 1,149,-1
 180 184 l 1,150,151
 180 188 180 188 176 188 c 1,152,-1
 176 186 l 1,153,-1
 176 188 l 2,154,155
 174 190 174 190 172 190 c 2,156,-1
 170 193 l 2,157,158
 168 193 168 193 168 190 c 1,159,-1
 166 193 l 1,160,-1
 164 193 l 2,161,162
 162 193 162 193 162 195 c 1,163,-1
 164 195 l 1,164,-1
 164 197 l 1,165,-1
 162 197 l 1,166,-1
 162 199 l 1,167,-1
 160 199 l 1,168,-1
 160 197 l 1,169,-1
 158 197 l 1,170,-1
 158 195 l 1,171,-1
 160 195 l 1,172,-1
 158 193 l 2,173,174
 156 193 156 193 156 190 c 1,175,-1
 154 193 l 2,176,177
 152 193 152 193 152 191 c 0,178,179
 152 190 152 190 150 190 c 2,180,-1
 145 188 l 1,181,-1
 145 186 l 1,182,-1
 145 188 l 1,183,184
 141 188 141 188 141 184 c 1,185,-1
 143 184 l 1,186,-1
 141 184 l 1,187,-1
 139 184 l 1,188,-1
 137 184 l 2,189,190
 135 184 135 184 135 182 c 1,191,-1
 133 182 l 2,192,193
 131 182 131 182 131 180 c 1,194,195
 127 180 127 180 127 178 c 2,196,-1
 127 176 l 1,197,198
 125 176 125 176 125 174 c 2,199,-1
 125 172 l 1,200,201
 123 172 123 172 123 170 c 2,202,-1
 123 168 l 1,203,204
 121 168 121 168 121 166 c 2,205,-1
 123 164 l 1,206,207
 121 164 121 164 121 162 c 2,117,-1
162 164 m 1,208,-1
 158 164 l 1,209,210
 160 164 160 164 160 165 c 128,-1,211
 160 166 160 166 162 166 c 1,212,213
 162 164 162 164 164 164 c 1,214,-1
 162 164 l 1,208,-1
162 172 m 2,215,216
 164 172 164 172 164 170 c 2,217,-1
 162 168 l 1,218,-1
 160 168 l 1,219,-1
 160 170 l 1,220,-1
 158 170 l 1,221,-1
 158 172 l 1,222,-1
 160 172 l 1,223,-1
 162 172 l 2,215,216
162 158 m 0,224,225
 174 158 174 158 190 152 c 1,226,-1
 188 152 l 1,227,-1
 190 150 l 1,228,-1
 188 147 l 2,229,230
 188 145 188 145 186 145 c 0,231,232
 172 152 172 152 162 152 c 0,233,234
 149 152 149 152 135 145 c 1,235,-1
 133 147 l 1,236,-1
 133 150 l 1,237,-1
 133 152 l 1,238,-1
 131 152 l 1,239,-1
 133 152 l 1,240,241
 145 158 145 158 162 158 c 0,224,225
188 158 m 1,242,-1
 188 160 l 1,243,-1
 186 160 l 1,244,-1
 184 160 l 1,245,-1
 188 158 l 1,242,-1
180 160 m 1,246,-1
 180 162 l 1,247,-1
 180 164 l 1,248,249
 178 164 178 164 178 163 c 128,-1,250
 178 162 178 162 176 162 c 1,251,-1
 180 160 l 1,246,-1
172 162 m 1,252,-1
 170 164 l 1,253,-1
 168 164 l 1,254,255
 168 162 168 162 172 162 c 1,252,-1
168 166 m 1,256,-1
 168 168 l 2,257,258
 168 170 168 170 170 170 c 2,259,-1
 172 168 l 1,260,-1
 172 166 l 1,261,-1
 174 164 l 2,262,263
 176 164 176 164 178 166 c 1,264,-1
 176 166 l 1,265,-1
 174 168 l 1,266,267
 176 170 176 170 178 170 c 1,268,-1
 178 172 l 1,269,-1
 178 174 l 1,270,271
 174 178 174 178 168 178 c 0,272,273
 164 178 164 178 164 176 c 2,274,-1
 162 174 l 1,275,276
 164 174 164 174 164 172 c 1,277,278
 166 172 166 172 166 170 c 0,279,280
 166 166 166 166 164 166 c 1,281,282
 164 164 164 164 166 164 c 2,283,-1
 168 166 l 1,256,-1
186 162 m 1,284,285
 186 164 186 164 188 164 c 128,-1,286
 190 164 190 164 190 162 c 2,287,-1
 190 160 l 1,288,-1
 193 158 l 1,289,-1
 195 158 l 1,290,-1
 193 158 l 1,291,-1
 193 160 l 2,292,293
 193 162 193 162 195 164 c 0,294,295
 190 170 190 170 184 170 c 1,296,-1
 184 166 l 2,297,298
 184 164 184 164 182 164 c 1,299,300
 182 162 182 162 184 162 c 2,301,-1
 186 162 l 1,284,285
164 180 m 1,302,-1
 168 180 l 2,303,304
 172 180 172 180 178 178 c 1,305,306
 173 186 173 186 164 186 c 1,307,-1
 164 184 l 1,308,-1
 164 182 l 1,309,-1
 164 180 l 1,302,-1
180 170 m 128,-1,311
 178 170 178 170 178 168 c 128,-1,312
 178 166 178 166 180 166 c 128,-1,313
 182 166 182 166 182 168 c 128,-1,310
 182 170 182 170 180 170 c 128,-1,311
186 172 m 1,314,315
 191 172 191 172 193 170 c 1,316,317
 193 173 193 173 184 178 c 1,318,-1
 184 176 l 1,319,-1
 186 174 l 1,320,-1
 186 172 l 1,314,315
199 162 m 1,321,-1
 195 162 l 1,322,-1
 195 158 l 1,323,324
 199 158 199 158 199 160 c 2,325,-1
 199 162 l 1,321,-1
133 158 m 1,326,-1
 133 160 l 1,327,-1
 135 160 l 1,328,-1
 137 160 l 1,329,-1
 133 158 l 1,326,-1
141 160 m 1,330,-1
 141 162 l 1,331,-1
 143 164 l 1,332,333
 143 162 143 162 145 162 c 1,334,335
 143 162 143 162 143 161 c 128,-1,336
 143 160 143 160 141 160 c 1,330,-1
150 162 m 1,337,-1
 152 164 l 1,338,-1
 156 164 l 1,339,340
 154 162 154 162 150 162 c 1,337,-1
154 166 m 1,341,-1
 154 168 l 2,342,343
 154 170 154 170 152 170 c 2,344,-1
 150 168 l 1,345,-1
 150 166 l 1,346,-1
 147 164 l 2,347,348
 145 164 145 164 145 166 c 2,349,-1
 147 168 l 1,350,351
 147 174 147 174 143 170 c 1,352,-1
 143 172 l 1,353,-1
 143 174 l 1,354,355
 147 178 147 178 154 178 c 0,356,357
 158 178 158 178 158 176 c 2,358,-1
 160 174 l 1,359,360
 158 174 158 174 158 172 c 1,361,-1
 156 172 l 1,362,-1
 156 170 l 1,363,-1
 156 168 l 1,364,-1
 158 168 l 1,365,-1
 158 166 l 1,366,-1
 160 166 l 1,367,368
 158 166 158 166 158 165 c 128,-1,369
 158 164 158 164 156 164 c 2,370,-1
 154 166 l 1,341,-1
135 162 m 1,371,372
 135 164 135 164 133 164 c 128,-1,373
 131 164 131 164 131 162 c 2,374,-1
 131 160 l 2,375,376
 131 158 131 158 129 158 c 2,377,-1
 127 158 l 1,378,-1
 129 158 l 1,379,-1
 129 160 l 1,380,-1
 129 164 l 2,381,382
 129 170 129 170 137 170 c 1,383,-1
 137 166 l 2,384,385
 137 164 137 164 139 164 c 2,386,-1
 141 164 l 1,387,388
 141 162 141 162 137 162 c 2,389,-1
 135 162 l 1,371,372
158 180 m 1,390,-1
 154 180 l 2,391,392
 149 180 149 180 143 178 c 1,393,394
 151 186 151 186 158 186 c 1,395,-1
 158 184 l 1,396,-1
 158 182 l 1,397,-1
 158 180 l 1,390,-1
141 170 m 128,-1,399
 143 170 143 170 143 168 c 128,-1,400
 143 166 143 166 141 166 c 128,-1,401
 139 166 139 166 139 168 c 128,-1,398
 139 170 139 170 141 170 c 128,-1,399
137 172 m 1,402,403
 131 172 131 172 129 170 c 1,404,405
 129 173 129 173 137 178 c 1,406,407
 137 176 137 176 139 176 c 1,408,-1
 137 174 l 1,409,-1
 137 172 l 1,402,403
123 162 m 1,410,-1
 127 162 l 1,411,-1
 127 158 l 1,412,413
 123 158 123 158 123 160 c 2,414,-1
 123 162 l 1,410,-1
168 117 m 1,415,-1
 162 109 l 1,416,-1
 154 117 l 1,417,-1
 162 117 l 1,418,-1
 168 117 l 1,415,-1
162 143 m 0,419,420
 139 143 139 143 124 128 c 128,-1,421
 109 113 109 113 109 90 c 0,422,423
 109 68 109 68 124 53 c 0,424,425
 138 39 138 39 162 39 c 0,426,427
 185 39 185 39 199 53 c 128,-1,428
 213 67 213 67 213 90 c 0,429,430
 213 114 213 114 199 128 c 0,431,432
 184 143 184 143 162 143 c 0,419,420
51 223 m 1,433,-1
 244 223 l 1,434,-1
 506 485 l 1,435,-1
 506 682 l 1,436,-1
 315 682 l 1,437,-1
 315 903 l 1,438,-1
 643 903 l 1,439,-1
 729 817 l 1,440,-1
 729 393 l 1,441,-1
 336 0 l 1,442,-1
 51 0 l 1,443,-1
 51 223 l 1,433,-1
246 23 m 1,444,-1
 328 23 l 1,445,-1
 707 401 l 1,446,-1
 707 809 l 1,447,-1
 633 881 l 1,448,-1
 336 881 l 1,449,-1
 336 870 l 1,450,-1
 629 870 l 1,451,-1
 696 803 l 1,452,-1
 696 406 l 1,453,-1
 324 33 l 1,454,-1
 246 33 l 1,455,-1
 246 23 l 1,444,-1
246 190 m 1,456,-1
 258 190 l 1,457,-1
 539 471 l 1,458,-1
 539 713 l 1,459,-1
 336 713 l 1,460,-1
 336 702 l 1,461,-1
 528 702 l 1,462,-1
 528 475 l 1,463,-1
 254 201 l 1,464,-1
 246 201 l 1,465,-1
 246 190 l 1,456,-1
72 1415 m 1,466,-1
 72 1403 l 1,467,-1
 629 1403 l 1,468,-1
 696 1335 l 1,469,-1
 696 1028 l 1,470,-1
 629 961 l 1,471,-1
 408 961 l 1,472,-1
 539 1092 l 1,473,-1
 539 1247 l 1,474,-1
 72 1247 l 1,475,-1
 72 1235 l 1,476,-1
 528 1235 l 1,477,-1
 528 1098 l 1,478,-1
 381 950 l 1,479,-1
 635 950 l 1,480,-1
 707 1022 l 1,481,-1
 707 1341 l 1,482,-1
 633 1415 l 1,483,-1
 72 1415 l 1,466,-1
EndSplineSet
EndChar

StartChar: dollar
Encoding: 36 36 7
Width: 870
GlyphClass: 2
Flags: W
LayerCount: 2
Fore
SplineSet
51 1436 m 1,0,-1
 272 1436 l 1,1,-1
 272 989 l 1,2,-1
 520 741 l 1,3,-1
 598 741 l 1,4,-1
 598 1436 l 1,5,-1
 819 1436 l 1,6,-1
 819 520 l 1,7,-1
 430 520 l 1,8,-1
 51 897 l 1,9,-1
 51 1436 l 1,0,-1
709 150 m 128,-1,11
 685 150 685 150 667 132 c 128,-1,12
 649 114 649 114 649 90 c 128,-1,13
 649 66 649 66 667 48 c 0,14,15
 684 31 684 31 709 31 c 128,-1,16
 734 31 734 31 751 48 c 128,-1,17
 768 65 768 65 768 90 c 128,-1,18
 768 115 768 115 751 132 c 0,19,10
 733 150 733 150 709 150 c 128,-1,11
707 80 m 1,20,-1
 717 80 l 1,21,-1
 717 74 l 1,22,-1
 707 74 l 1,23,-1
 707 66 l 1,24,-1
 709 66 l 2,25,26
 721 66 721 66 727 76 c 1,27,-1
 733 70 l 1,28,29
 722 59 722 59 709 59 c 2,30,-1
 707 59 l 1,31,-1
 707 51 l 1,32,-1
 700 51 l 1,33,-1
 700 59 l 1,34,35
 676 65 676 65 676 92 c 0,36,37
 676 108 676 108 688 119 c 1,38,-1
 682 125 l 1,39,40
 666 115 666 115 666 92 c 0,41,42
 666 74 666 74 674 66 c 1,43,-1
 670 59 l 1,44,45
 657 72 657 72 657 92 c 0,46,47
 657 120 657 120 684 135 c 1,48,-1
 688 129 l 1,49,-1
 694 123 l 2,50,51
 699 123 699 123 701 124 c 128,-1,52
 703 125 703 125 709 125 c 0,53,54
 714 125 714 125 715 124 c 128,-1,55
 716 123 716 123 721 123 c 2,56,-1
 727 129 l 1,57,-1
 733 135 l 1,58,59
 758 119 758 119 758 92 c 0,60,61
 758 72 758 72 745 59 c 1,62,-1
 741 66 l 1,63,64
 750 75 750 75 750 92 c 0,65,66
 750 114 750 114 733 125 c 1,67,-1
 727 119 l 1,68,69
 730 118 730 118 735 109 c 1,70,-1
 729 104 l 1,71,72
 727 111 727 111 721 113 c 1,73,-1
 709 98 l 1,74,-1
 694 113 l 1,75,76
 682 107 682 107 682 92 c 0,77,78
 682 72 682 72 700 68 c 1,79,-1
 700 92 l 1,80,-1
 717 92 l 1,81,-1
 717 86 l 1,82,-1
 707 86 l 1,83,-1
 707 80 l 1,20,-1
727 45 m 2,84,-1
 715 57 l 1,85,86
 723 58 723 58 735 70 c 1,87,-1
 735 72 l 1,88,-1
 727 78 l 1,89,90
 721 68 721 68 709 68 c 1,91,-1
 709 72 l 1,92,-1
 719 72 l 1,93,-1
 719 82 l 1,94,-1
 709 82 l 1,95,-1
 709 84 l 1,96,-1
 719 84 l 1,97,-1
 719 94 l 1,98,-1
 698 94 l 1,99,-1
 698 76 l 1,100,-1
 684 90 l 1,101,-1
 684 92 l 2,102,103
 684 105 684 105 694 111 c 1,104,-1
 709 96 l 1,105,-1
 715 102 l 1,106,-1
 743 72 l 2,107,108
 741 70 741 70 741 69 c 128,-1,109
 741 68 741 68 739 66 c 2,110,-1
 737 66 l 1,111,-1
 745 57 l 1,112,113
 742 54 742 54 736 50 c 128,-1,114
 730 46 730 46 727 45 c 2,84,-1
674 100 m 1,115,-1
 670 104 l 1,116,117
 672 117 672 117 682 123 c 1,118,-1
 686 119 l 1,119,120
 679 113 679 113 674 100 c 1,115,-1
668 162 m 2,121,-1
 668 160 l 2,122,123
 668 158 668 158 670 158 c 1,124,125
 670 156 670 156 674 156 c 2,126,-1
 676 156 l 1,127,-1
 678 156 l 1,128,-1
 676 156 l 1,129,-1
 678 154 l 1,130,131
 693 160 693 160 709 160 c 0,132,133
 720 160 720 160 737 154 c 0,134,135
 739 154 739 154 739 156 c 1,136,-1
 743 156 l 2,137,138
 745 156 745 156 745 158 c 2,139,-1
 748 160 l 1,140,-1
 748 162 l 1,141,-1
 748 164 l 1,142,-1
 748 166 l 1,143,-1
 745 168 l 1,144,-1
 745 170 l 2,145,146
 745 172 745 172 743 172 c 1,147,-1
 743 174 l 2,148,149
 743 176 743 176 741 176 c 1,150,-1
 741 178 l 1,151,-1
 739 180 l 1,152,-1
 737 180 l 1,153,-1
 735 182 l 1,154,-1
 733 182 l 1,155,-1
 731 184 l 1,156,-1
 729 184 l 1,157,-1
 727 184 l 1,158,159
 727 188 727 188 723 188 c 1,160,-1
 723 186 l 1,161,-1
 723 188 l 2,162,163
 721 190 721 190 719 190 c 2,164,-1
 717 193 l 2,165,166
 715 193 715 193 715 190 c 1,167,-1
 713 193 l 1,168,-1
 711 193 l 2,169,170
 709 193 709 193 709 195 c 1,171,-1
 711 195 l 1,172,-1
 711 197 l 1,173,-1
 709 197 l 1,174,-1
 709 199 l 1,175,-1
 707 199 l 1,176,-1
 707 197 l 1,177,-1
 705 197 l 1,178,-1
 705 195 l 1,179,-1
 707 195 l 1,180,-1
 705 193 l 2,181,182
 702 193 702 193 702 190 c 1,183,-1
 700 193 l 2,184,185
 698 193 698 193 698 191 c 0,186,187
 698 190 698 190 696 190 c 2,188,-1
 692 188 l 1,189,-1
 692 186 l 1,190,-1
 692 188 l 1,191,192
 688 188 688 188 688 184 c 1,193,-1
 690 184 l 1,194,-1
 688 184 l 1,195,-1
 686 184 l 1,196,-1
 684 184 l 2,197,198
 682 184 682 184 682 182 c 1,199,-1
 680 182 l 2,200,201
 678 182 678 182 678 180 c 1,202,203
 674 180 674 180 674 178 c 2,204,-1
 674 176 l 1,205,206
 672 176 672 176 672 174 c 2,207,-1
 672 172 l 1,208,209
 670 172 670 172 670 170 c 2,210,-1
 670 168 l 1,211,212
 668 168 668 168 668 166 c 2,213,-1
 670 164 l 1,214,215
 668 164 668 164 668 162 c 2,121,-1
709 164 m 1,216,-1
 705 164 l 1,217,218
 707 164 707 164 707 165 c 128,-1,219
 707 166 707 166 709 166 c 1,220,221
 709 164 709 164 711 164 c 1,222,-1
 709 164 l 1,216,-1
709 172 m 2,223,224
 711 172 711 172 711 170 c 2,225,-1
 709 168 l 1,226,-1
 707 168 l 1,227,-1
 707 170 l 1,228,-1
 705 170 l 1,229,-1
 705 172 l 1,230,-1
 707 172 l 1,231,-1
 709 172 l 2,223,224
709 158 m 0,232,233
 720 158 720 158 737 152 c 1,234,-1
 735 152 l 1,235,-1
 737 150 l 1,236,-1
 735 147 l 2,237,238
 735 145 735 145 733 145 c 0,239,240
 719 152 719 152 709 152 c 0,241,242
 696 152 696 152 682 145 c 1,243,-1
 680 147 l 1,244,-1
 680 150 l 1,245,-1
 680 152 l 1,246,-1
 678 152 l 1,247,-1
 680 152 l 1,248,249
 692 158 692 158 709 158 c 0,232,233
735 158 m 1,250,-1
 735 160 l 1,251,-1
 733 160 l 1,252,-1
 731 160 l 1,253,-1
 735 158 l 1,250,-1
727 160 m 1,254,-1
 727 162 l 1,255,-1
 727 164 l 1,256,257
 725 164 725 164 725 163 c 128,-1,258
 725 162 725 162 723 162 c 1,259,-1
 727 160 l 1,254,-1
719 162 m 1,260,-1
 717 164 l 1,261,-1
 715 164 l 1,262,263
 715 162 715 162 719 162 c 1,260,-1
715 166 m 1,264,-1
 715 168 l 2,265,266
 715 170 715 170 717 170 c 2,267,-1
 719 168 l 1,268,-1
 719 166 l 1,269,-1
 721 164 l 2,270,271
 723 164 723 164 725 166 c 1,272,-1
 723 166 l 1,273,-1
 721 168 l 1,274,275
 723 170 723 170 725 170 c 1,276,-1
 725 172 l 1,277,-1
 725 174 l 1,278,279
 721 178 721 178 715 178 c 0,280,281
 711 178 711 178 711 176 c 2,282,-1
 709 174 l 1,283,284
 711 174 711 174 711 172 c 1,285,286
 713 172 713 172 713 170 c 0,287,288
 713 166 713 166 711 166 c 1,289,290
 711 164 711 164 713 164 c 2,291,-1
 715 166 l 1,264,-1
733 162 m 1,292,293
 733 164 733 164 735 164 c 128,-1,294
 737 164 737 164 737 162 c 2,295,-1
 737 160 l 1,296,-1
 739 158 l 1,297,-1
 741 158 l 1,298,-1
 739 158 l 1,299,-1
 739 160 l 2,300,301
 739 162 739 162 741 164 c 0,302,303
 736 170 736 170 731 170 c 1,304,-1
 731 166 l 2,305,306
 731 164 731 164 729 164 c 1,307,308
 729 162 729 162 731 162 c 2,309,-1
 733 162 l 1,292,293
711 180 m 1,310,-1
 715 180 l 2,311,312
 719 180 719 180 725 178 c 1,313,314
 720 186 720 186 711 186 c 1,315,-1
 711 184 l 1,316,-1
 711 182 l 1,317,-1
 711 180 l 1,310,-1
727 170 m 128,-1,319
 725 170 725 170 725 168 c 128,-1,320
 725 166 725 166 727 166 c 128,-1,321
 729 166 729 166 729 168 c 128,-1,318
 729 170 729 170 727 170 c 128,-1,319
733 172 m 1,322,323
 737 172 737 172 739 170 c 1,324,325
 739 173 739 173 731 178 c 1,326,-1
 731 176 l 1,327,-1
 733 174 l 1,328,-1
 733 172 l 1,322,323
745 162 m 1,329,-1
 741 162 l 1,330,-1
 741 158 l 1,331,332
 745 158 745 158 745 160 c 2,333,-1
 745 162 l 1,329,-1
680 158 m 1,334,-1
 680 160 l 1,335,-1
 682 160 l 1,336,-1
 684 160 l 1,337,-1
 680 158 l 1,334,-1
688 160 m 1,338,-1
 688 162 l 1,339,-1
 690 164 l 1,340,341
 690 162 690 162 692 162 c 1,342,343
 690 162 690 162 690 161 c 128,-1,344
 690 160 690 160 688 160 c 1,338,-1
696 162 m 1,345,-1
 698 164 l 1,346,-1
 702 164 l 1,347,348
 700 162 700 162 696 162 c 1,345,-1
700 166 m 1,349,-1
 700 168 l 2,350,351
 700 170 700 170 698 170 c 2,352,-1
 696 168 l 1,353,-1
 696 166 l 1,354,-1
 694 164 l 2,355,356
 692 164 692 164 692 166 c 2,357,-1
 694 168 l 1,358,359
 694 174 694 174 690 170 c 1,360,-1
 690 172 l 1,361,-1
 690 174 l 1,362,363
 694 178 694 178 700 178 c 0,364,365
 705 178 705 178 705 176 c 2,366,-1
 707 174 l 1,367,368
 705 174 705 174 705 172 c 1,369,-1
 702 172 l 1,370,-1
 702 170 l 1,371,-1
 702 168 l 1,372,-1
 705 168 l 1,373,-1
 705 166 l 1,374,-1
 707 166 l 1,375,376
 705 166 705 166 705 165 c 128,-1,377
 705 164 705 164 702 164 c 2,378,-1
 700 166 l 1,349,-1
682 162 m 1,379,380
 682 164 682 164 680 164 c 128,-1,381
 678 164 678 164 678 162 c 2,382,-1
 678 160 l 2,383,384
 678 158 678 158 676 158 c 2,385,-1
 674 158 l 1,386,-1
 676 158 l 1,387,-1
 676 160 l 1,388,-1
 676 164 l 2,389,390
 676 170 676 170 684 170 c 1,391,-1
 684 166 l 2,392,393
 684 164 684 164 686 164 c 2,394,-1
 688 164 l 1,395,396
 688 162 688 162 684 162 c 2,397,-1
 682 162 l 1,379,380
705 180 m 1,398,-1
 700 180 l 2,399,400
 696 180 696 180 690 178 c 1,401,402
 698 186 698 186 705 186 c 1,403,-1
 705 184 l 1,404,-1
 705 182 l 1,405,-1
 705 180 l 1,398,-1
688 170 m 128,-1,407
 690 170 690 170 690 168 c 128,-1,408
 690 166 690 166 688 166 c 128,-1,409
 686 166 686 166 686 168 c 128,-1,406
 686 170 686 170 688 170 c 128,-1,407
684 172 m 1,410,411
 678 172 678 172 676 170 c 1,412,413
 676 173 676 173 684 178 c 1,414,415
 684 176 684 176 686 176 c 1,416,-1
 684 174 l 1,417,-1
 684 172 l 1,410,411
670 162 m 1,418,-1
 674 162 l 1,419,-1
 674 158 l 1,420,421
 670 158 670 158 670 160 c 2,422,-1
 670 162 l 1,418,-1
715 117 m 1,423,-1
 709 109 l 1,424,-1
 700 117 l 1,425,-1
 709 117 l 1,426,-1
 715 117 l 1,423,-1
709 143 m 0,427,428
 686 143 686 143 671 128 c 0,429,430
 655 112 655 112 655 90 c 0,431,432
 655 69 655 69 671 53 c 0,433,434
 685 39 685 39 709 39 c 0,435,436
 731 39 731 39 745 53 c 0,437,438
 760 68 760 68 760 90 c 0,439,440
 760 113 760 113 745 128 c 128,-1,441
 730 143 730 143 709 143 c 0,427,428
72 1415 m 1,442,-1
 72 905 l 1,443,-1
 438 541 l 1,444,-1
 799 541 l 1,445,-1
 799 1415 l 1,446,-1
 786 1415 l 1,447,-1
 786 551 l 1,448,-1
 442 551 l 1,449,-1
 84 911 l 1,450,-1
 84 1415 l 1,451,-1
 72 1415 l 1,442,-1
631 1415 m 1,452,-1
 618 1415 l 1,453,-1
 618 719 l 1,454,-1
 512 719 l 1,455,-1
 252 981 l 1,456,-1
 252 1415 l 1,457,-1
 240 1415 l 1,458,-1
 240 975 l 1,459,-1
 508 709 l 1,460,-1
 631 709 l 1,461,-1
 631 1415 l 1,452,-1
799 479 m 1,462,-1
 618 479 l 1,463,-1
 618 23 l 1,464,-1
 631 23 l 1,465,-1
 631 469 l 1,466,-1
 786 469 l 1,467,-1
 786 23 l 1,468,-1
 799 23 l 1,469,-1
 799 479 l 1,462,-1
819 502 m 1,470,-1
 819 0 l 1,471,-1
 598 0 l 1,472,-1
 598 502 l 1,473,-1
 819 502 l 1,470,-1
EndSplineSet
EndChar

StartChar: percent
Encoding: 37 37 8
Width: 763
GlyphClass: 2
Flags: W
LayerCount: 2
Fore
SplineSet
137 1436 m 1,0,-1
 721 1436 l 1,1,-1
 721 1214 l 1,2,-1
 272 1214 l 1,3,-1
 272 772 l 1,4,-1
 51 993 l 1,5,-1
 51 1350 l 1,6,-1
 137 1436 l 1,0,-1
442 150 m 128,-1,8
 418 150 418 150 400 132 c 0,9,10
 383 115 383 115 383 90 c 128,-1,11
 383 65 383 65 400 48 c 128,-1,12
 417 31 417 31 442 31 c 128,-1,13
 467 31 467 31 484 48 c 0,14,15
 502 66 502 66 502 90 c 128,-1,16
 502 114 502 114 484 132 c 128,-1,7
 466 150 466 150 442 150 c 128,-1,8
440 80 m 1,17,-1
 451 80 l 1,18,-1
 451 74 l 1,19,-1
 440 74 l 1,20,-1
 440 66 l 1,21,-1
 442 66 l 2,22,23
 453 66 453 66 463 76 c 1,24,-1
 467 70 l 1,25,26
 456 59 456 59 442 59 c 2,27,-1
 440 59 l 1,28,-1
 440 51 l 1,29,-1
 434 51 l 1,30,-1
 434 59 l 1,31,32
 410 65 410 65 410 92 c 0,33,34
 410 112 410 112 424 119 c 1,35,-1
 416 125 l 1,36,37
 399 114 399 114 399 92 c 0,38,39
 399 77 399 77 410 66 c 1,40,-1
 403 59 l 1,41,42
 393 73 393 73 393 92 c 0,43,44
 393 122 393 122 418 135 c 1,45,-1
 422 129 l 1,46,-1
 430 123 l 2,47,48
 435 123 435 123 436 124 c 128,-1,49
 437 125 437 125 442 125 c 0,50,51
 448 125 448 125 449 124 c 128,-1,52
 450 123 450 123 455 123 c 2,53,-1
 461 129 l 1,54,-1
 467 135 l 1,55,56
 492 119 492 119 492 92 c 0,57,58
 492 72 492 72 479 59 c 1,59,-1
 475 66 l 1,60,61
 485 76 485 76 485 92 c 0,62,63
 485 114 485 114 467 125 c 1,64,-1
 461 119 l 1,65,66
 464 118 464 118 469 109 c 1,67,-1
 465 104 l 1,68,69
 464 107 464 107 461 110 c 0,70,71
 460 111 460 111 457 113 c 2,72,-1
 442 98 l 1,73,-1
 428 113 l 1,74,75
 416 107 416 107 416 92 c 0,76,77
 416 72 416 72 434 68 c 1,78,-1
 434 92 l 1,79,-1
 451 92 l 1,80,-1
 451 86 l 1,81,-1
 440 86 l 1,82,-1
 440 80 l 1,17,-1
461 45 m 2,83,-1
 449 57 l 1,84,85
 457 58 457 58 469 70 c 1,86,-1
 469 72 l 1,87,-1
 463 78 l 1,88,-1
 461 78 l 1,89,90
 455 68 455 68 442 68 c 1,91,-1
 442 72 l 1,92,-1
 453 72 l 1,93,-1
 453 82 l 1,94,-1
 442 82 l 1,95,-1
 442 84 l 1,96,-1
 453 84 l 1,97,-1
 453 94 l 1,98,-1
 432 94 l 1,99,-1
 432 76 l 1,100,-1
 418 90 l 1,101,-1
 418 92 l 2,102,103
 418 105 418 105 428 111 c 1,104,-1
 442 96 l 1,105,-1
 449 102 l 1,106,-1
 477 72 l 2,107,108
 477 70 477 70 473 66 c 1,109,-1
 479 57 l 1,110,111
 476 54 476 54 470 50 c 128,-1,112
 464 46 464 46 461 45 c 2,83,-1
408 100 m 1,113,-1
 403 104 l 1,114,115
 405 116 405 116 416 123 c 1,116,-1
 420 119 l 1,117,118
 413 113 413 113 408 100 c 1,113,-1
403 162 m 1,119,-1
 403 160 l 1,120,121
 401 160 401 160 401 159 c 128,-1,122
 401 158 401 158 403 158 c 1,123,124
 403 156 403 156 408 156 c 2,125,-1
 410 156 l 1,126,-1
 412 156 l 1,127,-1
 412 154 l 1,128,-1
 414 154 l 1,129,130
 426 160 426 160 442 160 c 0,131,132
 459 160 459 160 471 154 c 0,133,134
 473 154 473 154 473 156 c 1,135,-1
 477 156 l 2,136,137
 479 156 479 156 481 158 c 128,-1,138
 483 160 483 160 481 160 c 1,139,-1
 481 162 l 1,140,-1
 481 164 l 1,141,-1
 481 166 l 1,142,-1
 479 168 l 1,143,-1
 479 170 l 2,144,145
 479 172 479 172 477 172 c 1,146,-1
 479 174 l 2,147,148
 479 176 479 176 475 176 c 1,149,-1
 475 178 l 1,150,-1
 473 180 l 1,151,-1
 471 180 l 1,152,153
 471 182 471 182 469 182 c 2,154,-1
 467 182 l 1,155,156
 467 184 467 184 465 184 c 2,157,-1
 463 184 l 1,158,-1
 461 184 l 1,159,-1
 459 188 l 2,160,161
 457 188 457 188 457 186 c 1,162,-1
 457 188 l 1,163,-1
 455 190 l 1,164,-1
 453 190 l 1,165,-1
 451 193 l 2,166,167
 449 193 449 193 449 190 c 1,168,-1
 446 193 l 1,169,-1
 444 193 l 1,170,-1
 442 195 l 1,171,-1
 444 195 l 1,172,-1
 444 197 l 1,173,-1
 442 197 l 1,174,-1
 442 199 l 1,175,-1
 440 199 l 1,176,-1
 440 197 l 1,177,-1
 438 197 l 1,178,-1
 438 195 l 1,179,-1
 440 195 l 1,180,181
 440 193 440 193 438 193 c 128,-1,182
 436 193 436 193 436 190 c 1,183,-1
 434 193 l 1,184,-1
 432 190 l 1,185,-1
 430 190 l 1,186,-1
 428 188 l 1,187,-1
 428 186 l 1,188,-1
 426 188 l 2,189,190
 424 188 424 188 424 184 c 1,191,-1
 422 184 l 1,192,-1
 420 184 l 2,193,194
 416 184 416 184 416 182 c 1,195,196
 412 182 412 182 412 180 c 1,197,198
 408 180 408 180 408 178 c 2,199,-1
 410 176 l 1,200,-1
 408 176 l 2,201,202
 406 176 406 176 406 174 c 2,203,-1
 406 172 l 1,204,205
 403 172 403 172 403 170 c 128,-1,206
 403 168 403 168 406 168 c 1,207,208
 403 168 403 168 403 166 c 2,209,-1
 403 164 l 1,210,211
 401 164 401 164 401 162 c 1,212,-1
 403 162 l 1,119,-1
442 164 m 1,213,-1
 440 164 l 1,214,-1
 442 166 l 1,215,216
 442 164 442 164 444 164 c 1,217,-1
 442 164 l 1,213,-1
442 172 m 2,218,219
 444 172 444 172 444 170 c 2,220,-1
 442 168 l 1,221,-1
 440 168 l 1,222,-1
 440 170 l 1,223,-1
 440 172 l 1,224,-1
 442 172 l 2,218,219
442 158 m 0,225,226
 459 158 459 158 471 152 c 1,227,-1
 471 150 l 1,228,-1
 469 147 l 1,229,-1
 469 145 l 1,230,-1
 467 145 l 1,231,232
 455 152 455 152 442 152 c 0,233,234
 430 152 430 152 416 145 c 1,235,-1
 416 147 l 1,236,-1
 414 150 l 1,237,-1
 414 152 l 1,238,239
 426 158 426 158 442 158 c 0,225,226
471 158 m 1,240,-1
 469 160 l 1,241,-1
 467 160 l 1,242,-1
 465 160 l 1,243,244
 467 158 467 158 471 158 c 1,240,-1
461 160 m 1,245,-1
 461 162 l 1,246,-1
 461 164 l 1,247,248
 459 162 459 162 457 162 c 1,249,-1
 461 160 l 1,245,-1
453 162 m 1,250,251
 453 164 453 164 451 164 c 2,252,-1
 449 164 l 1,253,-1
 453 162 l 1,250,251
449 166 m 1,254,-1
 449 168 l 1,255,-1
 451 170 l 1,256,-1
 455 168 l 2,257,258
 455 166 455 166 453 166 c 1,259,260
 453 164 453 164 457 164 c 0,261,262
 459 164 459 164 459 166 c 1,263,264
 457 166 457 166 456 167 c 128,-1,265
 455 168 455 168 457 168 c 0,266,267
 458 170 458 170 459 170 c 1,268,-1
 459 172 l 1,269,-1
 461 172 l 1,270,-1
 461 174 l 1,271,272
 454 178 454 178 449 178 c 0,273,274
 446 178 446 178 444 176 c 2,275,-1
 444 174 l 1,276,-1
 444 172 l 1,277,278
 446 172 446 172 446 170 c 0,279,280
 446 166 446 166 444 166 c 1,281,282
 444 164 444 164 446 164 c 2,283,-1
 449 166 l 1,254,-1
467 162 m 1,284,-1
 469 164 l 2,285,286
 473 164 473 164 473 162 c 1,287,288
 471 162 471 162 471 160 c 2,289,-1
 473 158 l 1,290,-1
 475 158 l 1,291,-1
 473 160 l 2,292,293
 473 162 473 162 475 164 c 0,294,295
 470 170 470 170 465 170 c 1,296,297
 467 168 467 168 467 166 c 0,298,299
 465 164 465 164 463 164 c 1,300,301
 463 162 463 162 465 162 c 2,302,-1
 467 162 l 1,284,-1
444 180 m 1,303,-1
 449 180 l 2,304,305
 457 180 457 180 459 178 c 1,306,307
 454 186 454 186 444 186 c 1,308,-1
 444 184 l 1,309,-1
 444 182 l 1,310,-1
 444 180 l 1,303,-1
463 170 m 1,311,312
 459 170 459 170 459 168 c 128,-1,313
 459 166 459 166 461 166 c 128,-1,314
 463 166 463 166 463 168 c 2,315,-1
 463 170 l 1,311,312
467 172 m 1,316,317
 473 172 473 172 473 170 c 1,318,319
 473 176 473 176 465 178 c 1,320,-1
 465 176 l 1,321,-1
 467 174 l 1,322,-1
 467 172 l 1,316,317
479 162 m 1,323,-1
 475 162 l 1,324,325
 475 160 475 160 477 158 c 0,326,327
 479 158 479 158 479 160 c 2,328,-1
 479 162 l 1,323,-1
414 158 m 1,329,330
 414 160 414 160 416 160 c 2,331,-1
 418 160 l 1,332,333
 416 158 416 158 414 158 c 1,329,330
422 160 m 1,334,335
 422 162 422 162 424 162 c 1,336,-1
 424 164 l 1,337,-1
 426 162 l 1,338,339
 424 160 424 160 422 160 c 1,334,335
430 162 m 1,340,-1
 432 164 l 1,341,-1
 434 164 l 1,342,-1
 436 164 l 1,343,344
 434 162 434 162 430 162 c 1,340,-1
434 166 m 1,345,-1
 434 168 l 2,346,347
 434 170 434 170 432 170 c 2,348,-1
 430 168 l 1,349,-1
 430 166 l 2,350,351
 430 164 430 164 428 164 c 128,-1,352
 426 164 426 164 426 166 c 2,353,-1
 428 168 l 1,354,355
 428 174 428 174 424 170 c 1,356,-1
 424 172 l 1,357,-1
 424 174 l 1,358,359
 428 178 428 178 434 178 c 0,360,361
 438 178 438 178 438 176 c 1,362,363
 440 176 440 176 440 174 c 1,364,365
 438 174 438 174 438 172 c 1,366,-1
 436 172 l 1,367,-1
 436 170 l 1,368,-1
 436 168 l 1,369,-1
 438 168 l 1,370,-1
 438 166 l 1,371,-1
 440 166 l 1,372,-1
 438 164 l 2,373,374
 436 164 436 164 436 165 c 128,-1,375
 436 166 436 166 434 166 c 1,345,-1
418 162 m 1,376,377
 418 164 418 164 414 164 c 0,378,379
 412 164 412 164 412 162 c 2,380,-1
 412 160 l 2,381,382
 412 158 412 158 410 158 c 1,383,384
 410 160 410 160 412 160 c 1,385,386
 412 162 412 162 411 162 c 128,-1,387
 410 162 410 162 410 164 c 0,388,389
 410 170 410 170 420 170 c 1,390,391
 418 168 418 168 418 166 c 2,392,-1
 420 164 l 1,393,-1
 422 164 l 1,394,-1
 420 162 l 1,395,-1
 418 162 l 1,376,377
440 180 m 1,396,-1
 434 180 l 2,397,398
 428 180 428 180 426 178 c 1,399,400
 431 186 431 186 438 186 c 1,401,-1
 440 184 l 1,402,-1
 440 182 l 1,403,-1
 438 182 l 1,404,-1
 440 180 l 1,396,-1
422 170 m 128,-1,406
 424 170 424 170 424 168 c 2,407,-1
 424 166 l 1,408,409
 420 166 420 166 420 168 c 128,-1,405
 420 170 420 170 422 170 c 128,-1,406
418 172 m 1,410,411
 412 172 412 172 410 170 c 1,412,-1
 411 172 l 2,413,414
 412 174 412 174 413 174 c 0,415,416
 416 178 416 178 418 178 c 1,417,418
 418 176 418 176 420 176 c 1,419,-1
 418 174 l 1,420,-1
 418 172 l 1,410,411
406 162 m 2,421,-1
 408 162 l 2,422,423
 410 160 410 160 408 158 c 0,424,425
 405 158 405 158 403 160 c 0,426,427
 403 162 403 162 406 162 c 2,421,-1
449 117 m 1,428,-1
 442 109 l 1,429,-1
 434 117 l 1,430,-1
 442 117 l 1,431,-1
 449 117 l 1,428,-1
442 143 m 0,432,433
 419 143 419 143 404 128 c 128,-1,434
 389 113 389 113 389 90 c 0,435,436
 389 68 389 68 404 53 c 0,437,438
 418 39 418 39 442 39 c 0,439,440
 465 39 465 39 479 53 c 0,441,442
 494 68 494 68 494 90 c 0,443,444
 494 113 494 113 479 128 c 128,-1,445
 464 143 464 143 442 143 c 0,432,433
510 201 m 1,446,-1
 510 190 l 1,447,-1
 524 190 l 1,448,-1
 524 567 l 1,449,-1
 311 778 l 1,450,-1
 311 764 l 1,451,-1
 512 561 l 1,452,-1
 512 201 l 1,453,-1
 510 201 l 1,446,-1
510 33 m 1,454,-1
 510 23 l 1,455,-1
 619 23 l 1,456,-1
 692 96 l 1,457,-1
 692 635 l 1,458,-1
 311 1016 l 1,459,-1
 311 999 l 1,460,-1
 680 631 l 1,461,-1
 680 100 l 1,462,-1
 612 33 l 1,463,-1
 510 33 l 1,454,-1
369 23 m 1,464,-1
 369 33 l 1,465,-1
 299 33 l 1,466,-1
 84 250 l 1,467,-1
 84 387 l 1,468,-1
 72 387 l 1,469,-1
 72 244 l 1,470,-1
 293 23 l 1,471,-1
 369 23 l 1,464,-1
369 190 m 1,472,-1
 369 201 l 1,473,-1
 252 319 l 1,474,-1
 252 387 l 1,475,-1
 240 387 l 1,476,-1
 240 313 l 1,477,-1
 363 190 l 1,478,-1
 369 190 l 1,472,-1
145 1415 m 1,479,-1
 72 1341 l 1,480,-1
 72 1001 l 1,481,-1
 252 823 l 1,482,-1
 252 1235 l 1,483,-1
 698 1235 l 1,484,-1
 698 1247 l 1,485,-1
 240 1247 l 1,486,-1
 240 850 l 1,487,-1
 84 1008 l 1,488,-1
 84 1335 l 1,489,-1
 150 1403 l 1,490,-1
 698 1403 l 1,491,-1
 698 1415 l 1,492,-1
 145 1415 l 1,479,-1
291 1067 m 1,493,-1
 713 645 l 1,494,-1
 713 86 l 1,495,-1
 627 0 l 1,496,-1
 285 0 l 1,497,-1
 51 236 l 1,498,-1
 51 408 l 1,499,-1
 272 408 l 1,500,-1
 272 328 l 1,501,-1
 377 223 l 1,502,-1
 492 223 l 1,503,-1
 492 553 l 1,504,-1
 291 754 l 1,505,-1
 291 1067 l 1,493,-1
EndSplineSet
EndChar

StartChar: ampersand
Encoding: 38 38 9
Width: 858
GlyphClass: 2
Flags: W
LayerCount: 2
Fore
SplineSet
530 780 m 1,0,-1
 530 0 l 1,1,-1
 309 0 l 1,2,-1
 309 559 l 1,3,-1
 530 780 l 1,0,-1
508 729 m 1,4,-1
 498 717 l 1,5,-1
 498 23 l 1,6,-1
 508 23 l 1,7,-1
 508 729 l 1,4,-1
340 561 m 1,8,-1
 330 549 l 1,9,-1
 330 23 l 1,10,-1
 340 23 l 1,11,-1
 340 561 l 1,8,-1
330 635 m 1,12,-1
 786 1092 l 1,13,-1
 786 1341 l 1,14,-1
 713 1415 l 1,15,-1
 74 1415 l 1,16,-1
 74 1403 l 1,17,-1
 709 1403 l 1,18,-1
 776 1335 l 1,19,-1
 776 1098 l 1,20,-1
 340 662 l 1,21,-1
 340 883 l 1,22,-1
 686 1229 l 1,23,-1
 686 1247 l 1,24,-1
 74 1247 l 1,25,-1
 74 1235 l 1,26,-1
 676 1235 l 1,27,-1
 330 889 l 1,28,-1
 330 635 l 1,12,-1
309 584 m 1,29,-1
 309 897 l 1,30,-1
 625 1214 l 1,31,-1
 51 1214 l 1,32,-1
 51 1436 l 1,33,-1
 721 1436 l 1,34,-1
 807 1350 l 1,35,-1
 807 1083 l 1,36,-1
 309 584 l 1,29,-1
420 150 m 128,-1,38
 396 150 396 150 378 132 c 128,-1,39
 360 114 360 114 360 90 c 128,-1,40
 360 66 360 66 378 48 c 0,41,42
 395 31 395 31 420 31 c 128,-1,43
 445 31 445 31 462 48 c 128,-1,44
 479 65 479 65 479 90 c 128,-1,45
 479 115 479 115 462 132 c 0,46,37
 444 150 444 150 420 150 c 128,-1,38
418 80 m 1,47,-1
 428 80 l 1,48,-1
 428 74 l 1,49,-1
 418 74 l 1,50,-1
 418 66 l 1,51,-1
 420 66 l 2,52,53
 430 66 430 66 440 76 c 1,54,-1
 444 70 l 1,55,56
 433 59 433 59 420 59 c 2,57,-1
 418 59 l 1,58,-1
 418 51 l 1,59,-1
 412 51 l 1,60,-1
 412 59 l 1,61,62
 387 65 387 65 387 92 c 0,63,64
 387 112 387 112 401 119 c 1,65,-1
 393 125 l 1,66,67
 377 115 377 115 377 92 c 0,68,69
 377 76 377 76 387 66 c 1,70,-1
 381 59 l 1,71,72
 371 73 371 73 371 92 c 0,73,74
 371 123 371 123 395 135 c 1,75,-1
 399 129 l 1,76,-1
 408 123 l 2,77,78
 413 123 413 123 414 124 c 128,-1,79
 415 125 415 125 420 125 c 128,-1,80
 425 125 425 125 426 124 c 128,-1,81
 427 123 427 123 432 123 c 2,82,-1
 438 129 l 1,83,-1
 444 135 l 1,84,85
 469 119 469 119 469 92 c 0,86,87
 469 71 469 71 457 59 c 1,88,-1
 453 66 l 1,89,90
 463 76 463 76 463 92 c 0,91,92
 463 114 463 114 444 125 c 1,93,-1
 438 119 l 1,94,95
 440 118 440 118 446 109 c 1,96,-1
 442 104 l 1,97,98
 441 107 441 107 438 110 c 0,99,100
 437 111 437 111 434 113 c 2,101,-1
 420 98 l 1,102,-1
 406 113 l 1,103,104
 393 106 393 106 393 92 c 0,105,106
 393 73 393 73 412 68 c 1,107,-1
 412 92 l 1,108,-1
 428 92 l 1,109,-1
 428 86 l 1,110,-1
 418 86 l 1,111,-1
 418 80 l 1,47,-1
438 45 m 2,112,-1
 426 57 l 1,113,114
 434 58 434 58 446 70 c 1,115,-1
 446 72 l 1,116,-1
 440 78 l 1,117,-1
 438 78 l 1,118,119
 432 68 432 68 420 68 c 1,120,-1
 420 72 l 1,121,-1
 430 72 l 1,122,-1
 430 82 l 1,123,-1
 420 82 l 1,124,-1
 420 84 l 1,125,-1
 430 84 l 1,126,-1
 430 94 l 1,127,-1
 410 94 l 1,128,-1
 410 76 l 1,129,-1
 395 90 l 1,130,-1
 395 92 l 2,131,132
 395 105 395 105 406 111 c 1,133,-1
 420 96 l 1,134,-1
 426 102 l 1,135,-1
 455 72 l 2,136,137
 455 70 455 70 451 66 c 1,138,-1
 457 57 l 2,139,140
 456 56 456 56 447 50 c 0,141,142
 441 46 441 46 438 45 c 2,112,-1
385 100 m 1,143,-1
 381 104 l 1,144,145
 383 117 383 117 393 123 c 1,146,-1
 397 119 l 1,147,148
 390 113 390 113 385 100 c 1,143,-1
381 162 m 1,149,-1
 381 160 l 1,150,151
 379 160 379 160 379 159 c 128,-1,152
 379 158 379 158 381 158 c 1,153,154
 381 156 381 156 385 156 c 2,155,-1
 387 156 l 1,156,-1
 389 156 l 1,157,-1
 389 154 l 1,158,-1
 391 154 l 1,159,160
 403 160 403 160 420 160 c 128,-1,161
 437 160 437 160 449 154 c 0,162,163
 451 154 451 154 451 156 c 1,164,-1
 455 156 l 2,165,166
 457 156 457 156 459 158 c 128,-1,167
 461 160 461 160 459 160 c 1,168,-1
 459 162 l 1,169,-1
 459 164 l 1,170,-1
 459 166 l 1,171,-1
 457 168 l 1,172,-1
 457 170 l 2,173,174
 457 172 457 172 455 172 c 1,175,-1
 457 174 l 2,176,177
 457 176 457 176 453 176 c 1,178,-1
 453 178 l 1,179,-1
 451 180 l 1,180,-1
 449 180 l 1,181,182
 449 182 449 182 446 182 c 2,183,-1
 444 182 l 1,184,185
 444 184 444 184 442 184 c 2,186,-1
 440 184 l 1,187,-1
 438 184 l 1,188,-1
 436 188 l 2,189,190
 434 188 434 188 434 186 c 1,191,-1
 434 188 l 1,192,-1
 432 190 l 1,193,-1
 430 190 l 1,194,-1
 428 193 l 2,195,196
 426 193 426 193 426 190 c 1,197,-1
 424 193 l 1,198,-1
 422 193 l 1,199,-1
 420 195 l 1,200,-1
 422 195 l 1,201,-1
 422 197 l 1,202,-1
 420 197 l 1,203,-1
 420 199 l 1,204,-1
 418 199 l 1,205,-1
 418 197 l 1,206,-1
 416 197 l 1,207,-1
 416 195 l 1,208,-1
 418 195 l 1,209,210
 418 193 418 193 416 193 c 128,-1,211
 414 193 414 193 414 190 c 1,212,-1
 412 193 l 1,213,-1
 410 190 l 1,214,-1
 408 190 l 1,215,-1
 406 188 l 1,216,-1
 406 186 l 1,217,-1
 403 188 l 2,218,219
 401 188 401 188 401 184 c 1,220,-1
 399 184 l 1,221,-1
 397 184 l 2,222,223
 393 184 393 184 393 182 c 1,224,225
 389 182 389 182 389 180 c 1,226,227
 385 180 385 180 385 178 c 2,228,-1
 387 176 l 1,229,-1
 385 176 l 2,230,231
 383 176 383 176 383 174 c 2,232,-1
 383 172 l 1,233,234
 381 172 381 172 381 170 c 128,-1,235
 381 168 381 168 383 168 c 1,236,237
 381 168 381 168 381 166 c 2,238,-1
 381 164 l 1,239,240
 379 164 379 164 379 162 c 1,241,-1
 381 162 l 1,149,-1
420 164 m 1,242,-1
 418 164 l 1,243,-1
 420 166 l 1,244,245
 420 164 420 164 422 164 c 1,246,-1
 420 164 l 1,242,-1
420 172 m 2,247,248
 422 172 422 172 422 170 c 2,249,-1
 420 168 l 1,250,-1
 418 168 l 1,251,-1
 418 170 l 1,252,-1
 418 172 l 1,253,-1
 420 172 l 2,247,248
420 158 m 128,-1,255
 437 158 437 158 449 152 c 1,256,-1
 449 150 l 1,257,-1
 446 147 l 1,258,-1
 446 145 l 1,259,-1
 444 145 l 1,260,261
 432 152 432 152 420 152 c 0,262,263
 407 152 407 152 393 145 c 1,264,-1
 393 147 l 1,265,-1
 391 150 l 1,266,-1
 391 152 l 1,267,254
 403 158 403 158 420 158 c 128,-1,255
449 158 m 1,268,-1
 446 160 l 1,269,-1
 444 160 l 1,270,-1
 442 160 l 1,271,272
 444 158 444 158 449 158 c 1,268,-1
438 160 m 1,273,-1
 438 162 l 1,274,-1
 438 164 l 1,275,276
 436 162 436 162 434 162 c 1,277,-1
 438 160 l 1,273,-1
430 162 m 1,278,279
 430 164 430 164 428 164 c 2,280,-1
 426 164 l 1,281,-1
 430 162 l 1,278,279
426 166 m 1,282,-1
 426 168 l 1,283,-1
 428 170 l 1,284,-1
 432 168 l 2,285,286
 432 166 432 166 430 166 c 1,287,288
 430 164 430 164 434 164 c 0,289,290
 436 164 436 164 436 166 c 1,291,292
 434 166 434 166 433 167 c 128,-1,293
 432 168 432 168 434 168 c 0,294,295
 435 170 435 170 436 170 c 1,296,-1
 436 172 l 1,297,-1
 438 172 l 1,298,-1
 438 174 l 1,299,300
 431 178 431 178 426 178 c 0,301,302
 424 178 424 178 422 176 c 2,303,-1
 422 174 l 1,304,-1
 422 172 l 1,305,306
 424 172 424 172 424 170 c 0,307,308
 424 166 424 166 422 166 c 1,309,310
 422 164 422 164 424 164 c 2,311,-1
 426 166 l 1,282,-1
444 162 m 1,312,-1
 446 164 l 2,313,314
 451 164 451 164 451 162 c 1,315,316
 449 162 449 162 449 160 c 2,317,-1
 451 158 l 1,318,-1
 453 158 l 1,319,-1
 451 160 l 2,320,321
 451 162 451 162 453 164 c 0,322,323
 448 170 448 170 442 170 c 1,324,325
 444 168 444 168 444 166 c 0,326,327
 442 164 442 164 440 164 c 1,328,329
 440 162 440 162 442 162 c 2,330,-1
 444 162 l 1,312,-1
422 180 m 1,331,-1
 426 180 l 2,332,333
 434 180 434 180 436 178 c 1,334,335
 431 186 431 186 422 186 c 1,336,-1
 422 184 l 1,337,-1
 422 182 l 1,338,-1
 422 180 l 1,331,-1
440 170 m 1,339,340
 436 170 436 170 436 168 c 128,-1,341
 436 166 436 166 438 166 c 128,-1,342
 440 166 440 166 440 168 c 2,343,-1
 440 170 l 1,339,340
444 172 m 1,344,345
 451 172 451 172 451 170 c 1,346,347
 451 176 451 176 442 178 c 1,348,-1
 442 176 l 1,349,-1
 444 174 l 1,350,-1
 444 172 l 1,344,345
457 162 m 1,351,-1
 453 162 l 1,352,353
 453 160 453 160 455 158 c 0,354,355
 457 158 457 158 457 160 c 2,356,-1
 457 162 l 1,351,-1
391 158 m 1,357,358
 391 160 391 160 393 160 c 2,359,-1
 395 160 l 1,360,361
 393 158 393 158 391 158 c 1,357,358
399 160 m 1,362,363
 399 162 399 162 401 162 c 1,364,-1
 401 164 l 1,365,-1
 403 162 l 1,366,367
 401 160 401 160 399 160 c 1,362,363
408 162 m 1,368,-1
 410 164 l 1,369,-1
 412 164 l 1,370,-1
 414 164 l 1,371,372
 412 162 412 162 408 162 c 1,368,-1
412 166 m 1,373,-1
 412 168 l 2,374,375
 412 170 412 170 410 170 c 2,376,-1
 408 168 l 1,377,-1
 408 166 l 2,378,379
 408 164 408 164 406 164 c 0,380,381
 403 164 403 164 403 166 c 2,382,-1
 406 168 l 1,383,384
 406 175 406 175 401 170 c 1,385,-1
 401 172 l 1,386,-1
 401 174 l 1,387,388
 405 178 405 178 412 178 c 0,389,390
 416 178 416 178 416 176 c 1,391,392
 418 176 418 176 418 174 c 1,393,394
 416 174 416 174 416 172 c 1,395,-1
 414 172 l 1,396,-1
 414 170 l 1,397,-1
 414 168 l 1,398,-1
 416 168 l 1,399,-1
 416 166 l 1,400,-1
 418 166 l 1,401,-1
 416 164 l 2,402,403
 414 164 414 164 414 165 c 128,-1,404
 414 166 414 166 412 166 c 1,373,-1
395 162 m 1,405,406
 395 164 395 164 391 164 c 0,407,408
 389 164 389 164 389 162 c 2,409,-1
 389 160 l 2,410,411
 389 158 389 158 387 158 c 1,412,413
 387 160 387 160 389 160 c 1,414,415
 389 162 389 162 388 162 c 128,-1,416
 387 162 387 162 387 164 c 0,417,418
 387 170 387 170 397 170 c 1,419,420
 395 168 395 168 395 166 c 2,421,-1
 397 164 l 1,422,-1
 399 164 l 1,423,-1
 397 162 l 1,424,-1
 395 162 l 1,405,406
418 180 m 1,425,-1
 412 180 l 2,426,427
 405 180 405 180 403 178 c 1,428,429
 408 186 408 186 416 186 c 1,430,-1
 418 184 l 1,431,-1
 418 182 l 1,432,-1
 416 182 l 1,433,-1
 418 180 l 1,425,-1
399 170 m 128,-1,435
 401 170 401 170 401 168 c 2,436,-1
 401 166 l 1,437,438
 397 166 397 166 397 168 c 128,-1,434
 397 170 397 170 399 170 c 128,-1,435
395 172 m 1,439,440
 389 172 389 172 387 170 c 1,441,442
 388 170 388 170 389 172 c 2,443,-1
 390 174 l 2,444,445
 394 178 394 178 395 178 c 1,446,447
 395 176 395 176 397 176 c 1,448,-1
 395 174 l 1,449,-1
 395 172 l 1,439,440
383 162 m 2,450,-1
 385 162 l 2,451,452
 387 160 387 160 385 158 c 0,453,454
 383 158 383 158 381 160 c 0,455,456
 381 162 381 162 383 162 c 2,450,-1
426 117 m 1,457,-1
 420 109 l 1,458,-1
 412 117 l 1,459,-1
 420 117 l 1,460,-1
 426 117 l 1,457,-1
420 143 m 0,461,462
 397 143 397 143 382 128 c 128,-1,463
 367 113 367 113 367 90 c 0,464,465
 367 68 367 68 382 53 c 0,466,467
 396 39 396 39 420 39 c 0,468,469
 443 39 443 39 457 53 c 128,-1,470
 471 67 471 67 471 90 c 0,471,472
 471 114 471 114 457 128 c 0,473,474
 442 143 442 143 420 143 c 0,461,462
EndSplineSet
EndChar

StartChar: parenleft
Encoding: 40 40 10
Width: 903
GlyphClass: 2
Flags: W
LayerCount: 2
Fore
SplineSet
51 223 m 1,0,-1
 352 223 l 1,1,-1
 631 502 l 1,2,-1
 631 1214 l 1,3,-1
 272 1214 l 1,4,-1
 272 997 l 1,5,-1
 604 666 l 1,6,-1
 604 512 l 1,7,-1
 524 432 l 1,8,-1
 51 905 l 1,9,-1
 51 1350 l 1,10,-1
 137 1436 l 1,11,-1
 766 1436 l 1,12,-1
 852 1350 l 1,13,-1
 852 410 l 1,14,-1
 442 0 l 1,15,-1
 51 0 l 1,16,-1
 51 223 l 1,0,-1
154 150 m 128,-1,18
 130 150 130 150 112 132 c 128,-1,19
 94 114 94 114 94 90 c 128,-1,20
 94 66 94 66 112 48 c 0,21,22
 129 31 129 31 154 31 c 128,-1,23
 179 31 179 31 196 48 c 128,-1,24
 213 65 213 65 213 90 c 128,-1,25
 213 115 213 115 196 132 c 0,26,17
 178 150 178 150 154 150 c 128,-1,18
154 80 m 1,27,-1
 164 80 l 1,28,-1
 164 74 l 1,29,-1
 154 74 l 1,30,-1
 154 66 l 1,31,32
 168 66 168 66 174 76 c 1,33,-1
 180 70 l 1,34,35
 169 59 169 59 154 59 c 1,36,-1
 154 51 l 1,37,-1
 147 51 l 1,38,-1
 147 59 l 1,39,40
 121 66 121 66 121 92 c 0,41,42
 121 109 121 109 135 119 c 1,43,-1
 129 125 l 1,44,45
 111 114 111 114 111 92 c 0,46,47
 111 76 111 76 121 66 c 1,48,-1
 117 59 l 1,49,50
 104 72 104 72 104 92 c 0,51,52
 104 119 104 119 129 135 c 1,53,-1
 135 129 l 1,54,-1
 141 123 l 2,55,56
 146 123 146 123 147 124 c 128,-1,57
 148 125 148 125 154 125 c 0,58,59
 159 125 159 125 161 124 c 128,-1,60
 163 123 163 123 166 123 c 2,61,-1
 174 129 l 1,62,-1
 178 135 l 1,63,64
 205 120 205 120 205 92 c 0,65,66
 205 76 205 76 193 59 c 1,67,-1
 186 66 l 1,68,69
 197 77 197 77 197 92 c 0,70,71
 197 114 197 114 180 125 c 1,72,-1
 174 119 l 1,73,74
 181 112 181 112 182 109 c 2,75,-1
 176 104 l 1,76,77
 174 111 174 111 168 113 c 1,78,-1
 154 98 l 1,79,-1
 139 113 l 1,80,81
 129 107 129 107 129 92 c 0,82,83
 129 70 129 70 147 68 c 1,84,-1
 147 92 l 1,85,-1
 164 92 l 1,86,-1
 164 86 l 1,87,-1
 154 86 l 1,88,-1
 154 80 l 1,27,-1
174 45 m 1,89,-1
 162 57 l 1,90,91
 173 61 173 61 180 70 c 1,92,-1
 182 70 l 1,93,-1
 174 78 l 1,94,-1
 172 78 l 1,95,96
 166 68 166 68 156 68 c 1,97,-1
 156 72 l 1,98,-1
 166 72 l 1,99,-1
 166 82 l 1,100,-1
 156 82 l 1,101,-1
 156 84 l 1,102,-1
 166 84 l 1,103,-1
 166 94 l 1,104,-1
 145 94 l 1,105,-1
 145 76 l 1,106,-1
 131 90 l 1,107,-1
 131 92 l 2,108,109
 131 105 131 105 139 111 c 1,110,-1
 154 96 l 1,111,-1
 160 102 l 1,112,-1
 190 72 l 1,113,114
 186 68 186 68 186 66 c 1,115,-1
 184 66 l 1,116,-1
 190 57 l 1,117,118
 184 49 184 49 174 45 c 1,89,-1
121 100 m 1,119,-1
 117 104 l 1,120,121
 119 117 119 117 129 123 c 1,122,-1
 133 119 l 1,123,124
 126 113 126 113 121 100 c 1,119,-1
115 162 m 1,125,-1
 115 160 l 2,126,127
 115 158 115 158 117 156 c 2,128,-1
 119 156 l 1,129,-1
 123 156 l 1,130,-1
 125 154 l 1,131,132
 140 160 140 160 154 160 c 0,133,134
 170 160 170 160 182 154 c 1,135,-1
 184 154 l 1,136,-1
 184 156 l 1,137,-1
 186 156 l 1,138,-1
 188 156 l 1,139,-1
 193 156 l 1,140,-1
 195 160 l 1,141,-1
 195 162 l 2,142,143
 195 164 195 164 193 164 c 1,144,-1
 193 166 l 1,145,-1
 193 168 l 1,146,-1
 193 170 l 2,147,148
 193 172 193 172 190 172 c 1,149,-1
 190 174 l 2,150,151
 190 176 190 176 188 176 c 1,152,-1
 188 178 l 2,153,154
 188 180 188 180 184 180 c 1,155,156
 184 182 184 182 180 182 c 2,157,-1
 178 184 l 1,158,-1
 176 184 l 1,159,-1
 174 184 l 1,160,-1
 172 184 l 1,161,162
 172 188 172 188 170 188 c 1,163,-1
 170 186 l 1,164,-1
 170 188 l 2,165,166
 168 190 168 190 166 190 c 128,-1,167
 164 190 164 190 164 191 c 0,168,169
 164 193 164 193 162 193 c 2,170,-1
 160 190 l 1,171,172
 160 193 160 193 158 193 c 128,-1,173
 156 193 156 193 156 195 c 1,174,-1
 158 195 l 1,175,-1
 158 197 l 1,176,-1
 156 197 l 1,177,-1
 156 199 l 1,178,-1
 154 199 l 1,179,-1
 154 197 l 1,180,-1
 152 197 l 1,181,-1
 152 195 l 1,182,-1
 154 195 l 1,183,-1
 152 193 l 1,184,-1
 150 193 l 2,185,186
 147 193 147 193 147 190 c 1,187,188
 147 193 147 193 145 193 c 2,189,-1
 143 190 l 1,190,-1
 141 190 l 1,191,-1
 139 188 l 1,192,-1
 139 186 l 1,193,-1
 139 188 l 1,194,195
 135 188 135 188 135 184 c 1,196,-1
 133 184 l 1,197,-1
 131 184 l 2,198,199
 129 184 129 184 129 182 c 1,200,-1
 127 182 l 2,201,202
 125 182 125 182 125 180 c 1,203,-1
 123 180 l 2,204,205
 121 180 121 180 121 178 c 2,206,-1
 121 176 l 1,207,208
 119 176 119 176 119 174 c 2,209,-1
 119 172 l 1,210,211
 117 172 117 172 117 170 c 2,212,-1
 117 168 l 1,213,214
 115 168 115 168 115 166 c 2,215,-1
 115 164 l 1,216,-1
 115 162 l 1,125,-1
154 164 m 1,217,-1
 152 164 l 1,218,-1
 154 166 l 2,219,220
 156 166 156 166 156 165 c 128,-1,221
 156 164 156 164 158 164 c 1,222,-1
 154 164 l 1,217,-1
154 172 m 2,223,224
 158 172 158 172 158 170 c 128,-1,225
 158 168 158 168 154 168 c 2,226,-1
 152 168 l 1,227,-1
 152 170 l 1,228,-1
 152 172 l 1,229,-1
 154 172 l 2,223,224
154 158 m 0,230,231
 170 158 170 158 182 152 c 1,232,-1
 184 152 l 1,233,-1
 182 152 l 1,234,-1
 182 150 l 1,235,-1
 180 147 l 1,236,-1
 182 147 l 1,237,-1
 180 145 l 1,238,239
 166 152 166 152 154 152 c 0,240,241
 143 152 143 152 129 145 c 1,242,-1
 127 145 l 1,243,-1
 127 147 l 1,244,-1
 125 150 l 1,245,-1
 127 152 l 1,246,-1
 125 152 l 1,247,248
 140 158 140 158 154 158 c 0,230,231
182 158 m 1,249,-1
 182 160 l 1,250,-1
 180 160 l 1,251,-1
 178 160 l 1,252,253
 180 158 180 158 182 158 c 1,249,-1
174 160 m 1,254,-1
 174 162 l 1,255,-1
 172 164 l 1,256,-1
 170 162 l 1,257,258
 172 162 172 162 172 161 c 128,-1,259
 172 160 172 160 174 160 c 1,254,-1
166 162 m 1,260,-1
 164 164 l 1,261,-1
 160 164 l 1,262,263
 162 162 162 162 166 162 c 1,260,-1
162 166 m 1,264,-1
 162 168 l 2,265,266
 162 170 162 170 164 170 c 2,267,-1
 166 168 l 1,268,-1
 166 166 l 1,269,-1
 168 164 l 2,270,271
 170 164 170 164 170 166 c 2,272,-1
 168 168 l 1,273,274
 168 174 168 174 172 170 c 1,275,-1
 172 172 l 1,276,-1
 172 174 l 1,277,278
 168 178 168 178 162 178 c 0,279,280
 158 178 158 178 158 176 c 1,281,282
 156 176 156 176 156 174 c 1,283,284
 158 174 158 174 158 172 c 1,285,286
 160 172 160 172 160 170 c 2,287,-1
 158 166 l 1,288,-1
 156 166 l 1,289,290
 158 164 158 164 160 164 c 2,291,-1
 162 166 l 1,264,-1
180 162 m 1,292,293
 180 164 180 164 182 164 c 128,-1,294
 184 164 184 164 184 162 c 2,295,-1
 184 160 l 2,296,297
 184 158 184 158 186 158 c 1,298,-1
 186 160 l 1,299,-1
 186 164 l 2,300,301
 186 170 186 170 178 170 c 1,302,-1
 178 166 l 1,303,-1
 176 164 l 1,304,-1
 174 164 l 1,305,306
 174 162 174 162 178 162 c 2,307,-1
 180 162 l 1,292,293
156 180 m 1,308,-1
 162 180 l 2,309,310
 166 180 166 180 172 178 c 1,311,312
 164 186 164 186 158 186 c 1,313,314
 158 184 158 184 156 184 c 1,315,-1
 156 182 l 1,316,-1
 158 182 l 1,317,318
 158 180 158 180 156 180 c 1,308,-1
174 170 m 128,-1,320
 172 170 172 170 172 168 c 2,321,-1
 172 166 l 1,322,323
 176 166 176 166 176 168 c 128,-1,319
 176 170 176 170 174 170 c 128,-1,320
178 172 m 1,324,325
 184 172 184 172 186 170 c 1,326,327
 186 173 186 173 178 178 c 1,328,329
 178 176 178 176 176 176 c 1,330,-1
 178 174 l 1,331,-1
 178 172 l 1,324,325
190 162 m 2,332,-1
 188 162 l 1,333,-1
 188 158 l 1,334,335
 191 158 191 158 193 160 c 0,336,337
 193 162 193 162 190 162 c 2,332,-1
125 158 m 1,338,-1
 127 160 l 1,339,-1
 129 160 l 1,340,-1
 131 160 l 1,341,342
 129 158 129 158 125 158 c 1,338,-1
135 160 m 1,343,-1
 135 162 l 1,344,-1
 135 164 l 1,345,346
 137 164 137 164 137 163 c 128,-1,347
 137 162 137 162 139 162 c 1,348,-1
 135 160 l 1,343,-1
143 162 m 1,349,-1
 145 164 l 1,350,-1
 147 164 l 1,351,352
 145 162 145 162 143 162 c 1,349,-1
147 166 m 1,353,-1
 147 168 l 1,354,-1
 145 170 l 1,355,-1
 141 168 l 1,356,-1
 143 166 l 2,357,358
 143 164 143 164 139 164 c 0,359,360
 137 164 137 164 137 166 c 1,361,-1
 139 166 l 2,362,363
 141 168 141 168 139 168 c 0,364,365
 138 170 138 170 137 170 c 1,366,-1
 137 172 l 1,367,-1
 135 172 l 1,368,369
 135 174 135 174 137 174 c 0,370,371
 141 178 141 178 147 178 c 0,372,373
 152 178 152 178 152 176 c 2,374,-1
 152 174 l 1,375,-1
 154 174 l 1,376,377
 152 174 152 174 152 172 c 1,378,-1
 149 172 l 1,379,-1
 149 170 l 1,380,-1
 149 168 l 1,381,-1
 152 168 l 1,382,-1
 152 166 l 2,383,384
 152 164 152 164 149 164 c 2,385,-1
 147 166 l 1,353,-1
129 162 m 1,386,387
 129 164 129 164 127 164 c 128,-1,388
 125 164 125 164 125 162 c 2,389,-1
 125 160 l 1,390,-1
 123 158 l 1,391,-1
 121 158 l 1,392,-1
 123 160 l 2,393,394
 123 162 123 162 121 164 c 0,395,396
 122 170 122 170 131 170 c 1,397,398
 129 168 129 168 129 166 c 0,399,400
 131 164 131 164 133 164 c 1,401,402
 133 162 133 162 131 162 c 2,403,-1
 129 162 l 1,386,387
152 180 m 1,404,-1
 147 180 l 2,405,406
 143 180 143 180 137 178 c 1,407,408
 142 186 142 186 152 186 c 1,409,-1
 152 184 l 1,410,-1
 152 182 l 1,411,-1
 152 180 l 1,404,-1
135 170 m 128,-1,413
 137 170 137 170 137 168 c 128,-1,414
 137 166 137 166 135 166 c 128,-1,415
 133 166 133 166 133 168 c 128,-1,412
 133 170 133 170 135 170 c 128,-1,413
129 172 m 1,416,417
 125 172 125 172 123 170 c 1,418,419
 123 173 123 173 131 178 c 1,420,-1
 131 176 l 1,421,-1
 129 174 l 1,422,-1
 129 172 l 1,416,417
117 162 m 1,423,-1
 121 162 l 1,424,-1
 121 158 l 1,425,426
 117 158 117 158 117 160 c 2,427,-1
 117 162 l 1,423,-1
162 117 m 1,428,-1
 154 109 l 1,429,-1
 147 117 l 1,430,-1
 154 117 l 1,431,-1
 162 117 l 1,428,-1
154 143 m 128,-1,433
 132 143 132 143 117 128 c 128,-1,434
 102 113 102 113 102 90 c 0,435,436
 102 68 102 68 117 53 c 0,437,438
 131 39 131 39 154 39 c 128,-1,439
 177 39 177 39 191 53 c 0,440,441
 207 69 207 69 207 90 c 0,442,443
 207 112 207 112 191 128 c 0,444,432
 176 143 176 143 154 143 c 128,-1,433
246 201 m 1,445,-1
 246 190 l 1,446,-1
 365 190 l 1,447,-1
 664 487 l 1,448,-1
 664 1247 l 1,449,-1
 242 1247 l 1,450,-1
 242 985 l 1,451,-1
 584 641 l 1,452,-1
 584 657 l 1,453,-1
 252 989 l 1,454,-1
 252 1235 l 1,455,-1
 651 1235 l 1,456,-1
 651 494 l 1,457,-1
 360 201 l 1,458,-1
 246 201 l 1,445,-1
246 33 m 1,459,-1
 246 23 l 1,460,-1
 434 23 l 1,461,-1
 831 418 l 1,462,-1
 831 1341 l 1,463,-1
 758 1415 l 1,464,-1
 145 1415 l 1,465,-1
 74 1341 l 1,466,-1
 74 915 l 1,467,-1
 524 463 l 1,468,-1
 532 471 l 1,469,-1
 84 920 l 1,470,-1
 84 1335 l 1,471,-1
 152 1403 l 1,472,-1
 752 1403 l 1,473,-1
 819 1335 l 1,474,-1
 819 424 l 1,475,-1
 430 33 l 1,476,-1
 246 33 l 1,459,-1
EndSplineSet
EndChar

StartChar: parenright
Encoding: 41 41 11
Width: 839
GlyphClass: 2
Flags: W
LayerCount: 2
Fore
SplineSet
285 0 m 1,0,-1
 51 233 l 1,1,-1
 51 1348 l 1,2,-1
 137 1436 l 1,3,-1
 555 1436 l 1,4,-1
 788 1202 l 1,5,-1
 788 889 l 1,6,-1
 463 1214 l 1,7,-1
 272 1214 l 1,8,-1
 272 326 l 1,9,-1
 377 223 l 1,10,-1
 567 223 l 1,11,-1
 567 1085 l 1,12,-1
 788 864 l 1,13,-1
 788 88 l 1,14,-1
 700 0 l 1,15,-1
 285 0 l 1,0,-1
479 150 m 128,-1,17
 455 150 455 150 437 132 c 0,18,19
 420 115 420 115 420 90 c 128,-1,20
 420 65 420 65 437 48 c 128,-1,21
 454 31 454 31 479 31 c 128,-1,22
 504 31 504 31 521 48 c 0,23,24
 539 66 539 66 539 90 c 128,-1,25
 539 114 539 114 521 132 c 128,-1,16
 503 150 503 150 479 150 c 128,-1,17
477 80 m 1,26,-1
 487 80 l 1,27,-1
 487 74 l 1,28,-1
 477 74 l 1,29,-1
 477 66 l 1,30,-1
 479 66 l 2,31,32
 492 66 492 66 498 76 c 1,33,-1
 504 70 l 1,34,35
 493 59 493 59 479 59 c 2,36,-1
 477 59 l 1,37,-1
 477 51 l 1,38,-1
 471 51 l 1,39,-1
 471 59 l 1,40,41
 446 65 446 65 446 92 c 0,42,43
 446 108 446 108 459 119 c 1,44,-1
 453 125 l 1,45,46
 436 114 436 114 436 92 c 0,47,48
 436 76 436 76 446 66 c 1,49,-1
 440 59 l 1,50,51
 428 76 428 76 428 92 c 0,52,53
 428 120 428 120 455 135 c 1,54,-1
 459 129 l 1,55,-1
 467 123 l 2,56,57
 470 123 470 123 472 124 c 128,-1,58
 474 125 474 125 479 125 c 128,-1,59
 484 125 484 125 485 124 c 128,-1,60
 486 123 486 123 492 123 c 1,61,-1
 498 129 l 1,62,-1
 504 135 l 1,63,64
 528 120 528 120 528 92 c 0,65,66
 528 71 528 71 516 59 c 1,67,-1
 512 66 l 1,68,69
 520 74 520 74 520 92 c 0,70,71
 520 115 520 115 504 125 c 1,72,-1
 498 119 l 1,73,74
 500 118 500 118 506 109 c 1,75,-1
 502 104 l 1,76,77
 501 107 501 107 498 110 c 0,78,79
 497 111 497 111 494 113 c 2,80,-1
 479 98 l 1,81,-1
 465 113 l 1,82,83
 453 107 453 107 453 92 c 0,84,85
 453 72 453 72 471 68 c 1,86,-1
 471 92 l 1,87,-1
 487 92 l 1,88,-1
 487 86 l 1,89,-1
 477 86 l 1,90,-1
 477 80 l 1,26,-1
498 45 m 1,91,-1
 485 57 l 1,92,93
 494 58 494 58 506 70 c 1,94,-1
 498 78 l 1,95,96
 492 68 492 68 479 68 c 1,97,-1
 479 72 l 1,98,-1
 489 72 l 1,99,-1
 489 82 l 1,100,-1
 479 82 l 1,101,-1
 479 84 l 1,102,-1
 489 84 l 1,103,-1
 489 94 l 1,104,-1
 469 94 l 1,105,-1
 469 76 l 1,106,-1
 455 90 l 1,107,-1
 455 92 l 2,108,109
 455 105 455 105 465 111 c 1,110,-1
 479 96 l 1,111,-1
 485 102 l 1,112,-1
 514 72 l 2,113,114
 512 70 512 70 512 69 c 128,-1,115
 512 68 512 68 510 66 c 2,116,-1
 508 66 l 1,117,-1
 516 57 l 1,118,119
 506 46 506 46 498 45 c 1,91,-1
444 100 m 1,120,-1
 440 104 l 1,121,122
 442 116 442 116 453 123 c 1,123,-1
 457 119 l 1,124,125
 449 112 449 112 444 100 c 1,120,-1
438 162 m 2,126,-1
 438 160 l 2,127,128
 438 158 438 158 440 156 c 2,129,-1
 444 156 l 1,130,-1
 446 156 l 1,131,-1
 449 156 l 1,132,-1
 449 154 l 1,133,-1
 451 154 l 1,134,135
 463 160 463 160 479 160 c 0,136,137
 491 160 491 160 508 154 c 0,138,139
 510 154 510 154 510 156 c 1,140,-1
 514 156 l 1,141,-1
 516 156 l 1,142,-1
 518 160 l 1,143,-1
 518 162 l 1,144,-1
 518 164 l 1,145,-1
 518 166 l 1,146,-1
 516 168 l 1,147,-1
 516 170 l 2,148,149
 516 172 516 172 514 172 c 1,150,-1
 514 174 l 2,151,152
 514 176 514 176 512 176 c 1,153,-1
 512 178 l 1,154,-1
 510 180 l 1,155,-1
 508 180 l 1,156,-1
 506 182 l 1,157,-1
 504 182 l 1,158,-1
 502 184 l 1,159,-1
 500 184 l 1,160,-1
 498 184 l 1,161,162
 498 188 498 188 494 188 c 1,163,-1
 494 186 l 1,164,-1
 494 188 l 1,165,-1
 492 190 l 1,166,-1
 489 190 l 1,167,-1
 487 193 l 2,168,169
 485 193 485 193 485 190 c 1,170,-1
 483 193 l 1,171,-1
 481 193 l 1,172,-1
 479 195 l 1,173,-1
 481 195 l 1,174,-1
 481 197 l 1,175,-1
 479 197 l 1,176,-1
 479 199 l 1,177,-1
 477 199 l 1,178,-1
 477 197 l 1,179,-1
 475 197 l 1,180,-1
 475 195 l 1,181,-1
 477 195 l 1,182,-1
 475 193 l 2,183,184
 473 193 473 193 473 190 c 1,185,-1
 471 193 l 2,186,187
 469 193 469 193 469 191 c 0,188,189
 469 190 469 190 467 190 c 2,190,-1
 463 188 l 1,191,-1
 463 186 l 1,192,-1
 463 188 l 1,193,194
 461 188 461 188 461 184 c 1,195,-1
 459 184 l 1,196,-1
 457 184 l 1,197,-1
 455 184 l 2,198,199
 453 184 453 184 453 182 c 1,200,-1
 451 182 l 2,201,202
 449 182 449 182 449 180 c 1,203,204
 444 180 444 180 444 178 c 2,205,-1
 444 176 l 1,206,207
 442 176 442 176 442 174 c 2,208,-1
 442 172 l 1,209,210
 440 172 440 172 440 170 c 2,211,-1
 440 168 l 1,212,-1
 440 166 l 1,213,-1
 440 164 l 1,214,215
 438 164 438 164 438 162 c 2,126,-1
479 164 m 1,216,-1
 475 164 l 1,217,218
 477 164 477 164 477 165 c 128,-1,219
 477 166 477 166 479 166 c 1,220,221
 479 164 479 164 481 164 c 1,222,-1
 479 164 l 1,216,-1
479 172 m 2,223,224
 481 172 481 172 481 170 c 2,225,-1
 479 168 l 1,226,-1
 477 168 l 1,227,-1
 477 170 l 1,228,-1
 475 170 l 1,229,-1
 475 172 l 1,230,-1
 477 172 l 1,231,-1
 479 172 l 2,223,224
479 158 m 0,232,233
 491 158 491 158 508 152 c 1,234,-1
 506 152 l 1,235,-1
 508 150 l 1,236,-1
 506 147 l 2,237,238
 506 145 506 145 504 145 c 0,239,240
 490 152 490 152 479 152 c 0,241,242
 467 152 467 152 453 145 c 1,243,-1
 451 147 l 1,244,-1
 453 147 l 1,245,-1
 451 150 l 1,246,-1
 451 152 l 1,247,-1
 449 152 l 1,248,-1
 451 152 l 1,249,250
 463 158 463 158 479 158 c 0,232,233
508 158 m 1,251,-1
 506 160 l 1,252,-1
 504 160 l 1,253,-1
 502 160 l 1,254,255
 504 158 504 158 508 158 c 1,251,-1
498 160 m 1,256,-1
 498 162 l 1,257,-1
 498 164 l 1,258,259
 496 164 496 164 496 163 c 128,-1,260
 496 162 496 162 494 162 c 1,261,-1
 498 160 l 1,256,-1
489 162 m 1,262,-1
 487 164 l 1,263,-1
 485 164 l 1,264,265
 487 162 487 162 489 162 c 1,262,-1
485 166 m 1,266,-1
 485 168 l 1,267,-1
 487 170 l 1,268,-1
 489 168 l 1,269,-1
 489 166 l 2,270,271
 489 164 489 164 494 164 c 2,272,-1
 496 166 l 1,273,-1
 494 166 l 2,274,275
 492 168 492 168 494 168 c 0,276,277
 495 170 495 170 496 170 c 1,278,-1
 496 172 l 1,279,-1
 498 172 l 1,280,-1
 496 174 l 2,281,282
 492 178 492 178 485 178 c 0,283,284
 481 178 481 178 481 176 c 2,285,-1
 479 174 l 1,286,287
 481 174 481 174 481 172 c 1,288,289
 483 172 483 172 483 170 c 0,290,291
 483 166 483 166 481 166 c 1,292,293
 481 164 481 164 483 164 c 2,294,-1
 485 166 l 1,266,-1
504 162 m 1,295,296
 504 164 504 164 506 164 c 128,-1,297
 508 164 508 164 508 162 c 2,298,-1
 508 160 l 1,299,-1
 510 158 l 1,300,-1
 512 158 l 1,301,-1
 510 158 l 1,302,-1
 510 160 l 2,303,304
 510 162 510 162 512 164 c 0,305,306
 508 170 508 170 502 170 c 1,307,308
 502 168 502 168 503 168 c 128,-1,309
 504 168 504 168 504 166 c 0,310,311
 502 164 502 164 500 164 c 1,312,313
 500 162 500 162 502 162 c 2,314,-1
 504 162 l 1,295,296
481 180 m 1,315,-1
 485 180 l 2,316,317
 490 180 490 180 496 178 c 1,318,319
 491 186 491 186 481 186 c 1,320,-1
 481 184 l 1,321,-1
 481 182 l 1,322,-1
 481 180 l 1,315,-1
498 170 m 128,-1,324
 496 170 496 170 496 168 c 128,-1,325
 496 166 496 166 498 166 c 128,-1,326
 500 166 500 166 500 168 c 128,-1,323
 500 170 500 170 498 170 c 128,-1,324
504 172 m 1,327,328
 508 172 508 172 510 170 c 1,329,330
 510 173 510 173 502 178 c 1,331,-1
 502 176 l 1,332,-1
 504 174 l 1,333,-1
 504 172 l 1,327,328
516 162 m 1,334,-1
 512 162 l 1,335,-1
 512 158 l 1,336,337
 516 158 516 158 516 160 c 2,338,-1
 516 162 l 1,334,-1
451 158 m 1,339,-1
 451 160 l 1,340,-1
 453 160 l 1,341,-1
 455 160 l 1,342,-1
 451 158 l 1,339,-1
459 160 m 1,343,-1
 459 162 l 1,344,-1
 461 164 l 1,345,346
 461 162 461 162 463 162 c 1,347,348
 461 162 461 162 461 161 c 128,-1,349
 461 160 461 160 459 160 c 1,343,-1
467 162 m 1,350,-1
 469 164 l 1,351,-1
 473 164 l 1,352,353
 471 162 471 162 467 162 c 1,350,-1
471 166 m 1,354,-1
 471 168 l 2,355,356
 471 170 471 170 469 170 c 2,357,-1
 467 168 l 1,358,-1
 467 166 l 1,359,-1
 465 164 l 2,360,361
 463 164 463 164 463 166 c 2,362,-1
 465 168 l 1,363,364
 465 174 465 174 461 170 c 1,365,-1
 461 172 l 1,366,-1
 461 174 l 1,367,368
 465 178 465 178 471 178 c 0,369,370
 475 178 475 178 475 176 c 2,371,-1
 477 174 l 1,372,373
 475 174 475 174 475 172 c 1,374,-1
 473 172 l 1,375,-1
 473 170 l 1,376,-1
 473 168 l 1,377,-1
 475 168 l 1,378,-1
 475 166 l 1,379,-1
 477 166 l 1,380,381
 475 164 475 164 473 164 c 2,382,-1
 471 166 l 1,354,-1
453 162 m 1,383,384
 453 164 453 164 451 164 c 128,-1,385
 449 164 449 164 449 162 c 2,386,-1
 449 160 l 2,387,388
 449 158 449 158 446 158 c 1,389,-1
 446 160 l 1,390,-1
 446 164 l 2,391,392
 446 170 446 170 455 170 c 1,393,-1
 455 166 l 1,394,-1
 457 164 l 1,395,-1
 459 164 l 1,396,397
 459 162 459 162 455 162 c 2,398,-1
 453 162 l 1,383,384
477 180 m 1,399,-1
 471 180 l 2,400,401
 467 180 467 180 461 178 c 1,402,403
 469 186 469 186 475 186 c 1,404,405
 475 184 475 184 477 184 c 1,406,-1
 477 182 l 1,407,-1
 475 182 l 1,408,409
 475 180 475 180 477 180 c 1,399,-1
459 170 m 128,-1,411
 461 170 461 170 461 168 c 1,412,413
 463 168 463 168 462 167 c 128,-1,414
 461 166 461 166 459 166 c 128,-1,415
 457 166 457 166 457 168 c 128,-1,410
 457 170 457 170 459 170 c 128,-1,411
455 172 m 1,416,417
 448 172 448 172 446 170 c 1,418,419
 446 173 446 173 455 178 c 1,420,421
 455 176 455 176 457 176 c 1,422,-1
 455 174 l 1,423,-1
 455 172 l 1,416,417
442 162 m 2,424,-1
 444 162 l 1,425,-1
 444 158 l 1,426,427
 442 158 442 158 440 160 c 0,428,429
 440 162 440 162 442 162 c 2,424,-1
485 117 m 1,430,-1
 479 109 l 1,431,-1
 471 117 l 1,432,-1
 479 117 l 1,433,-1
 485 117 l 1,430,-1
479 143 m 0,434,435
 456 143 456 143 441 128 c 128,-1,436
 426 113 426 113 426 90 c 0,437,438
 426 68 426 68 441 53 c 0,439,440
 455 39 455 39 479 39 c 0,441,442
 502 39 502 39 516 53 c 128,-1,443
 530 67 530 67 530 90 c 0,444,445
 530 114 530 114 516 128 c 0,446,447
 501 143 501 143 479 143 c 0,434,435
293 23 m 1,448,-1
 391 23 l 1,449,-1
 391 33 l 1,450,-1
 297 33 l 1,451,-1
 84 248 l 1,452,-1
 84 1335 l 1,453,-1
 152 1403 l 1,454,-1
 541 1403 l 1,455,-1
 768 1178 l 1,456,-1
 768 1194 l 1,457,-1
 547 1415 l 1,458,-1
 147 1415 l 1,459,-1
 72 1339 l 1,460,-1
 72 244 l 1,461,-1
 293 23 l 1,448,-1
569 23 m 1,462,-1
 692 23 l 1,463,-1
 768 96 l 1,464,-1
 768 866 l 1,465,-1
 756 877 l 1,466,-1
 756 102 l 1,467,-1
 688 33 l 1,468,-1
 569 33 l 1,469,-1
 569 23 l 1,462,-1
240 1247 m 1,470,-1
 240 313 l 1,471,-1
 363 190 l 1,472,-1
 391 190 l 1,473,-1
 391 201 l 1,474,-1
 367 201 l 1,475,-1
 252 317 l 1,476,-1
 252 1235 l 1,477,-1
 471 1235 l 1,478,-1
 768 940 l 1,479,-1
 768 956 l 1,480,-1
 477 1247 l 1,481,-1
 240 1247 l 1,470,-1
569 201 m 1,482,-1
 569 190 l 1,483,-1
 600 190 l 1,484,-1
 600 1032 l 1,485,-1
 588 1044 l 1,486,-1
 588 201 l 1,487,-1
 569 201 l 1,482,-1
EndSplineSet
EndChar

StartChar: asterisk
Encoding: 42 42 12
Width: 839
GlyphClass: 2
Flags: W
LayerCount: 2
Fore
SplineSet
285 0 m 1,0,-1
 51 236 l 1,1,-1
 51 879 l 1,2,-1
 150 879 l 1,3,-1
 272 756 l 1,4,-1
 272 326 l 1,5,-1
 377 223 l 1,6,-1
 567 223 l 1,7,-1
 567 461 l 1,8,-1
 788 240 l 1,9,-1
 788 88 l 1,10,-1
 700 0 l 1,11,-1
 285 0 l 1,0,-1
471 150 m 128,-1,13
 447 150 447 150 429 132 c 0,14,15
 412 115 412 115 412 90 c 128,-1,16
 412 65 412 65 429 48 c 128,-1,17
 446 31 446 31 471 31 c 128,-1,18
 496 31 496 31 513 48 c 128,-1,19
 530 65 530 65 530 90 c 128,-1,20
 530 115 530 115 513 132 c 0,21,12
 495 150 495 150 471 150 c 128,-1,13
471 80 m 1,22,-1
 481 80 l 1,23,-1
 481 74 l 1,24,-1
 471 74 l 1,25,-1
 471 66 l 1,26,27
 486 66 486 66 492 76 c 1,28,-1
 496 70 l 1,29,30
 485 59 485 59 471 59 c 1,31,-1
 471 51 l 1,32,-1
 463 51 l 1,33,-1
 463 59 l 1,34,35
 438 65 438 65 438 92 c 0,36,37
 438 108 438 108 453 119 c 1,38,-1
 444 125 l 1,39,40
 428 115 428 115 428 92 c 0,41,42
 428 76 428 76 438 66 c 1,43,-1
 434 59 l 1,44,45
 422 71 422 71 422 92 c 0,46,47
 422 120 422 120 446 135 c 1,48,-1
 451 129 l 1,49,-1
 459 123 l 2,50,51
 464 123 464 123 465 124 c 128,-1,52
 466 125 466 125 471 125 c 128,-1,53
 476 125 476 125 477 124 c 128,-1,54
 478 123 478 123 483 123 c 2,55,-1
 492 129 l 1,56,-1
 496 135 l 1,57,58
 520 120 520 120 520 92 c 0,59,60
 520 73 520 73 510 59 c 1,61,-1
 504 66 l 1,62,63
 514 76 514 76 514 92 c 0,64,65
 514 115 514 115 498 125 c 1,66,-1
 489 119 l 1,67,68
 492 118 492 118 495 115 c 2,69,-1
 496 113 l 2,70,71
 498 111 498 111 500 109 c 1,72,-1
 494 104 l 1,73,74
 492 111 492 111 485 113 c 1,75,-1
 471 98 l 1,76,-1
 457 113 l 1,77,78
 444 105 444 105 444 92 c 0,79,80
 444 73 444 73 463 68 c 1,81,-1
 463 92 l 1,82,-1
 481 92 l 1,83,-1
 481 86 l 1,84,-1
 471 86 l 1,85,-1
 471 80 l 1,22,-1
489 45 m 1,86,-1
 477 57 l 1,87,88
 486 58 486 58 498 70 c 2,89,-1
 500 72 l 1,90,-1
 492 78 l 1,91,-1
 489 78 l 1,92,93
 483 68 483 68 473 68 c 1,94,-1
 473 72 l 1,95,-1
 483 72 l 1,96,-1
 483 82 l 1,97,-1
 473 82 l 1,98,-1
 473 84 l 1,99,-1
 483 84 l 1,100,-1
 483 94 l 1,101,-1
 461 94 l 1,102,-1
 461 76 l 1,103,-1
 446 90 l 1,104,-1
 446 92 l 2,105,106
 446 105 446 105 457 111 c 1,107,-1
 471 96 l 1,108,-1
 477 102 l 1,109,-1
 506 72 l 2,110,111
 506 70 506 70 502 66 c 1,112,-1
 508 57 l 1,113,114
 503 52 503 52 500 50 c 0,115,116
 495 46 495 46 489 45 c 1,86,-1
438 100 m 1,117,-1
 432 104 l 1,118,119
 433 110 433 110 437 115 c 0,120,121
 439 118 439 118 444 123 c 1,122,-1
 449 119 l 1,123,124
 438 113 438 113 438 100 c 1,117,-1
432 162 m 1,125,-1
 432 160 l 1,126,-1
 432 158 l 2,127,128
 434 156 434 156 436 156 c 2,129,-1
 438 156 l 1,130,-1
 440 156 l 1,131,132
 440 154 440 154 442 154 c 0,133,134
 454 160 454 160 471 160 c 128,-1,135
 488 160 488 160 500 154 c 0,136,137
 502 154 502 154 502 156 c 1,138,-1
 504 156 l 1,139,-1
 506 156 l 2,140,141
 508 156 508 156 510 158 c 128,-1,142
 512 160 512 160 510 160 c 1,143,-1
 510 162 l 1,144,-1
 512 162 l 1,145,-1
 510 164 l 1,146,-1
 510 166 l 2,147,148
 510 168 510 168 508 168 c 1,149,-1
 510 170 l 1,150,-1
 508 172 l 1,151,-1
 508 174 l 1,152,-1
 506 176 l 1,153,-1
 504 176 l 1,154,-1
 504 178 l 2,155,156
 504 180 504 180 502 180 c 2,157,-1
 500 180 l 1,158,159
 500 182 500 182 498 182 c 0,160,161
 496 184 496 184 494 184 c 2,162,-1
 492 184 l 1,163,-1
 489 184 l 1,164,165
 489 188 489 188 487 188 c 128,-1,166
 485 188 485 188 485 186 c 1,167,-1
 485 188 l 2,168,169
 485 190 485 190 483 190 c 2,170,-1
 481 190 l 1,171,172
 481 193 481 193 479 193 c 128,-1,173
 477 193 477 193 477 190 c 1,174,-1
 475 193 l 2,175,176
 473 193 473 193 473 195 c 1,177,-1
 475 195 l 1,178,-1
 475 197 l 1,179,-1
 473 197 l 1,180,-1
 473 199 l 1,181,-1
 471 199 l 1,182,-1
 471 197 l 1,183,-1
 469 197 l 1,184,-1
 469 195 l 1,185,-1
 471 195 l 1,186,-1
 469 193 l 1,187,-1
 467 193 l 2,188,189
 465 193 465 193 465 190 c 1,190,-1
 463 193 l 1,191,-1
 461 190 l 1,192,-1
 459 190 l 1,193,-1
 457 188 l 1,194,-1
 457 186 l 1,195,-1
 455 188 l 1,196,197
 453 186 453 186 453 184 c 1,198,-1
 451 184 l 1,199,-1
 449 184 l 2,200,201
 446 184 446 184 446 182 c 1,202,-1
 444 182 l 2,203,204
 442 182 442 182 442 180 c 1,205,-1
 440 180 l 2,206,207
 438 180 438 180 438 178 c 2,208,-1
 438 176 l 1,209,210
 434 176 434 176 434 174 c 2,211,-1
 434 172 l 1,212,213
 432 172 432 172 432 170 c 2,214,-1
 434 168 l 1,215,216
 432 168 432 168 432 166 c 2,217,-1
 432 164 l 1,218,-1
 432 162 l 1,125,-1
471 164 m 1,219,-1
 469 164 l 1,220,-1
 471 166 l 1,221,-1
 473 164 l 1,222,-1
 471 164 l 1,219,-1
471 172 m 2,223,224
 473 172 473 172 473 170 c 128,-1,225
 473 168 473 168 471 168 c 2,226,-1
 469 168 l 1,227,-1
 469 170 l 1,228,-1
 469 172 l 1,229,-1
 471 172 l 2,223,224
471 158 m 128,-1,231
 488 158 488 158 500 152 c 1,232,-1
 500 150 l 1,233,-1
 498 147 l 1,234,-1
 498 145 l 1,235,236
 484 152 484 152 471 152 c 128,-1,237
 458 152 458 152 444 145 c 1,238,-1
 444 147 l 1,239,-1
 442 150 l 1,240,-1
 442 152 l 1,241,230
 454 158 454 158 471 158 c 128,-1,231
500 158 m 1,242,-1
 498 160 l 1,243,-1
 496 160 l 1,244,245
 496 158 496 158 500 158 c 1,242,-1
492 160 m 1,246,-1
 489 162 l 1,247,-1
 489 164 l 1,248,-1
 487 162 l 1,249,250
 489 160 489 160 492 160 c 1,246,-1
483 162 m 1,251,-1
 481 164 l 1,252,-1
 479 164 l 1,253,-1
 477 164 l 1,254,255
 479 162 479 162 483 162 c 1,251,-1
477 166 m 1,256,-1
 477 168 l 2,257,258
 479 170 479 170 481 170 c 2,259,-1
 483 168 l 1,260,-1
 483 166 l 2,261,262
 483 164 483 164 485 164 c 128,-1,263
 487 164 487 164 487 166 c 2,264,-1
 485 168 l 2,265,266
 485 170 485 170 486 171 c 128,-1,267
 487 172 487 172 487 170 c 1,268,-1
 487 172 l 1,269,-1
 489 172 l 1,270,-1
 489 174 l 1,271,272
 482 178 482 178 477 178 c 0,273,274
 475 178 475 178 473 176 c 2,275,-1
 473 174 l 1,276,-1
 475 172 l 2,277,278
 477 172 477 172 477 170 c 0,279,280
 477 166 477 166 473 166 c 1,281,-1
 475 164 l 1,282,-1
 477 166 l 1,256,-1
496 162 m 1,283,284
 496 164 496 164 500 164 c 0,285,286
 502 164 502 164 502 162 c 2,287,-1
 500 160 l 2,288,289
 500 158 500 158 504 158 c 1,290,-1
 502 160 l 2,291,292
 502 162 502 162 503 162 c 128,-1,293
 504 162 504 162 504 164 c 0,294,295
 500 170 500 170 494 170 c 1,296,297
 496 168 496 168 496 166 c 128,-1,298
 496 164 496 164 492 164 c 1,299,-1
 494 162 l 1,300,-1
 496 162 l 1,283,284
473 180 m 1,301,-1
 477 180 l 2,302,303
 485 180 485 180 487 178 c 1,304,305
 482 186 482 186 473 186 c 1,306,-1
 473 184 l 1,307,-1
 473 182 l 1,308,-1
 473 180 l 1,301,-1
492 170 m 2,309,310
 487 170 487 170 487 168 c 2,311,-1
 489 166 l 2,312,313
 494 166 494 166 494 168 c 2,314,-1
 492 170 l 2,309,310
496 172 m 1,315,316
 502 172 502 172 504 170 c 1,317,-1
 503 172 l 2,318,319
 502 174 502 174 501 174 c 0,320,321
 498 178 498 178 496 178 c 2,322,-1
 494 176 l 1,323,-1
 496 174 l 1,324,-1
 496 172 l 1,315,316
508 162 m 2,325,-1
 504 162 l 1,326,327
 504 160 504 160 506 158 c 0,328,329
 508 158 508 158 510 160 c 0,330,331
 510 162 510 162 508 162 c 2,325,-1
442 158 m 1,332,-1
 444 160 l 1,333,-1
 446 160 l 1,334,335
 446 158 446 158 442 158 c 1,332,-1
451 160 m 1,336,-1
 453 162 l 1,337,-1
 453 164 l 1,338,339
 455 162 455 162 457 162 c 1,340,341
 455 162 455 162 454 161 c 128,-1,342
 453 160 453 160 451 160 c 1,336,-1
459 162 m 1,343,-1
 461 164 l 1,344,-1
 463 164 l 1,345,-1
 465 164 l 1,346,347
 463 162 463 162 459 162 c 1,343,-1
465 166 m 1,348,-1
 465 168 l 2,349,350
 463 170 463 170 461 170 c 2,351,-1
 459 168 l 1,352,-1
 459 166 l 2,353,354
 459 164 459 164 457 164 c 128,-1,355
 455 164 455 164 455 166 c 2,356,-1
 457 168 l 2,357,358
 457 170 457 170 456 171 c 128,-1,359
 455 172 455 172 455 170 c 1,360,-1
 455 172 l 1,361,-1
 453 172 l 1,362,-1
 453 174 l 1,363,364
 460 178 460 178 465 178 c 0,365,366
 467 178 467 178 469 176 c 2,367,-1
 469 174 l 1,368,-1
 469 172 l 1,369,-1
 467 172 l 1,370,-1
 467 170 l 1,371,-1
 465 170 l 1,372,-1
 467 170 l 1,373,-1
 467 168 l 1,374,-1
 467 166 l 1,375,-1
 469 166 l 1,376,-1
 467 164 l 1,377,-1
 465 166 l 1,348,-1
446 162 m 1,378,-1
 444 164 l 2,379,380
 440 164 440 164 440 162 c 2,381,-1
 442 160 l 2,382,383
 442 158 442 158 438 158 c 1,384,-1
 440 160 l 2,385,386
 440 162 440 162 439 162 c 128,-1,387
 438 162 438 162 438 164 c 0,388,389
 440 170 440 170 449 170 c 1,390,391
 446 167 446 167 446 166 c 0,392,393
 446 164 446 164 451 164 c 1,394,-1
 449 162 l 1,395,-1
 446 162 l 1,378,-1
469 180 m 1,396,-1
 465 180 l 2,397,398
 457 180 457 180 455 178 c 1,399,400
 460 186 460 186 469 186 c 1,401,-1
 469 184 l 1,402,-1
 469 182 l 1,403,-1
 469 180 l 1,396,-1
451 170 m 2,404,405
 455 170 455 170 455 168 c 128,-1,406
 455 166 455 166 453 166 c 128,-1,407
 451 166 451 166 449 168 c 2,408,-1
 451 170 l 2,404,405
446 172 m 1,409,410
 440 172 440 172 438 170 c 1,411,412
 444 176 444 176 449 178 c 1,413,-1
 449 176 l 1,414,-1
 446 174 l 1,415,-1
 446 172 l 1,409,410
434 162 m 2,416,-1
 438 162 l 1,417,418
 438 160 438 160 436 158 c 0,419,420
 434 158 434 158 434 160 c 1,421,422
 432 160 432 160 432 161 c 128,-1,423
 432 162 432 162 434 162 c 2,416,-1
479 117 m 1,424,-1
 471 109 l 1,425,-1
 465 117 l 1,426,-1
 471 117 l 1,427,-1
 479 117 l 1,424,-1
471 143 m 0,428,429
 449 143 449 143 434 128 c 0,430,431
 420 114 420 114 420 90 c 0,432,433
 420 67 420 67 434 53 c 128,-1,434
 448 39 448 39 471 39 c 0,435,436
 495 39 495 39 509 53 c 0,437,438
 524 68 524 68 524 90 c 0,439,440
 524 113 524 113 509 128 c 128,-1,441
 494 143 494 143 471 143 c 0,428,429
293 23 m 1,442,-1
 367 23 l 1,443,-1
 367 33 l 1,444,-1
 297 33 l 1,445,-1
 84 248 l 1,446,-1
 84 846 l 1,447,-1
 137 846 l 1,448,-1
 240 741 l 1,449,-1
 240 313 l 1,450,-1
 362 190 l 1,451,-1
 367 190 l 1,452,-1
 367 201 l 1,453,-1
 252 317 l 1,454,-1
 252 748 l 1,455,-1
 141 856 l 1,456,-1
 72 856 l 1,457,-1
 72 244 l 1,458,-1
 293 23 l 1,442,-1
588 23 m 1,459,-1
 692 23 l 1,460,-1
 768 96 l 1,461,-1
 768 231 l 1,462,-1
 756 242 l 1,463,-1
 756 102 l 1,464,-1
 688 33 l 1,465,-1
 588 33 l 1,466,-1
 588 23 l 1,459,-1
588 190 m 1,467,-1
 600 190 l 1,468,-1
 600 399 l 1,469,-1
 588 410 l 1,470,-1
 588 190 l 1,467,-1
588 834 m 1,471,-1
 659 764 l 1,472,-1
 768 764 l 1,473,-1
 768 1194 l 1,474,-1
 547 1415 l 1,475,-1
 147 1415 l 1,476,-1
 72 1339 l 1,477,-1
 72 1012 l 1,478,-1
 768 315 l 1,479,-1
 768 332 l 1,480,-1
 84 1016 l 1,481,-1
 84 1335 l 1,482,-1
 152 1403 l 1,483,-1
 541 1403 l 1,484,-1
 756 1188 l 1,485,-1
 756 774 l 1,486,-1
 664 774 l 1,487,-1
 600 840 l 1,488,-1
 600 1124 l 1,489,-1
 477 1247 l 1,490,-1
 240 1247 l 1,491,-1
 240 1081 l 1,492,-1
 768 553 l 1,493,-1
 768 569 l 1,494,-1
 252 1085 l 1,495,-1
 252 1235 l 1,496,-1
 471 1235 l 1,497,-1
 588 1118 l 1,498,-1
 588 834 l 1,471,-1
567 825 m 1,499,-1
 567 1110 l 1,500,-1
 463 1214 l 1,501,-1
 272 1214 l 1,502,-1
 272 1094 l 1,503,-1
 788 578 l 1,504,-1
 788 266 l 1,505,-1
 51 1004 l 1,506,-1
 51 1348 l 1,507,-1
 137 1436 l 1,508,-1
 555 1436 l 1,509,-1
 788 1202 l 1,510,-1
 788 741 l 1,511,-1
 651 741 l 1,512,-1
 567 825 l 1,499,-1
EndSplineSet
EndChar

StartChar: hyphen
Encoding: 45 45 13
Width: 532
GlyphClass: 2
Flags: W
LayerCount: 2
Fore
SplineSet
76 678 m 2,0,-1
 453 678 l 2,1,2
 471 678 471 678 471 664 c 2,3,-1
 471 485 l 2,4,5
 471 471 471 471 453 471 c 2,6,-1
 76 471 l 2,7,8
 61 471 61 471 61 485 c 2,9,-1
 61 664 l 2,10,11
 61 678 61 678 76 678 c 2,0,-1
EndSplineSet
EndChar

StartChar: period
Encoding: 46 46 14
Width: 309
GlyphClass: 2
Flags: W
LayerCount: 2
Fore
SplineSet
66 207 m 2,0,-1
 244 207 l 2,1,2
 258 207 258 207 258 193 c 2,3,-1
 258 14 l 2,4,5
 258 0 258 0 244 0 c 2,6,-1
 66 0 l 2,7,8
 51 0 51 0 51 14 c 2,9,-1
 51 193 l 2,10,11
 51 207 51 207 66 207 c 2,0,-1
EndSplineSet
EndChar

StartChar: zero
Encoding: 48 48 15
Width: 839
GlyphClass: 2
Flags: W
LayerCount: 2
Fore
SplineSet
285 0 m 1,0,-1
 51 233 l 1,1,-1
 51 1348 l 1,2,-1
 137 1436 l 1,3,-1
 555 1436 l 1,4,-1
 788 1202 l 1,5,-1
 788 889 l 1,6,-1
 463 1214 l 1,7,-1
 272 1214 l 1,8,-1
 272 326 l 1,9,-1
 377 223 l 1,10,-1
 567 223 l 1,11,-1
 567 1085 l 1,12,-1
 788 864 l 1,13,-1
 788 88 l 1,14,-1
 700 0 l 1,15,-1
 285 0 l 1,0,-1
293 23 m 1,16,-1
 391 23 l 1,17,-1
 391 33 l 1,18,-1
 297 33 l 1,19,-1
 84 248 l 1,20,-1
 84 1335 l 1,21,-1
 152 1403 l 1,22,-1
 541 1403 l 1,23,-1
 768 1178 l 1,24,-1
 768 1194 l 1,25,-1
 547 1415 l 1,26,-1
 147 1415 l 1,27,-1
 72 1339 l 1,28,-1
 72 244 l 1,29,-1
 293 23 l 1,16,-1
569 23 m 1,30,-1
 692 23 l 1,31,-1
 768 96 l 1,32,-1
 768 866 l 1,33,-1
 756 877 l 1,34,-1
 756 98 l 1,35,-1
 688 33 l 1,36,-1
 569 33 l 1,37,-1
 569 23 l 1,30,-1
240 1247 m 1,38,-1
 240 313 l 1,39,-1
 362 190 l 1,40,-1
 391 190 l 1,41,-1
 391 201 l 1,42,-1
 367 201 l 1,43,-1
 252 317 l 1,44,-1
 252 1235 l 1,45,-1
 471 1235 l 1,46,-1
 768 940 l 1,47,-1
 768 956 l 1,48,-1
 477 1247 l 1,49,-1
 240 1247 l 1,38,-1
569 201 m 1,50,-1
 569 190 l 1,51,-1
 600 190 l 1,52,-1
 600 1032 l 1,53,-1
 588 1044 l 1,54,-1
 588 201 l 1,55,-1
 569 201 l 1,50,-1
EndSplineSet
EndChar

StartChar: one
Encoding: 49 49 16
Width: 620
GlyphClass: 2
Flags: W
LayerCount: 2
Fore
SplineSet
336 1436 m 1,0,-1
 422 1350 l 1,1,-1
 422 1071 l 1,2,-1
 201 850 l 1,3,-1
 201 1214 l 1,4,-1
 51 1214 l 1,5,-1
 51 1436 l 1,6,-1
 336 1436 l 1,0,-1
326 1415 m 1,7,-1
 74 1415 l 1,8,-1
 74 1403 l 1,9,-1
 322 1403 l 1,10,-1
 389 1335 l 1,11,-1
 389 1083 l 1,12,-1
 231 928 l 1,13,-1
 231 1247 l 1,14,-1
 74 1247 l 1,15,-1
 74 1235 l 1,16,-1
 221 1235 l 1,17,-1
 221 901 l 1,18,-1
 399 1079 l 1,19,-1
 399 1341 l 1,20,-1
 326 1415 l 1,7,-1
399 1006 m 1,21,-1
 389 993 l 1,22,-1
 389 190 l 1,23,-1
 549 190 l 1,24,-1
 549 201 l 1,25,-1
 399 201 l 1,26,-1
 399 1006 l 1,21,-1
231 838 m 1,27,-1
 221 825 l 1,28,-1
 221 201 l 1,29,-1
 74 201 l 1,30,-1
 74 190 l 1,31,-1
 231 190 l 1,32,-1
 231 838 l 1,27,-1
74 33 m 1,33,-1
 74 23 l 1,34,-1
 231 23 l 1,35,-1
 231 33 l 1,36,-1
 74 33 l 1,33,-1
389 23 m 1,37,-1
 549 23 l 1,38,-1
 549 33 l 1,39,-1
 389 33 l 1,40,-1
 389 23 l 1,37,-1
422 1044 m 1,41,-1
 422 223 l 1,42,-1
 569 223 l 1,43,-1
 569 0 l 1,44,-1
 51 0 l 1,45,-1
 51 223 l 1,46,-1
 201 223 l 1,47,-1
 201 823 l 1,48,-1
 422 1044 l 1,41,-1
EndSplineSet
EndChar

StartChar: two
Encoding: 50 50 17
Width: 739
GlyphClass: 2
Flags: W
LayerCount: 2
Fore
SplineSet
51 678 m 1,0,-1
 453 1077 l 1,1,-1
 608 922 l 1,2,-1
 272 586 l 1,3,-1
 272 223 l 1,4,-1
 688 223 l 1,5,-1
 688 0 l 1,6,-1
 137 0 l 1,7,-1
 51 86 l 1,8,-1
 51 678 l 1,0,-1
74 668 m 1,9,-1
 74 96 l 1,10,-1
 145 23 l 1,11,-1
 494 23 l 1,12,-1
 494 33 l 1,13,-1
 152 33 l 1,14,-1
 84 100 l 1,15,-1
 84 664 l 1,16,-1
 453 1032 l 1,17,-1
 563 922 l 1,18,-1
 240 598 l 1,19,-1
 240 190 l 1,20,-1
 494 190 l 1,21,-1
 494 201 l 1,22,-1
 252 201 l 1,23,-1
 252 594 l 1,24,-1
 580 922 l 1,25,-1
 453 1049 l 1,26,-1
 74 668 l 1,9,-1
621 963 m 1,27,-1
 668 1010 l 1,28,-1
 668 1169 l 1,29,-1
 424 1415 l 1,30,-1
 145 1415 l 1,31,-1
 74 1341 l 1,32,-1
 74 1167 l 1,33,-1
 84 1167 l 1,34,-1
 84 1335 l 1,35,-1
 152 1403 l 1,36,-1
 420 1403 l 1,37,-1
 657 1165 l 1,38,-1
 657 1016 l 1,39,-1
 621 979 l 1,40,-1
 240 1360 l 1,41,-1
 240 1167 l 1,42,-1
 252 1167 l 1,43,-1
 252 1333 l 1,44,-1
 621 963 l 1,27,-1
621 934 m 1,45,-1
 272 1282 l 1,46,-1
 272 1145 l 1,47,-1
 51 1145 l 1,48,-1
 51 1350 l 1,49,-1
 137 1436 l 1,50,-1
 432 1436 l 1,51,-1
 690 1178 l 1,52,-1
 690 1001 l 1,53,-1
 621 934 l 1,45,-1
EndSplineSet
EndChar

StartChar: three
Encoding: 51 51 18
Width: 780
GlyphClass: 2
Flags: W
LayerCount: 2
Fore
SplineSet
51 1436 m 1,0,-1
 643 1436 l 1,1,-1
 729 1350 l 1,2,-1
 729 1014 l 1,3,-1
 643 928 l 1,4,-1
 330 928 l 1,5,-1
 506 1106 l 1,6,-1
 506 1214 l 1,7,-1
 51 1214 l 1,8,-1
 51 1436 l 1,0,-1
51 223 m 1,9,-1
 244 223 l 1,10,-1
 506 485 l 1,11,-1
 506 682 l 1,12,-1
 315 682 l 1,13,-1
 315 903 l 1,14,-1
 643 903 l 1,15,-1
 729 817 l 1,16,-1
 729 393 l 1,17,-1
 336 0 l 1,18,-1
 51 0 l 1,19,-1
 51 223 l 1,9,-1
246 23 m 1,20,-1
 328 23 l 1,21,-1
 707 401 l 1,22,-1
 707 809 l 1,23,-1
 633 881 l 1,24,-1
 336 881 l 1,25,-1
 336 870 l 1,26,-1
 629 870 l 1,27,-1
 696 803 l 1,28,-1
 696 406 l 1,29,-1
 324 33 l 1,30,-1
 246 33 l 1,31,-1
 246 23 l 1,20,-1
246 190 m 1,32,-1
 258 190 l 1,33,-1
 539 471 l 1,34,-1
 539 713 l 1,35,-1
 336 713 l 1,36,-1
 336 702 l 1,37,-1
 528 702 l 1,38,-1
 528 475 l 1,39,-1
 254 201 l 1,40,-1
 246 201 l 1,41,-1
 246 190 l 1,32,-1
72 1415 m 1,42,-1
 72 1403 l 1,43,-1
 629 1403 l 1,44,-1
 696 1335 l 1,45,-1
 696 1028 l 1,46,-1
 629 961 l 1,47,-1
 408 961 l 1,48,-1
 539 1092 l 1,49,-1
 539 1247 l 1,50,-1
 72 1247 l 1,51,-1
 72 1235 l 1,52,-1
 528 1235 l 1,53,-1
 528 1098 l 1,54,-1
 381 950 l 1,55,-1
 635 950 l 1,56,-1
 707 1022 l 1,57,-1
 707 1341 l 1,58,-1
 633 1415 l 1,59,-1
 72 1415 l 1,42,-1
EndSplineSet
EndChar

StartChar: four
Encoding: 52 52 19
Width: 870
GlyphClass: 2
Flags: W
LayerCount: 2
Fore
SplineSet
51 1436 m 1,0,-1
 272 1436 l 1,1,-1
 272 989 l 1,2,-1
 520 741 l 1,3,-1
 598 741 l 1,4,-1
 598 1436 l 1,5,-1
 819 1436 l 1,6,-1
 819 520 l 1,7,-1
 430 520 l 1,8,-1
 51 897 l 1,9,-1
 51 1436 l 1,0,-1
72 1415 m 1,10,-1
 72 905 l 1,11,-1
 438 541 l 1,12,-1
 799 541 l 1,13,-1
 799 1415 l 1,14,-1
 786 1415 l 1,15,-1
 786 551 l 1,16,-1
 442 551 l 1,17,-1
 84 911 l 1,18,-1
 84 1415 l 1,19,-1
 72 1415 l 1,10,-1
631 1415 m 1,20,-1
 618 1415 l 1,21,-1
 618 719 l 1,22,-1
 512 719 l 1,23,-1
 252 981 l 1,24,-1
 252 1415 l 1,25,-1
 240 1415 l 1,26,-1
 240 975 l 1,27,-1
 508 709 l 1,28,-1
 631 709 l 1,29,-1
 631 1415 l 1,20,-1
799 479 m 1,30,-1
 618 479 l 1,31,-1
 618 23 l 1,32,-1
 631 23 l 1,33,-1
 631 469 l 1,34,-1
 786 469 l 1,35,-1
 786 23 l 1,36,-1
 799 23 l 1,37,-1
 799 479 l 1,30,-1
819 502 m 1,38,-1
 819 0 l 1,39,-1
 598 0 l 1,40,-1
 598 502 l 1,41,-1
 819 502 l 1,38,-1
EndSplineSet
EndChar

StartChar: five
Encoding: 53 53 20
Width: 763
GlyphClass: 2
Flags: W
LayerCount: 2
Fore
SplineSet
137 1436 m 1,0,-1
 721 1436 l 1,1,-1
 721 1214 l 1,2,-1
 272 1214 l 1,3,-1
 272 772 l 1,4,-1
 51 993 l 1,5,-1
 51 1350 l 1,6,-1
 137 1436 l 1,0,-1
510 201 m 1,7,-1
 510 190 l 1,8,-1
 524 190 l 1,9,-1
 524 567 l 1,10,-1
 311 778 l 1,11,-1
 311 764 l 1,12,-1
 512 561 l 1,13,-1
 512 201 l 1,14,-1
 510 201 l 1,7,-1
510 33 m 1,15,-1
 510 23 l 1,16,-1
 618 23 l 1,17,-1
 692 96 l 1,18,-1
 692 635 l 1,19,-1
 311 1016 l 1,20,-1
 311 999 l 1,21,-1
 680 631 l 1,22,-1
 680 100 l 1,23,-1
 612 33 l 1,24,-1
 510 33 l 1,15,-1
369 23 m 1,25,-1
 369 33 l 1,26,-1
 299 33 l 1,27,-1
 84 250 l 1,28,-1
 84 387 l 1,29,-1
 72 387 l 1,30,-1
 72 244 l 1,31,-1
 293 23 l 1,32,-1
 369 23 l 1,25,-1
369 190 m 1,33,-1
 369 201 l 1,34,-1
 252 319 l 1,35,-1
 252 387 l 1,36,-1
 240 387 l 1,37,-1
 240 313 l 1,38,-1
 362 190 l 1,39,-1
 369 190 l 1,33,-1
145 1415 m 1,40,-1
 72 1341 l 1,41,-1
 72 1001 l 1,42,-1
 252 823 l 1,43,-1
 252 1235 l 1,44,-1
 698 1235 l 1,45,-1
 698 1247 l 1,46,-1
 240 1247 l 1,47,-1
 240 850 l 1,48,-1
 84 1008 l 1,49,-1
 84 1335 l 1,50,-1
 150 1403 l 1,51,-1
 698 1403 l 1,52,-1
 698 1415 l 1,53,-1
 145 1415 l 1,40,-1
291 1067 m 1,54,-1
 713 645 l 1,55,-1
 713 86 l 1,56,-1
 627 0 l 1,57,-1
 285 0 l 1,58,-1
 51 236 l 1,59,-1
 51 408 l 1,60,-1
 272 408 l 1,61,-1
 272 328 l 1,62,-1
 377 223 l 1,63,-1
 492 223 l 1,64,-1
 492 553 l 1,65,-1
 291 754 l 1,66,-1
 291 1067 l 1,54,-1
EndSplineSet
EndChar

StartChar: six
Encoding: 54 54 21
Width: 903
GlyphClass: 2
Flags: W
LayerCount: 2
Fore
SplineSet
852 1214 m 1,0,-1
 553 1214 l 1,1,-1
 272 936 l 1,2,-1
 272 223 l 1,3,-1
 631 223 l 1,4,-1
 631 438 l 1,5,-1
 299 770 l 1,6,-1
 299 924 l 1,7,-1
 379 1004 l 1,8,-1
 852 530 l 1,9,-1
 852 86 l 1,10,-1
 766 0 l 1,11,-1
 137 0 l 1,12,-1
 51 86 l 1,13,-1
 51 1026 l 1,14,-1
 461 1436 l 1,15,-1
 852 1436 l 1,16,-1
 852 1214 l 1,0,-1
831 1235 m 1,17,-1
 831 1247 l 1,18,-1
 539 1247 l 1,19,-1
 240 948 l 1,20,-1
 240 190 l 1,21,-1
 365 190 l 1,22,-1
 365 201 l 1,23,-1
 252 201 l 1,24,-1
 252 944 l 1,25,-1
 543 1235 l 1,26,-1
 831 1235 l 1,17,-1
539 190 m 1,27,-1
 664 190 l 1,28,-1
 664 453 l 1,29,-1
 319 797 l 1,30,-1
 319 780 l 1,31,-1
 651 449 l 1,32,-1
 651 201 l 1,33,-1
 539 201 l 1,34,-1
 539 190 l 1,27,-1
831 1403 m 1,35,-1
 831 1415 l 1,36,-1
 469 1415 l 1,37,-1
 72 1018 l 1,38,-1
 72 96 l 1,39,-1
 145 23 l 1,40,-1
 365 23 l 1,41,-1
 365 33 l 1,42,-1
 152 33 l 1,43,-1
 84 100 l 1,44,-1
 84 1014 l 1,45,-1
 473 1403 l 1,46,-1
 831 1403 l 1,35,-1
539 23 m 1,47,-1
 758 23 l 1,48,-1
 831 96 l 1,49,-1
 831 522 l 1,50,-1
 379 975 l 1,51,-1
 371 967 l 1,52,-1
 819 518 l 1,53,-1
 819 100 l 1,54,-1
 752 33 l 1,55,-1
 539 33 l 1,56,-1
 539 23 l 1,47,-1
EndSplineSet
EndChar

StartChar: seven
Encoding: 55 55 22
Width: 858
GlyphClass: 2
Flags: W
LayerCount: 2
Fore
SplineSet
530 780 m 1,0,-1
 530 0 l 1,1,-1
 309 0 l 1,2,-1
 309 559 l 1,3,-1
 530 780 l 1,0,-1
508 729 m 1,4,-1
 498 717 l 1,5,-1
 498 23 l 1,6,-1
 508 23 l 1,7,-1
 508 729 l 1,4,-1
340 561 m 1,8,-1
 330 549 l 1,9,-1
 330 23 l 1,10,-1
 340 23 l 1,11,-1
 340 561 l 1,8,-1
330 635 m 1,12,-1
 786 1092 l 1,13,-1
 786 1341 l 1,14,-1
 713 1415 l 1,15,-1
 74 1415 l 1,16,-1
 74 1403 l 1,17,-1
 709 1403 l 1,18,-1
 776 1335 l 1,19,-1
 776 1098 l 1,20,-1
 340 662 l 1,21,-1
 340 883 l 1,22,-1
 686 1229 l 1,23,-1
 686 1247 l 1,24,-1
 74 1247 l 1,25,-1
 74 1235 l 1,26,-1
 676 1235 l 1,27,-1
 330 889 l 1,28,-1
 330 635 l 1,12,-1
309 584 m 1,29,-1
 309 897 l 1,30,-1
 625 1214 l 1,31,-1
 51 1214 l 1,32,-1
 51 1436 l 1,33,-1
 721 1436 l 1,34,-1
 807 1350 l 1,35,-1
 807 1083 l 1,36,-1
 309 584 l 1,29,-1
EndSplineSet
EndChar

StartChar: eight
Encoding: 56 56 23
Width: 839
GlyphClass: 2
Flags: W
LayerCount: 2
Fore
SplineSet
285 0 m 1,0,-1
 51 236 l 1,1,-1
 51 879 l 1,2,-1
 150 879 l 1,3,-1
 272 756 l 1,4,-1
 272 326 l 1,5,-1
 377 223 l 1,6,-1
 567 223 l 1,7,-1
 567 461 l 1,8,-1
 788 240 l 1,9,-1
 788 88 l 1,10,-1
 700 0 l 1,11,-1
 285 0 l 1,0,-1
293 23 m 1,12,-1
 367 23 l 1,13,-1
 367 33 l 1,14,-1
 297 33 l 1,15,-1
 84 248 l 1,16,-1
 84 846 l 1,17,-1
 137 846 l 1,18,-1
 240 741 l 1,19,-1
 240 313 l 1,20,-1
 362 190 l 1,21,-1
 367 190 l 1,22,-1
 367 201 l 1,23,-1
 252 317 l 1,24,-1
 252 748 l 1,25,-1
 141 856 l 1,26,-1
 72 856 l 1,27,-1
 72 244 l 1,28,-1
 293 23 l 1,12,-1
588 23 m 1,29,-1
 692 23 l 1,30,-1
 768 96 l 1,31,-1
 768 231 l 1,32,-1
 756 242 l 1,33,-1
 756 102 l 1,34,-1
 688 33 l 1,35,-1
 588 33 l 1,36,-1
 588 23 l 1,29,-1
588 190 m 1,37,-1
 600 190 l 1,38,-1
 600 399 l 1,39,-1
 588 410 l 1,40,-1
 588 190 l 1,37,-1
588 834 m 1,41,-1
 659 764 l 1,42,-1
 768 764 l 1,43,-1
 768 1194 l 1,44,-1
 547 1415 l 1,45,-1
 147 1415 l 1,46,-1
 72 1339 l 1,47,-1
 72 1012 l 1,48,-1
 768 315 l 1,49,-1
 768 332 l 1,50,-1
 84 1016 l 1,51,-1
 84 1335 l 1,52,-1
 152 1403 l 1,53,-1
 541 1403 l 1,54,-1
 756 1188 l 1,55,-1
 756 774 l 1,56,-1
 664 774 l 1,57,-1
 600 840 l 1,58,-1
 600 1124 l 1,59,-1
 477 1247 l 1,60,-1
 240 1247 l 1,61,-1
 240 1081 l 1,62,-1
 768 553 l 1,63,-1
 768 569 l 1,64,-1
 252 1085 l 1,65,-1
 252 1235 l 1,66,-1
 471 1235 l 1,67,-1
 588 1118 l 1,68,-1
 588 834 l 1,41,-1
567 825 m 1,69,-1
 567 1110 l 1,70,-1
 463 1214 l 1,71,-1
 272 1214 l 1,72,-1
 272 1094 l 1,73,-1
 788 578 l 1,74,-1
 788 266 l 1,75,-1
 51 1004 l 1,76,-1
 51 1348 l 1,77,-1
 137 1436 l 1,78,-1
 555 1436 l 1,79,-1
 788 1202 l 1,80,-1
 788 741 l 1,81,-1
 651 741 l 1,82,-1
 567 825 l 1,69,-1
EndSplineSet
EndChar

StartChar: nine
Encoding: 57 57 24
Width: 903
GlyphClass: 2
Flags: W
LayerCount: 2
Fore
SplineSet
51 223 m 1,0,-1
 352 223 l 1,1,-1
 631 502 l 1,2,-1
 631 1214 l 1,3,-1
 272 1214 l 1,4,-1
 272 997 l 1,5,-1
 604 666 l 1,6,-1
 604 512 l 1,7,-1
 524 432 l 1,8,-1
 51 905 l 1,9,-1
 51 1350 l 1,10,-1
 137 1436 l 1,11,-1
 766 1436 l 1,12,-1
 852 1350 l 1,13,-1
 852 410 l 1,14,-1
 442 0 l 1,15,-1
 51 0 l 1,16,-1
 51 223 l 1,0,-1
246 201 m 1,17,-1
 246 190 l 1,18,-1
 365 190 l 1,19,-1
 664 487 l 1,20,-1
 664 1247 l 1,21,-1
 242 1247 l 1,22,-1
 242 985 l 1,23,-1
 584 641 l 1,24,-1
 584 657 l 1,25,-1
 252 989 l 1,26,-1
 252 1235 l 1,27,-1
 651 1235 l 1,28,-1
 651 494 l 1,29,-1
 360 201 l 1,30,-1
 246 201 l 1,17,-1
246 33 m 1,31,-1
 246 23 l 1,32,-1
 434 23 l 1,33,-1
 831 418 l 1,34,-1
 831 1341 l 1,35,-1
 758 1415 l 1,36,-1
 145 1415 l 1,37,-1
 74 1341 l 1,38,-1
 74 915 l 1,39,-1
 524 463 l 1,40,-1
 532 471 l 1,41,-1
 84 920 l 1,42,-1
 84 1335 l 1,43,-1
 152 1403 l 1,44,-1
 752 1403 l 1,45,-1
 819 1335 l 1,46,-1
 819 424 l 1,47,-1
 430 33 l 1,48,-1
 246 33 l 1,31,-1
EndSplineSet
EndChar

StartChar: at
Encoding: 64 64 25
Width: 739
GlyphClass: 2
Flags: W
LayerCount: 2
Fore
SplineSet
51 678 m 1,0,-1
 453 1077 l 1,1,-1
 608 922 l 1,2,-1
 272 586 l 1,3,-1
 272 223 l 1,4,-1
 688 223 l 1,5,-1
 688 0 l 1,6,-1
 137 0 l 1,7,-1
 51 86 l 1,8,-1
 51 678 l 1,0,-1
74 668 m 1,9,-1
 74 96 l 1,10,-1
 145 23 l 1,11,-1
 494 23 l 1,12,-1
 494 33 l 1,13,-1
 152 33 l 1,14,-1
 84 100 l 1,15,-1
 84 664 l 1,16,-1
 453 1032 l 1,17,-1
 563 922 l 1,18,-1
 240 598 l 1,19,-1
 240 190 l 1,20,-1
 494 190 l 1,21,-1
 494 201 l 1,22,-1
 252 201 l 1,23,-1
 252 594 l 1,24,-1
 580 922 l 1,25,-1
 453 1049 l 1,26,-1
 74 668 l 1,9,-1
621 963 m 1,27,-1
 668 1010 l 1,28,-1
 668 1169 l 1,29,-1
 424 1415 l 1,30,-1
 145 1415 l 1,31,-1
 74 1341 l 1,32,-1
 74 1167 l 1,33,-1
 84 1167 l 1,34,-1
 84 1335 l 1,35,-1
 152 1403 l 1,36,-1
 420 1403 l 1,37,-1
 657 1165 l 1,38,-1
 657 1016 l 1,39,-1
 621 979 l 1,40,-1
 240 1360 l 1,41,-1
 240 1167 l 1,42,-1
 252 1167 l 1,43,-1
 252 1333 l 1,44,-1
 621 963 l 1,27,-1
621 934 m 1,45,-1
 272 1282 l 1,46,-1
 272 1145 l 1,47,-1
 51 1145 l 1,48,-1
 51 1350 l 1,49,-1
 137 1436 l 1,50,-1
 432 1436 l 1,51,-1
 690 1178 l 1,52,-1
 690 1001 l 1,53,-1
 621 934 l 1,45,-1
578 150 m 128,-1,55
 554 150 554 150 536 132 c 128,-1,56
 518 114 518 114 518 90 c 128,-1,57
 518 66 518 66 536 48 c 0,58,59
 553 31 553 31 578 31 c 128,-1,60
 603 31 603 31 620 48 c 128,-1,61
 637 65 637 65 637 90 c 128,-1,62
 637 115 637 115 620 132 c 0,63,54
 602 150 602 150 578 150 c 128,-1,55
578 80 m 1,64,-1
 588 80 l 1,65,-1
 588 74 l 1,66,-1
 578 74 l 1,67,-1
 578 66 l 1,68,69
 592 66 592 66 598 76 c 1,70,-1
 604 70 l 1,71,72
 593 59 593 59 578 59 c 1,73,-1
 578 51 l 1,74,-1
 571 51 l 1,75,-1
 571 59 l 1,76,77
 545 66 545 66 545 92 c 0,78,79
 545 109 545 109 559 119 c 1,80,-1
 553 125 l 1,81,82
 537 115 537 115 537 92 c 0,83,84
 537 74 537 74 545 66 c 1,85,-1
 541 59 l 1,86,87
 528 72 528 72 528 92 c 0,88,89
 528 119 528 119 553 135 c 1,90,-1
 559 129 l 1,91,-1
 565 123 l 2,92,93
 570 123 570 123 571 124 c 128,-1,94
 572 125 572 125 578 125 c 0,95,96
 583 125 583 125 585 124 c 128,-1,97
 587 123 587 123 590 123 c 2,98,-1
 598 129 l 1,99,-1
 602 135 l 1,100,101
 629 120 629 120 629 92 c 0,102,103
 629 77 629 77 616 59 c 1,104,-1
 610 66 l 1,105,106
 621 77 621 77 621 92 c 0,107,108
 621 114 621 114 604 125 c 1,109,-1
 598 119 l 1,110,111
 605 112 605 112 606 109 c 2,112,-1
 600 104 l 1,113,114
 598 111 598 111 592 113 c 1,115,-1
 578 98 l 1,116,-1
 563 113 l 1,117,118
 553 107 553 107 553 92 c 0,119,120
 553 70 553 70 571 68 c 1,121,-1
 571 92 l 1,122,-1
 588 92 l 1,123,-1
 588 86 l 1,124,-1
 578 86 l 1,125,-1
 578 80 l 1,64,-1
598 45 m 1,126,-1
 586 57 l 1,127,128
 597 61 597 61 604 70 c 1,129,-1
 606 70 l 1,130,-1
 598 78 l 1,131,-1
 596 78 l 1,132,133
 590 68 590 68 580 68 c 1,134,-1
 580 72 l 1,135,-1
 590 72 l 1,136,-1
 590 82 l 1,137,-1
 580 82 l 1,138,-1
 580 84 l 1,139,-1
 590 84 l 1,140,-1
 590 94 l 1,141,-1
 569 94 l 1,142,-1
 569 76 l 1,143,-1
 555 90 l 1,144,-1
 555 92 l 2,145,146
 555 105 555 105 563 111 c 1,147,-1
 578 96 l 1,148,-1
 584 102 l 1,149,-1
 614 72 l 1,150,151
 610 68 610 68 610 66 c 1,152,-1
 608 66 l 1,153,-1
 614 57 l 1,154,155
 608 49 608 49 598 45 c 1,126,-1
545 100 m 1,156,-1
 541 104 l 1,157,158
 543 117 543 117 553 123 c 1,159,-1
 557 119 l 1,160,161
 550 113 550 113 545 100 c 1,156,-1
539 162 m 1,162,-1
 539 160 l 2,163,164
 539 158 539 158 541 156 c 2,165,-1
 543 156 l 1,166,-1
 547 156 l 1,167,-1
 549 154 l 1,168,169
 564 160 564 160 578 160 c 0,170,171
 594 160 594 160 606 154 c 1,172,-1
 608 154 l 1,173,-1
 608 156 l 1,174,-1
 610 156 l 1,175,-1
 612 156 l 1,176,-1
 616 156 l 1,177,-1
 618 160 l 1,178,-1
 618 162 l 2,179,180
 618 164 618 164 616 164 c 1,181,-1
 616 166 l 1,182,-1
 616 168 l 1,183,-1
 616 170 l 2,184,185
 616 172 616 172 614 172 c 1,186,-1
 614 174 l 2,187,188
 614 176 614 176 612 176 c 1,189,-1
 612 178 l 2,190,191
 612 180 612 180 608 180 c 2,192,-1
 606 182 l 1,193,-1
 604 182 l 1,194,-1
 602 184 l 1,195,-1
 600 184 l 1,196,-1
 598 184 l 1,197,-1
 596 184 l 1,198,199
 596 188 596 188 594 188 c 1,200,-1
 594 186 l 1,201,-1
 594 188 l 2,202,203
 592 190 592 190 590 190 c 128,-1,204
 588 190 588 190 588 191 c 0,205,206
 588 193 588 193 586 193 c 2,207,-1
 584 190 l 1,208,209
 584 193 584 193 582 193 c 128,-1,210
 580 193 580 193 580 195 c 1,211,-1
 582 195 l 1,212,-1
 582 197 l 1,213,-1
 580 197 l 1,214,-1
 580 199 l 1,215,-1
 578 199 l 1,216,-1
 578 197 l 1,217,-1
 575 197 l 1,218,-1
 575 195 l 1,219,-1
 578 195 l 1,220,-1
 575 193 l 1,221,-1
 573 193 l 1,222,-1
 571 190 l 1,223,224
 571 193 571 193 569 193 c 2,225,-1
 567 190 l 1,226,-1
 565 190 l 1,227,-1
 563 188 l 1,228,-1
 563 186 l 1,229,-1
 563 188 l 1,230,231
 559 188 559 188 559 184 c 1,232,-1
 557 184 l 1,233,-1
 555 184 l 2,234,235
 553 184 553 184 553 182 c 1,236,-1
 551 182 l 2,237,238
 549 182 549 182 549 180 c 1,239,-1
 547 180 l 2,240,241
 545 180 545 180 545 178 c 2,242,-1
 545 176 l 1,243,244
 543 176 543 176 543 174 c 2,245,-1
 543 172 l 1,246,247
 541 172 541 172 541 170 c 2,248,-1
 541 168 l 1,249,250
 539 168 539 168 539 166 c 2,251,-1
 539 164 l 1,252,-1
 539 162 l 1,162,-1
578 164 m 1,253,-1
 575 164 l 1,254,-1
 578 166 l 2,255,256
 580 166 580 166 580 165 c 128,-1,257
 580 164 580 164 582 164 c 1,258,-1
 578 164 l 1,253,-1
578 172 m 2,259,260
 582 172 582 172 582 170 c 128,-1,261
 582 168 582 168 578 168 c 2,262,-1
 575 168 l 1,263,-1
 575 170 l 1,264,-1
 575 172 l 1,265,-1
 578 172 l 2,259,260
578 158 m 0,266,267
 594 158 594 158 606 152 c 1,268,-1
 608 152 l 1,269,-1
 606 152 l 1,270,-1
 606 150 l 1,271,-1
 604 147 l 1,272,-1
 606 147 l 1,273,-1
 604 145 l 1,274,275
 590 152 590 152 578 152 c 0,276,277
 567 152 567 152 553 145 c 1,278,-1
 551 145 l 1,279,-1
 551 147 l 1,280,-1
 549 150 l 1,281,-1
 551 152 l 1,282,-1
 549 152 l 1,283,284
 564 158 564 158 578 158 c 0,266,267
606 158 m 1,285,-1
 606 160 l 1,286,-1
 604 160 l 1,287,-1
 602 160 l 1,288,289
 604 158 604 158 606 158 c 1,285,-1
598 160 m 1,290,-1
 598 162 l 1,291,-1
 596 164 l 1,292,293
 596 162 596 162 594 162 c 1,294,295
 596 162 596 162 596 161 c 128,-1,296
 596 160 596 160 598 160 c 1,290,-1
590 162 m 1,297,-1
 588 164 l 1,298,-1
 584 164 l 1,299,300
 586 162 586 162 590 162 c 1,297,-1
586 166 m 1,301,-1
 586 168 l 2,302,303
 586 170 586 170 588 170 c 2,304,-1
 590 168 l 1,305,-1
 590 166 l 1,306,-1
 592 164 l 2,307,308
 594 164 594 164 594 166 c 2,309,-1
 592 168 l 1,310,311
 592 174 592 174 596 170 c 1,312,-1
 596 172 l 1,313,-1
 596 174 l 1,314,315
 592 178 592 178 586 178 c 0,316,317
 582 178 582 178 582 176 c 1,318,319
 580 176 580 176 580 174 c 1,320,321
 582 174 582 174 582 172 c 1,322,323
 584 172 584 172 584 170 c 2,324,-1
 582 166 l 1,325,-1
 580 166 l 1,326,327
 582 164 582 164 584 164 c 2,328,-1
 586 166 l 1,301,-1
604 162 m 1,329,330
 604 164 604 164 606 164 c 128,-1,331
 608 164 608 164 608 162 c 2,332,-1
 608 160 l 2,333,334
 608 158 608 158 610 158 c 1,335,-1
 610 160 l 1,336,-1
 610 164 l 2,337,338
 610 170 610 170 602 170 c 1,339,-1
 602 166 l 1,340,-1
 600 164 l 1,341,-1
 598 164 l 1,342,343
 598 162 598 162 602 162 c 2,344,-1
 604 162 l 1,329,330
580 180 m 1,345,-1
 586 180 l 2,346,347
 590 180 590 180 596 178 c 1,348,349
 588 186 588 186 582 186 c 1,350,351
 582 184 582 184 580 184 c 1,352,-1
 580 182 l 1,353,-1
 582 182 l 1,354,355
 582 180 582 180 580 180 c 1,345,-1
598 170 m 128,-1,357
 596 170 596 170 596 168 c 1,358,359
 594 168 594 168 595 167 c 128,-1,360
 596 166 596 166 598 166 c 128,-1,361
 600 166 600 166 600 168 c 128,-1,356
 600 170 600 170 598 170 c 128,-1,357
602 172 m 1,362,363
 608 172 608 172 610 170 c 1,364,365
 610 173 610 173 602 178 c 1,366,367
 602 176 602 176 600 176 c 1,368,-1
 602 174 l 1,369,-1
 602 172 l 1,362,363
614 162 m 2,370,-1
 612 162 l 1,371,-1
 612 158 l 1,372,373
 614 158 614 158 616 160 c 0,374,375
 616 162 616 162 614 162 c 2,370,-1
549 158 m 1,376,-1
 551 160 l 1,377,-1
 553 160 l 1,378,-1
 555 160 l 1,379,380
 553 158 553 158 549 158 c 1,376,-1
559 160 m 1,381,-1
 559 162 l 1,382,-1
 559 164 l 1,383,384
 561 164 561 164 561 163 c 128,-1,385
 561 162 561 162 563 162 c 1,386,-1
 559 160 l 1,381,-1
567 162 m 1,387,-1
 569 164 l 1,388,-1
 571 164 l 1,389,390
 569 162 569 162 567 162 c 1,387,-1
571 166 m 1,391,-1
 571 168 l 1,392,-1
 569 170 l 1,393,-1
 565 168 l 1,394,-1
 567 166 l 2,395,396
 567 164 567 164 563 164 c 0,397,398
 561 164 561 164 561 166 c 1,399,-1
 563 166 l 2,400,401
 565 168 565 168 563 168 c 0,402,403
 562 170 562 170 561 170 c 1,404,-1
 561 172 l 1,405,-1
 559 172 l 1,406,-1
 561 174 l 2,407,408
 565 178 565 178 571 178 c 0,409,410
 575 178 575 178 575 176 c 2,411,-1
 575 174 l 1,412,-1
 578 174 l 1,413,414
 575 174 575 174 575 172 c 1,415,-1
 573 172 l 1,416,-1
 573 170 l 1,417,-1
 573 168 l 1,418,-1
 575 168 l 1,419,-1
 575 166 l 2,420,421
 575 164 575 164 573 164 c 2,422,-1
 571 166 l 1,391,-1
553 162 m 1,423,424
 553 164 553 164 551 164 c 128,-1,425
 549 164 549 164 549 162 c 2,426,-1
 549 160 l 1,427,-1
 547 158 l 1,428,-1
 545 158 l 1,429,-1
 547 158 l 1,430,-1
 547 160 l 2,431,432
 547 162 547 162 545 164 c 0,433,434
 546 170 546 170 555 170 c 1,435,436
 555 168 555 168 554 168 c 128,-1,437
 553 168 553 168 553 166 c 0,438,439
 555 164 555 164 557 164 c 1,440,441
 557 162 557 162 555 162 c 2,442,-1
 553 162 l 1,423,424
575 180 m 1,443,-1
 571 180 l 2,444,445
 567 180 567 180 561 178 c 1,446,447
 566 186 566 186 575 186 c 1,448,-1
 575 184 l 1,449,-1
 575 182 l 1,450,-1
 575 180 l 1,443,-1
559 170 m 128,-1,452
 561 170 561 170 561 168 c 128,-1,453
 561 166 561 166 559 166 c 128,-1,454
 557 166 557 166 557 168 c 128,-1,451
 557 170 557 170 559 170 c 128,-1,452
553 172 m 1,455,456
 549 172 549 172 547 170 c 1,457,458
 547 173 547 173 555 178 c 1,459,-1
 555 176 l 1,460,-1
 553 174 l 1,461,-1
 553 172 l 1,455,456
541 162 m 1,462,-1
 545 162 l 1,463,-1
 545 158 l 1,464,465
 541 158 541 158 541 160 c 2,466,-1
 541 162 l 1,462,-1
586 117 m 1,467,-1
 578 109 l 1,468,-1
 571 117 l 1,469,-1
 578 117 l 1,470,-1
 586 117 l 1,467,-1
578 143 m 128,-1,472
 556 143 556 143 541 128 c 128,-1,473
 526 113 526 113 526 90 c 0,474,475
 526 68 526 68 541 53 c 0,476,477
 555 39 555 39 578 39 c 128,-1,478
 601 39 601 39 615 53 c 0,479,480
 631 69 631 69 631 90 c 0,481,482
 631 112 631 112 615 128 c 0,483,471
 600 143 600 143 578 143 c 128,-1,472
EndSplineSet
EndChar

StartChar: A
Encoding: 65 65 26
AltUni2: 000061.ffffffff.0 000061.ffffffff.0
Width: 823
GlyphClass: 2
Flags: W
LayerCount: 2
Fore
SplineSet
342 1081 m 2,0,-1
 561 862 l 1,1,-1
 565 862 l 1,2,-1
 565 864 l 1,3,-1
 565 1212 l 2,4,5
 565 1225 565 1225 553 1225 c 2,6,-1
 483 1225 l 2,7,8
 471 1225 471 1225 455 1214 c 2,9,-1
 342 1102 l 2,10,11
 332 1092 332 1092 342 1081 c 2,0,-1
745 1432 m 1,12,-1
 758 1432 l 2,13,14
 772 1432 772 1432 772 1417 c 2,15,-1
 772 1405 l 1,16,-1
 772 360 l 1,17,-1
 262 870 l 1,18,-1
 260 870 l 1,19,-1
 258 868 l 1,20,-1
 258 14 l 2,21,22
 258 0 258 0 244 0 c 2,23,-1
 66 0 l 2,24,25
 51 0 51 0 51 14 c 2,26,-1
 51 1085 l 2,27,28
 51 1102 51 1102 63 1114 c 2,29,-1
 369 1419 l 2,30,31
 382 1432 382 1432 397 1432 c 2,32,-1
 745 1432 l 1,12,-1
772 324 m 1,33,-1
 772 14 l 2,34,35
 772 0 772 0 758 0 c 2,36,-1
 580 0 l 2,37,38
 565 0 565 0 565 14 c 2,39,-1
 565 530 l 1,40,-1
 772 324 l 1,33,-1
EndSplineSet
EndChar

StartChar: B
Encoding: 66 66 27
AltUni2: 000062.ffffffff.0 000062.ffffffff.0
Width: 819
GlyphClass: 2
Flags: W
LayerCount: 2
Fore
SplineSet
63 1432 m 2,0,-1
 754 1432 l 2,1,2
 768 1432 768 1432 768 1417 c 2,3,-1
 768 815 l 2,4,5
 768 801 768 801 754 801 c 2,6,-1
 416 801 l 2,7,8
 414 801 414 801 412 799 c 0,9,10
 412 797 412 797 414 797 c 2,11,-1
 756 453 l 2,12,13
 768 441 768 441 768 424 c 2,14,-1
 768 14 l 2,15,16
 768 0 768 0 754 0 c 2,17,-1
 63 0 l 2,18,19
 51 0 51 0 51 14 c 2,20,-1
 51 829 l 1,21,-1
 256 625 l 1,22,-1
 256 219 l 2,23,24
 256 205 256 205 270 205 c 2,25,-1
 549 205 l 2,26,27
 561 205 561 205 561 219 c 2,28,-1
 561 338 l 2,29,30
 561 355 561 355 549 367 c 2,31,-1
 51 866 l 1,32,-1
 51 1417 l 2,33,34
 51 1432 51 1432 63 1432 c 2,0,-1
561 1020 m 2,35,-1
 561 1212 l 2,36,37
 561 1225 561 1225 549 1225 c 2,38,-1
 270 1225 l 2,39,40
 256 1225 256 1225 256 1212 c 2,41,-1
 256 1020 l 2,42,43
 256 1008 256 1008 270 1008 c 2,44,-1
 549 1008 l 2,45,46
 561 1008 561 1008 561 1020 c 2,35,-1
EndSplineSet
EndChar

StartChar: C
Encoding: 67 67 28
AltUni2: 000063.ffffffff.0 000063.ffffffff.0
Width: 821
GlyphClass: 2
Flags: W
LayerCount: 2
Fore
SplineSet
51 1149 m 2,0,1
 51 1166 51 1166 63 1178 c 2,2,-1
 305 1419 l 2,3,4
 318 1432 318 1432 334 1432 c 2,5,-1
 756 1432 l 2,6,7
 770 1432 770 1432 770 1417 c 2,8,-1
 770 1239 l 2,9,10
 770 1227 770 1227 756 1227 c 2,11,-1
 420 1227 l 2,12,13
 402 1227 402 1227 389 1214 c 2,14,-1
 51 874 l 1,15,-1
 51 1149 l 2,0,1
256 1044 m 1,16,-1
 256 369 l 2,17,18
 256 348 256 348 268 340 c 2,19,-1
 389 217 l 2,20,21
 403 207 403 207 420 207 c 2,22,-1
 756 207 l 2,23,24
 770 207 770 207 770 193 c 2,25,-1
 770 14 l 2,26,27
 770 0 770 0 756 0 c 2,28,-1
 334 0 l 2,29,30
 317 0 317 0 305 12 c 2,31,-1
 63 254 l 2,32,33
 51 266 51 266 51 283 c 2,34,-1
 51 838 l 1,35,-1
 256 1044 l 1,16,-1
EndSplineSet
EndChar

StartChar: D
Encoding: 68 68 29
AltUni2: 000064.ffffffff.0 000064.ffffffff.0
Width: 821
GlyphClass: 2
Flags: W
LayerCount: 2
Fore
SplineSet
770 1149 m 2,0,-1
 770 283 l 2,1,2
 770 266 770 266 758 254 c 2,3,-1
 516 12 l 2,4,5
 504 0 504 0 487 0 c 2,6,-1
 63 0 l 2,7,8
 51 0 51 0 51 14 c 2,9,-1
 51 1417 l 2,10,11
 51 1432 51 1432 63 1432 c 2,12,-1
 487 1432 l 2,13,14
 503 1432 503 1432 516 1419 c 2,15,-1
 758 1178 l 2,16,17
 770 1166 770 1166 770 1149 c 2,0,-1
270 207 m 2,18,-1
 401 207 l 2,19,20
 420 207 420 207 430 217 c 2,21,-1
 553 340 l 2,22,23
 563 350 563 350 563 369 c 2,24,-1
 563 1063 l 2,25,26
 563 1080 563 1080 553 1094 c 2,27,-1
 430 1214 l 2,28,29
 419 1227 419 1227 401 1227 c 2,30,-1
 270 1227 l 2,31,32
 256 1227 256 1227 256 1212 c 2,33,-1
 256 219 l 2,34,35
 256 207 256 207 270 207 c 2,18,-1
EndSplineSet
EndChar

StartChar: E
Encoding: 69 69 30
AltUni2: 000065.ffffffff.0 000065.ffffffff.0
Width: 821
GlyphClass: 2
Flags: W
LayerCount: 2
Fore
SplineSet
51 1149 m 2,0,1
 51 1164 51 1164 61 1178 c 2,2,-1
 305 1419 l 2,3,4
 313 1432 313 1432 334 1432 c 2,5,-1
 608 1432 l 1,6,-1
 268 1092 l 2,7,8
 256 1080 256 1080 256 1063 c 2,9,-1
 256 1022 l 2,10,11
 256 1008 256 1008 270 1008 c 2,12,-1
 756 1008 l 2,13,14
 770 1008 770 1008 770 993 c 2,15,-1
 770 815 l 2,16,17
 770 801 770 801 756 801 c 2,18,-1
 270 801 l 2,19,20
 256 801 256 801 256 788 c 2,21,-1
 256 369 l 2,22,23
 256 350 256 350 268 338 c 2,24,-1
 389 217 l 2,25,26
 401 205 401 205 420 205 c 2,27,-1
 756 205 l 2,28,29
 770 205 770 205 770 193 c 2,30,-1
 770 12 l 2,31,32
 770 0 770 0 756 0 c 2,33,-1
 334 0 l 2,34,35
 312 0 312 0 305 12 c 2,36,-1
 61 254 l 2,37,38
 51 268 51 268 51 283 c 2,39,-1
 51 1149 l 2,0,1
645 1432 m 1,40,-1
 756 1432 l 2,41,42
 770 1432 770 1432 770 1417 c 2,43,-1
 770 1239 l 2,44,45
 770 1225 770 1225 756 1225 c 2,46,-1
 438 1225 l 1,47,-1
 645 1432 l 1,40,-1
EndSplineSet
EndChar

StartChar: F
Encoding: 70 70 31
AltUni2: 000066.ffffffff.0 000066.ffffffff.0
Width: 821
GlyphClass: 2
Flags: W
LayerCount: 2
Fore
SplineSet
51 1149 m 2,0,1
 51 1164 51 1164 61 1178 c 2,2,-1
 305 1419 l 2,3,4
 313 1432 313 1432 334 1432 c 2,5,-1
 608 1432 l 1,6,-1
 268 1092 l 2,7,8
 256 1080 256 1080 256 1063 c 2,9,-1
 256 1022 l 2,10,11
 256 1008 256 1008 270 1008 c 2,12,-1
 756 1008 l 2,13,14
 770 1008 770 1008 770 993 c 2,15,-1
 770 815 l 2,16,17
 770 801 770 801 756 801 c 2,18,-1
 270 801 l 2,19,20
 256 801 256 801 256 788 c 2,21,-1
 256 12 l 2,22,23
 256 0 256 0 242 0 c 2,24,-1
 63 0 l 2,25,26
 51 0 51 0 51 12 c 2,27,-1
 51 1149 l 2,0,1
645 1432 m 1,28,-1
 756 1432 l 2,29,30
 770 1432 770 1432 770 1417 c 2,31,-1
 770 1239 l 2,32,33
 770 1225 770 1225 756 1225 c 2,34,-1
 438 1225 l 1,35,-1
 645 1432 l 1,28,-1
EndSplineSet
EndChar

StartChar: G
Encoding: 71 71 32
AltUni2: 000067.ffffffff.0 000067.ffffffff.0
Width: 821
GlyphClass: 2
Flags: W
LayerCount: 2
Fore
SplineSet
51 1149 m 2,0,1
 51 1164 51 1164 61 1178 c 2,2,-1
 305 1419 l 2,3,4
 313 1432 313 1432 334 1432 c 2,5,-1
 756 1432 l 2,6,7
 770 1432 770 1432 770 1417 c 2,8,-1
 770 1239 l 2,9,10
 770 1225 770 1225 756 1225 c 2,11,-1
 420 1225 l 2,12,13
 402 1225 402 1225 389 1212 c 2,14,-1
 256 1079 l 1,15,-1
 256 369 l 2,16,17
 256 350 256 350 268 338 c 2,18,-1
 389 217 l 2,19,20
 401 205 401 205 420 205 c 2,21,-1
 551 205 l 2,22,23
 563 205 563 205 563 219 c 2,24,-1
 563 463 l 1,25,-1
 770 256 l 1,26,-1
 770 12 l 2,27,28
 770 0 770 0 756 0 c 2,29,-1
 334 0 l 2,30,31
 312 0 312 0 305 12 c 2,32,-1
 61 254 l 2,33,34
 51 268 51 268 51 283 c 2,35,-1
 51 1149 l 2,0,1
406 657 m 2,36,37
 393 670 393 670 393 686 c 2,38,-1
 393 788 l 2,39,40
 393 803 393 803 408 803 c 2,41,-1
 537 803 l 2,42,43
 553 803 553 803 565 791 c 2,44,-1
 758 596 l 2,45,46
 770 584 770 584 770 567 c 2,47,-1
 770 293 l 1,48,-1
 406 657 l 2,36,37
EndSplineSet
EndChar

StartChar: H
Encoding: 72 72 33
AltUni2: 000068.ffffffff.0 000068.ffffffff.0
Width: 817
GlyphClass: 2
Flags: W
LayerCount: 2
Fore
SplineSet
754 1432 m 2,0,1
 766 1432 766 1432 766 1417 c 2,2,-1
 771 650 l 1,3,-1
 254 651 l 2,4,5
 253 651 253 651 254 579 c 2,6,-1
 254 528 l 1,7,-1
 256 14 l 2,8,9
 256 0 256 0 244 0 c 2,10,-1
 63 0 l 2,11,12
 51 0 51 0 51 14 c 2,13,-1
 51 1417 l 2,14,15
 51 1432 51 1432 63 1432 c 2,16,-1
 244 1432 l 2,17,18
 256 1432 256 1432 256 1417 c 4,19,20
 256 827 256 827 251.903213837 828.56270034 c 132,-1,21
 247.806427674 830.12540068 247.806427674 830.12540068 561 826 c 1,22,23
 561 1120 561 1120 561 1417 c 0,24,25
 561 1432 561 1432 573 1432 c 2,26,-1
 754 1432 l 2,0,1
766 622 m 1,27,-1
 766 14 l 2,28,29
 766 0 766 0 754 0 c 2,30,-1
 573 0 l 2,31,32
 560.52306425 3.49720252757e-15 560.52306425 3.49720252757e-15 560 14 c 2,33,-1
 560 622 l 1,34,-1
 766 622 l 1,27,-1
EndSplineSet
EndChar

StartChar: I
Encoding: 73 73 34
AltUni2: 000069.ffffffff.0 000069.ffffffff.0
Width: 309
GlyphClass: 2
Flags: W
LayerCount: 2
Fore
SplineSet
66 1432 m 2,0,-1
 244 1432 l 2,1,2
 258 1432 258 1432 258 1417 c 2,3,-1
 258 14 l 2,4,5
 258 0 258 0 244 0 c 2,6,-1
 66 0 l 2,7,8
 51 0 51 0 51 14 c 2,9,-1
 51 1417 l 2,10,11
 51 1432 51 1432 66 1432 c 2,0,-1
EndSplineSet
EndChar

StartChar: J
Encoding: 74 74 35
AltUni2: 00006a.ffffffff.0 00006a.ffffffff.0
Width: 684
GlyphClass: 2
Flags: W
LayerCount: 2
Fore
SplineSet
633 1417 m 2,0,-1
 633 283 l 2,1,2
 633 266 633 266 621 254 c 2,3,-1
 379 12 l 2,4,5
 367 0 367 0 350 0 c 2,6,-1
 66 0 l 2,7,8
 51 0 51 0 51 14 c 2,9,-1
 51 193 l 2,10,11
 51 207 51 207 66 207 c 2,12,-1
 264 207 l 2,13,14
 279 207 279 207 293 217 c 2,15,-1
 414 340 l 2,16,17
 426 348 426 348 426 369 c 2,18,-1
 426 1212 l 2,19,20
 426 1227 426 1227 412 1227 c 2,21,-1
 197 1227 l 2,22,23
 182 1227 182 1227 182 1239 c 2,24,-1
 182 1417 l 2,25,26
 182 1432 182 1432 197 1432 c 2,27,-1
 618 1432 l 2,28,29
 633 1432 633 1432 633 1417 c 2,0,-1
EndSplineSet
EndChar

StartChar: K
Encoding: 75 75 36
AltUni2: 00006b.ffffffff.0 00006b.ffffffff.0
Width: 823
GlyphClass: 2
Flags: W
LayerCount: 2
Fore
SplineSet
244 1432 m 2,0,1
 258 1432 258 1432 258 1417 c 2,2,-1
 258 1073 l 1,3,-1
 260 1071 l 1,4,-1
 262 1071 l 1,5,-1
 610 1419 l 2,6,7
 623 1432 623 1432 641 1432 c 2,8,-1
 758 1432 l 2,9,10
 772 1432 772 1432 772 1417 c 2,11,-1
 772 1307 l 2,12,13
 772 1288 772 1288 760 1276 c 2,14,-1
 354 872 l 2,15,16
 344 862 344 862 354 852 c 2,17,-1
 760 449 l 2,18,19
 772 437 772 437 772 418 c 2,20,-1
 772 14 l 2,21,22
 772 0 772 0 758 0 c 2,23,-1
 580 0 l 2,24,25
 565 0 565 0 565 14 c 2,26,-1
 565 334 l 2,27,28
 565 350 565 350 553 362 c 2,29,-1
 51 864 l 1,30,-1
 51 1417 l 2,31,32
 51 1432 51 1432 66 1432 c 2,33,-1
 244 1432 l 2,0,1
258 621 m 1,34,-1
 258 14 l 2,35,36
 258 0 258 0 244 0 c 2,37,-1
 66 0 l 2,38,39
 51 0 51 0 51 14 c 2,40,-1
 51 827 l 1,41,-1
 258 621 l 1,34,-1
EndSplineSet
EndChar

StartChar: L
Encoding: 76 76 37
AltUni2: 00006c.ffffffff.0 00006c.ffffffff.0
Width: 724
GlyphClass: 2
Flags: W
LayerCount: 2
Fore
SplineSet
244 1432 m 2,0,1
 258 1432 258 1432 258 1417 c 2,2,-1
 258 219 l 2,3,4
 258 207 258 207 270 207 c 2,5,-1
 659 207 l 2,6,7
 674 207 674 207 674 193 c 2,8,-1
 674 14 l 2,9,10
 674 0 674 0 659 0 c 2,11,-1
 66 0 l 2,12,13
 51 0 51 0 51 14 c 2,14,-1
 51 1417 l 2,15,16
 51 1432 51 1432 66 1432 c 2,17,-1
 244 1432 l 2,0,1
EndSplineSet
EndChar

StartChar: M
Encoding: 77 77 38
AltUni2: 00006d.ffffffff.0 00006d.ffffffff.0
Width: 1017
GlyphClass: 2
Flags: W
LayerCount: 2
Fore
SplineSet
760 1432 m 1,0,-1
 860 1432 l 1,1,-1
 952 1432 l 2,2,3
 967 1432 967 1432 967 1417 c 2,4,-1
 967 12 l 2,5,6
 967 0 967 0 952 0 c 2,7,-1
 774 0 l 2,8,9
 760 0 760 0 760 12 c 2,10,-1
 760 1212 l 2,11,12
 760 1225 760 1225 745 1225 c 2,13,-1
 625 1225 l 2,14,15
 612 1225 612 1225 612 1212 c 2,16,-1
 612 819 l 2,17,18
 612 807 612 807 598 807 c 2,19,-1
 420 807 l 2,20,21
 406 807 406 807 406 819 c 2,22,-1
 406 1190 l 1,23,-1
 647 1432 l 1,24,-1
 760 1432 l 1,0,-1
66 0 m 2,25,-1
 244 0 l 2,26,27
 258 0 258 0 258 12 c 2,28,-1
 258 1067 l 2,29,30
 258 1079 258 1079 264 1085 c 2,31,-1
 610 1432 l 1,32,-1
 330 1432 l 2,33,34
 318 1432 318 1432 311 1423 c 2,35,-1
 59 1171 l 2,36,37
 51 1163 51 1163 51 1151 c 2,38,-1
 51 12 l 2,39,40
 51 0 51 0 66 0 c 2,25,-1
EndSplineSet
EndChar

StartChar: N
Encoding: 78 78 39
AltUni2: 00006e.ffffffff.0 00006e.ffffffff.0
Width: 821
GlyphClass: 2
Flags: W
LayerCount: 2
Fore
SplineSet
66 0 m 2,0,1
 51 0 51 0 51 12 c 2,2,-1
 51 1151 l 2,3,4
 51 1163 51 1163 59 1171 c 2,5,-1
 311 1423 l 2,6,7
 320 1432 320 1432 332 1432 c 2,8,-1
 610 1432 l 1,9,-1
 266 1085 l 2,10,11
 258 1079 258 1079 258 1067 c 2,12,-1
 258 12 l 2,13,14
 258 0 258 0 244 0 c 2,15,-1
 66 0 l 2,0,1
758 1432 m 2,16,17
 770 1432 770 1432 770 1417 c 2,18,-1
 770 12 l 2,19,20
 770 0 770 0 758 0 c 2,21,-1
 580 0 l 2,22,23
 565 0 565 0 565 12 c 2,24,-1
 565 1212 l 2,25,26
 565 1225 565 1225 551 1225 c 2,27,-1
 442 1225 l 1,28,-1
 647 1432 l 1,29,-1
 758 1432 l 2,16,17
EndSplineSet
EndChar

StartChar: O
Encoding: 79 79 40
AltUni2: 00006f.ffffffff.0 00006f.ffffffff.0
Width: 872
GlyphClass: 2
Flags: W
LayerCount: 2
Fore
SplineSet
51 1149 m 2,0,1
 51 1166 51 1166 63 1178 c 2,2,-1
 305 1419 l 2,3,4
 318 1432 318 1432 334 1432 c 2,5,-1
 539 1432 l 2,6,7
 554 1432 554 1432 567 1419 c 2,8,-1
 809 1178 l 2,9,10
 821 1166 821 1166 821 1149 c 2,11,-1
 821 283 l 2,12,13
 821 266 821 266 809 254 c 2,14,-1
 567 12 l 2,15,16
 555 0 555 0 539 0 c 2,17,-1
 334 0 l 2,18,19
 317 0 317 0 305 12 c 2,20,-1
 63 254 l 2,21,22
 51 266 51 266 51 283 c 2,23,-1
 51 838 l 1,24,-1
 258 1042 l 1,25,-1
 258 369 l 2,26,27
 258 350 258 350 270 338 c 2,28,-1
 391 217 l 2,29,30
 403 205 403 205 420 205 c 2,31,-1
 453 205 l 2,32,33
 469 205 469 205 481 217 c 2,34,-1
 602 338 l 2,35,36
 614 350 614 350 614 369 c 2,37,-1
 614 1063 l 2,38,39
 614 1080 614 1080 602 1092 c 2,40,-1
 481 1212 l 2,41,42
 468 1225 468 1225 453 1225 c 2,43,-1
 420 1225 l 2,44,45
 404 1225 404 1225 391 1212 c 2,46,-1
 51 874 l 1,47,-1
 51 1149 l 2,0,1
EndSplineSet
EndChar

StartChar: P
Encoding: 80 80 41
AltUni2: 000070.ffffffff.0 000070.ffffffff.0
Width: 827
GlyphClass: 2
Flags: W
LayerCount: 2
Fore
SplineSet
51 1149 m 2,0,1
 51 1166 51 1166 63 1178 c 2,2,-1
 305 1419 l 2,3,4
 318 1432 318 1432 336 1432 c 2,5,-1
 762 1432 l 2,6,7
 776 1432 776 1432 776 1417 c 2,8,-1
 776 1012 l 2,9,10
 776 995 776 995 764 983 c 2,11,-1
 414 633 l 2,12,13
 404 622 404 622 393 633 c 2,14,-1
 268 758 l 2,15,16
 258 768 258 768 268 778 c 2,17,-1
 557 1069 l 2,18,19
 569 1081 569 1081 569 1098 c 2,20,-1
 569 1212 l 2,21,22
 569 1225 569 1225 557 1225 c 2,23,-1
 420 1225 l 2,24,25
 404 1225 404 1225 391 1212 c 2,26,-1
 51 874 l 1,27,-1
 51 1149 l 2,0,1
258 12 m 2,28,29
 258 0 258 0 244 0 c 2,30,-1
 66 0 l 2,31,32
 51 0 51 0 51 12 c 2,33,-1
 51 838 l 1,34,-1
 258 1042 l 1,35,-1
 258 12 l 2,28,29
EndSplineSet
EndChar

StartChar: Q
Encoding: 81 81 42
AltUni2: 000071.ffffffff.0 000071.ffffffff.0
Width: 872
GlyphClass: 2
Flags: W
LayerCount: 2
Fore
SplineSet
821 283 m 2,0,1
 821 266 821 266 809 254 c 2,2,-1
 764 209 l 1,3,-1
 854 117 l 2,4,5
 858 113 858 113 858 108 c 0,6,7
 858 102 858 102 854 98 c 2,8,-1
 727 -29 l 2,9,10
 720 -40 720 -40 709 -29 c 2,11,-1
 377 303 l 2,12,13
 366 314 366 314 377 324 c 2,14,-1
 504 449 l 2,15,16
 512 460 512 460 522 449 c 2,17,-1
 614 356 l 1,18,-1
 614 1063 l 2,19,20
 614 1080 614 1080 602 1092 c 2,21,-1
 481 1212 l 2,22,23
 468 1225 468 1225 453 1225 c 2,24,-1
 420 1225 l 2,25,26
 402 1225 402 1225 389 1212 c 2,27,-1
 268 1092 l 2,28,29
 256 1080 256 1080 256 1063 c 2,30,-1
 256 369 l 2,31,32
 256 350 256 350 268 338 c 2,33,-1
 389 217 l 2,34,35
 401 205 401 205 420 205 c 2,36,-1
 438 205 l 1,37,-1
 600 43 l 1,38,-1
 567 12 l 2,39,40
 555 0 555 0 537 0 c 2,41,-1
 334 0 l 2,42,43
 317 0 317 0 305 12 c 2,44,-1
 63 254 l 2,45,46
 51 266 51 266 51 283 c 2,47,-1
 51 1149 l 2,48,49
 51 1166 51 1166 63 1178 c 2,50,-1
 305 1419 l 2,51,52
 318 1432 318 1432 334 1432 c 2,53,-1
 537 1432 l 2,54,55
 554 1432 554 1432 567 1419 c 2,56,-1
 809 1178 l 2,57,58
 821 1166 821 1166 821 1149 c 2,59,-1
 821 283 l 2,0,1
EndSplineSet
EndChar

StartChar: R
Encoding: 82 82 43
AltUni2: 000072.ffffffff.0 000072.ffffffff.0
Width: 819
GlyphClass: 2
Flags: W
LayerCount: 2
Fore
SplineSet
766 1053 m 2,0,-1
 766 721 l 2,1,2
 766 707 766 707 752 707 c 2,3,-1
 403 707 l 2,4,5
 401 707 401 707 401 705 c 2,6,-1
 401 702 l 1,7,-1
 754 350 l 2,8,9
 766 338 766 338 766 319 c 2,10,-1
 766 12 l 2,11,12
 766 0 766 0 752 0 c 2,13,-1
 573 0 l 2,14,15
 561 0 561 0 561 12 c 2,16,-1
 561 236 l 2,17,18
 561 252 561 252 549 264 c 2,19,-1
 51 762 l 1,20,-1
 51 1417 l 2,21,22
 51 1432 51 1432 63 1432 c 2,23,-1
 387 1432 l 2,24,25
 405 1432 405 1432 416 1419 c 2,26,-1
 754 1081 l 2,27,28
 766 1069 766 1069 766 1053 c 2,0,-1
256 518 m 1,29,-1
 256 12 l 2,30,31
 256 0 256 0 244 0 c 2,32,-1
 63 0 l 2,33,34
 51 0 51 0 51 12 c 2,35,-1
 51 725 l 1,36,-1
 256 518 l 1,29,-1
561 928 m 2,37,-1
 561 967 l 2,38,39
 561 984 561 984 549 995 c 2,40,-1
 332 1212 l 2,41,42
 319 1225 319 1225 301 1225 c 2,43,-1
 270 1225 l 2,44,45
 256 1225 256 1225 256 1212 c 2,46,-1
 256 928 l 2,47,48
 256 913 256 913 270 913 c 2,49,-1
 547 913 l 2,50,51
 561 913 561 913 561 928 c 2,37,-1
EndSplineSet
EndChar

StartChar: S
Encoding: 83 83 44
AltUni2: 000073.ffffffff.0 000073.ffffffff.0
Width: 823
GlyphClass: 2
Flags: W
LayerCount: 2
Fore
SplineSet
53 1149 m 2,0,1
 53 1165 53 1165 66 1178 c 2,2,-1
 307 1419 l 2,3,4
 320 1432 320 1432 336 1432 c 2,5,-1
 760 1432 l 2,6,7
 772 1432 772 1432 772 1417 c 2,8,-1
 772 1239 l 2,9,10
 772 1225 772 1225 760 1225 c 2,11,-1
 422 1225 l 2,12,13
 404 1225 404 1225 391 1212 c 2,14,-1
 53 874 l 1,15,-1
 53 1149 l 2,0,1
63 205 m 2,16,-1
 553 205 l 2,17,18
 567 205 567 205 567 219 c 2,19,-1
 567 694 l 2,20,21
 567 707 567 707 553 707 c 2,22,-1
 68 707 l 2,23,24
 53 707 53 707 53 721 c 2,25,-1
 53 838 l 1,26,-1
 258 1042 l 1,27,-1
 258 928 l 2,28,29
 258 913 258 913 272 913 c 2,30,-1
 760 913 l 2,31,32
 772 913 772 913 772 899 c 2,33,-1
 772 12 l 2,34,35
 772 0 772 0 760 0 c 2,36,-1
 63 0 l 2,37,38
 51 0 51 0 51 12 c 2,39,-1
 51 193 l 2,40,41
 51 205 51 205 63 205 c 2,16,-1
EndSplineSet
EndChar

StartChar: T
Encoding: 84 84 45
AltUni2: 000074.ffffffff.0 000074.ffffffff.0
Width: 743
GlyphClass: 2
Flags: W
LayerCount: 2
Fore
SplineSet
680 1432 m 2,0,1
 692 1432 692 1432 692 1417 c 2,2,-1
 692 1239 l 2,3,4
 692 1225 692 1225 680 1225 c 2,5,-1
 489 1225 l 2,6,7
 475 1225 475 1225 475 1212 c 2,8,-1
 475 12 l 2,9,10
 475 0 475 0 461 0 c 2,11,-1
 283 0 l 2,12,13
 268 0 268 0 268 12 c 2,14,-1
 268 1212 l 2,15,16
 268 1225 268 1225 256 1225 c 2,17,-1
 66 1225 l 2,18,19
 51 1225 51 1225 51 1239 c 2,20,-1
 51 1417 l 2,21,22
 51 1432 51 1432 66 1432 c 2,23,-1
 680 1432 l 2,0,1
EndSplineSet
EndChar

StartChar: U
Encoding: 85 85 46
AltUni2: 000075.ffffffff.0 000075.ffffffff.0
Width: 821
GlyphClass: 2
Flags: W
LayerCount: 2
Fore
SplineSet
244 1432 m 2,0,1
 258 1432 258 1432 258 1417 c 2,2,-1
 258 219 l 2,3,4
 258 205 258 205 270 205 c 2,5,-1
 551 205 l 2,6,7
 563 205 563 205 563 219 c 2,8,-1
 563 1417 l 2,9,10
 563 1432 563 1432 578 1432 c 2,11,-1
 756 1432 l 2,12,13
 770 1432 770 1432 770 1417 c 2,14,-1
 770 12 l 2,15,16
 770 0 770 0 756 0 c 2,17,-1
 66 0 l 2,18,19
 51 0 51 0 51 12 c 2,20,-1
 51 1417 l 2,21,22
 51 1432 51 1432 66 1432 c 2,23,-1
 244 1432 l 2,0,1
EndSplineSet
EndChar

StartChar: V
Encoding: 86 86 47
AltUni2: 000076.ffffffff.0 000076.ffffffff.0
Width: 874
GlyphClass: 2
Flags: W
LayerCount: 2
Fore
SplineSet
606 453 m 2,0,1
 616 467 616 467 616 483 c 2,2,-1
 616 1417 l 2,3,4
 616 1432 616 1432 631 1432 c 2,5,-1
 809 1432 l 2,6,7
 823 1432 823 1432 823 1417 c 2,8,-1
 823 397 l 2,9,10
 823 381 823 381 811 369 c 2,11,-1
 446 4 l 2,12,13
 436 -6 436 -6 428 4 c 2,14,-1
 291 139 l 1,15,-1
 606 453 l 2,0,1
272 158 m 1,16,-1
 61 369 l 2,17,18
 51 383 51 383 51 397 c 2,19,-1
 51 1417 l 2,20,21
 51 1432 51 1432 63 1432 c 2,22,-1
 242 1432 l 2,23,24
 256 1432 256 1432 256 1417 c 2,25,-1
 256 483 l 2,26,27
 256 465 256 465 268 453 c 2,28,-1
 418 303 l 1,29,-1
 272 158 l 1,16,-1
EndSplineSet
EndChar

StartChar: W
Encoding: 87 87 48
AltUni2: 000077.ffffffff.0 000077.ffffffff.0
Width: 1298
GlyphClass: 2
Flags: W
LayerCount: 2
Fore
SplineSet
63 1432 m 2,0,-1
 244 1432 l 2,1,2
 256 1432 256 1432 256 1417 c 2,3,-1
 256 219 l 2,4,5
 256 205 256 205 270 205 c 2,6,-1
 297 205 l 2,7,8
 316 205 316 205 328 217 c 2,9,-1
 537 426 l 2,10,11
 549 438 549 438 549 457 c 2,12,-1
 549 969 l 2,13,14
 549 983 549 983 561 983 c 2,15,-1
 741 983 l 2,16,17
 754 983 754 983 754 969 c 2,18,-1
 754 354 l 1,19,-1
 412 12 l 2,20,21
 400 0 400 0 383 0 c 2,22,-1
 63 0 l 2,23,24
 51 0 51 0 51 12 c 2,25,-1
 51 1417 l 2,26,27
 51 1432 51 1432 63 1432 c 2,0,-1
754 317 m 1,28,-1
 754 219 l 2,29,30
 754 205 754 205 768 205 c 2,31,-1
 795 205 l 2,32,33
 812 205 812 205 823 217 c 2,34,-1
 1030 424 l 2,35,36
 1042 436 1042 436 1042 453 c 2,37,-1
 1042 1417 l 2,38,39
 1042 1432 1042 1432 1057 1432 c 2,40,-1
 1235 1432 l 2,41,42
 1247 1432 1247 1432 1247 1417 c 2,43,-1
 1247 367 l 2,44,45
 1247 352 1247 352 1237 338 c 2,46,-1
 909 12 l 2,47,48
 897 0 897 0 881 0 c 2,49,-1
 561 0 l 2,50,51
 549 0 549 0 549 12 c 2,52,-1
 549 111 l 1,53,-1
 754 317 l 1,28,-1
EndSplineSet
EndChar

StartChar: X
Encoding: 88 88 49
AltUni2: 000078.ffffffff.0 000078.ffffffff.0
Width: 817
GlyphClass: 2
Flags: W
LayerCount: 2
Fore
SplineSet
258 635 m 1,0,-1
 258 12 l 2,1,2
 258 0 258 0 244 0 c 2,3,-1
 66 0 l 2,4,5
 51 0 51 0 51 12 c 2,6,-1
 51 430 l 1,7,-1
 258 635 l 1,0,-1
561 655 m 2,8,9
 561 672 561 672 549 684 c 2,10,-1
 418 815 l 2,11,12
 407 823 407 823 399 815 c 2,13,-1
 51 467 l 1,14,-1
 51 741 l 2,15,16
 51 758 51 758 63 770 c 2,17,-1
 184 891 l 2,18,19
 192 898 192 898 184 909 c 2,20,-1
 63 1030 l 2,21,22
 51 1042 51 1042 51 1059 c 2,23,-1
 51 1417 l 2,24,25
 51 1432 51 1432 66 1432 c 2,26,-1
 244 1432 l 2,27,28
 258 1432 258 1432 258 1417 c 2,29,-1
 258 1145 l 2,30,31
 258 1126 258 1126 270 1114 c 2,32,-1
 399 985 l 2,33,34
 403 981 403 981 409 981 c 0,35,36
 414 981 414 981 418 985 c 2,37,-1
 766 1333 l 1,38,-1
 766 1059 l 2,39,40
 766 1042 766 1042 754 1030 c 2,41,-1
 635 909 l 2,42,43
 631 905 631 905 631 900 c 128,-1,44
 631 895 631 895 635 891 c 2,45,-1
 754 770 l 2,46,47
 766 758 766 758 766 741 c 2,48,-1
 766 12 l 2,49,50
 766 0 766 0 754 0 c 2,51,-1
 573 0 l 2,52,53
 561 0 561 0 561 12 c 2,54,-1
 561 655 l 2,8,9
561 1163 m 1,55,-1
 561 1417 l 2,56,57
 561 1432 561 1432 573 1432 c 2,58,-1
 754 1432 l 2,59,60
 766 1432 766 1432 766 1417 c 2,61,-1
 766 1370 l 1,62,-1
 561 1163 l 1,55,-1
EndSplineSet
EndChar

StartChar: Y
Encoding: 89 89 50
AltUni2: 000079.ffffffff.0 000079.ffffffff.0
Width: 823
GlyphClass: 2
Flags: W
LayerCount: 2
Fore
SplineSet
524 795 m 2,0,1
 512 783 512 783 512 766 c 2,2,-1
 512 12 l 2,3,4
 512 0 512 0 500 0 c 2,5,-1
 319 0 l 2,6,7
 307 0 307 0 307 12 c 2,8,-1
 307 770 l 2,9,10
 307 787 307 787 295 799 c 2,11,-1
 63 1030 l 2,12,13
 51 1042 51 1042 51 1059 c 2,14,-1
 51 1417 l 2,15,16
 51 1432 51 1432 66 1432 c 2,17,-1
 244 1432 l 2,18,19
 256 1432 256 1432 256 1417 c 2,20,-1
 256 1145 l 2,21,22
 256 1128 256 1128 268 1116 c 2,23,-1
 557 827 l 1,24,-1
 524 795 l 2,0,1
430 991 m 1,25,-1
 553 1116 l 2,26,27
 565 1128 565 1128 565 1145 c 2,28,-1
 565 1417 l 2,29,30
 565 1432 565 1432 580 1432 c 2,31,-1
 758 1432 l 2,32,33
 772 1432 772 1432 772 1417 c 2,34,-1
 772 1059 l 2,35,36
 772 1042 772 1042 760 1030 c 2,37,-1
 575 846 l 1,38,-1
 430 991 l 1,25,-1
EndSplineSet
EndChar

StartChar: Z
Encoding: 90 90 51
AltUni2: 00007a.ffffffff.0 00007a.ffffffff.0
Width: 817
GlyphClass: 2
Flags: W
LayerCount: 2
Fore
SplineSet
51 846 m 2,0,1
 51 865 51 865 63 877 c 2,2,-1
 410 1221 l 1,3,-1
 410 1223 l 2,4,5
 410 1225 410 1225 408 1225 c 2,6,-1
 66 1225 l 2,7,8
 51 1225 51 1225 51 1239 c 2,9,-1
 51 1417 l 2,10,11
 51 1432 51 1432 66 1432 c 2,12,-1
 754 1432 l 2,13,14
 766 1432 766 1432 766 1417 c 2,15,-1
 766 1305 l 2,16,17
 766 1286 766 1286 754 1274 c 2,18,-1
 51 571 l 1,19,-1
 51 846 l 2,0,1
258 741 m 1,20,-1
 258 219 l 2,21,22
 258 205 258 205 272 205 c 2,23,-1
 754 205 l 2,24,25
 766 205 766 205 766 193 c 2,26,-1
 766 12 l 2,27,28
 766 0 766 0 754 0 c 2,29,-1
 66 0 l 2,30,31
 51 0 51 0 51 12 c 2,32,-1
 51 535 l 1,33,-1
 258 741 l 1,20,-1
EndSplineSet
EndChar

StartChar: asciicircum
Encoding: 94 94 52
Width: 903
GlyphClass: 2
Flags: W
LayerCount: 2
Fore
SplineSet
459 150 m 128,-1,1
 435 150 435 150 417 132 c 128,-1,2
 399 114 399 114 399 90 c 128,-1,3
 399 66 399 66 417 48 c 0,4,5
 434 31 434 31 459 31 c 128,-1,6
 484 31 484 31 501 48 c 128,-1,7
 518 65 518 65 518 90 c 128,-1,8
 518 115 518 115 501 132 c 0,9,0
 483 150 483 150 459 150 c 128,-1,1
457 80 m 1,10,-1
 467 80 l 1,11,-1
 467 74 l 1,12,-1
 457 74 l 1,13,-1
 457 66 l 1,14,-1
 459 66 l 2,15,16
 471 66 471 66 477 76 c 1,17,-1
 483 70 l 1,18,19
 472 59 472 59 459 59 c 2,20,-1
 457 59 l 1,21,-1
 457 51 l 1,22,-1
 451 51 l 1,23,-1
 451 59 l 1,24,25
 426 65 426 65 426 92 c 0,26,27
 426 108 426 108 438 119 c 1,28,-1
 432 125 l 1,29,30
 416 115 416 115 416 92 c 0,31,32
 416 79 416 79 424 66 c 1,33,-1
 420 59 l 1,34,35
 408 71 408 71 408 92 c 0,36,37
 408 121 408 121 434 135 c 1,38,-1
 438 129 l 1,39,-1
 446 123 l 2,40,41
 450 123 450 123 452 124 c 128,-1,42
 454 125 454 125 459 125 c 128,-1,43
 464 125 464 125 465 124 c 128,-1,44
 466 123 466 123 471 123 c 2,45,-1
 477 129 l 1,46,-1
 483 135 l 1,47,48
 508 119 508 119 508 92 c 0,49,50
 508 71 508 71 496 59 c 1,51,-1
 492 66 l 1,52,53
 500 74 500 74 500 92 c 0,54,55
 500 114 500 114 483 125 c 1,56,-1
 477 119 l 1,57,58
 480 118 480 118 485 109 c 1,59,-1
 479 104 l 1,60,61
 477 111 477 111 471 113 c 1,62,-1
 459 98 l 1,63,-1
 444 113 l 1,64,65
 432 107 432 107 432 92 c 0,66,67
 432 73 432 73 451 68 c 1,68,-1
 451 92 l 1,69,-1
 467 92 l 1,70,-1
 467 86 l 1,71,-1
 457 86 l 1,72,-1
 457 80 l 1,10,-1
477 45 m 1,73,-1
 465 57 l 1,74,75
 473 58 473 58 485 70 c 1,76,-1
 477 78 l 1,77,78
 471 68 471 68 459 68 c 1,79,-1
 459 72 l 1,80,-1
 469 72 l 1,81,-1
 469 82 l 1,82,-1
 459 82 l 1,83,-1
 459 84 l 1,84,-1
 469 84 l 1,85,-1
 469 94 l 1,86,-1
 449 94 l 1,87,-1
 449 76 l 1,88,-1
 434 90 l 1,89,-1
 434 92 l 2,90,91
 434 105 434 105 444 111 c 1,92,-1
 459 96 l 1,93,-1
 465 102 l 1,94,-1
 494 72 l 2,95,96
 492 70 492 70 492 69 c 2,97,-1
 489 66 l 1,98,-1
 487 66 l 1,99,-1
 496 57 l 1,100,101
 486 47 486 47 477 45 c 1,73,-1
424 100 m 1,102,-1
 420 104 l 1,103,104
 422 117 422 117 432 123 c 1,105,-1
 436 119 l 1,106,107
 429 113 429 113 424 100 c 1,102,-1
418 162 m 2,108,-1
 418 160 l 2,109,110
 418 158 418 158 420 156 c 2,111,-1
 424 156 l 1,112,-1
 426 156 l 1,113,-1
 428 156 l 1,114,-1
 426 156 l 1,115,-1
 428 154 l 1,116,-1
 430 154 l 1,117,118
 442 160 442 160 459 160 c 0,119,120
 470 160 470 160 487 154 c 0,121,122
 489 154 489 154 489 156 c 1,123,-1
 494 156 l 1,124,-1
 496 156 l 1,125,-1
 498 160 l 1,126,-1
 498 162 l 1,127,-1
 498 164 l 1,128,-1
 498 166 l 1,129,-1
 496 168 l 1,130,-1
 496 170 l 2,131,132
 496 172 496 172 494 172 c 1,133,-1
 494 174 l 2,134,135
 494 176 494 176 492 176 c 1,136,-1
 492 178 l 1,137,-1
 489 180 l 1,138,-1
 487 180 l 1,139,-1
 485 182 l 1,140,-1
 483 182 l 1,141,-1
 481 184 l 1,142,-1
 479 184 l 1,143,-1
 477 184 l 1,144,145
 477 188 477 188 473 188 c 1,146,-1
 473 186 l 1,147,-1
 473 188 l 2,148,149
 471 190 471 190 469 190 c 2,150,-1
 467 193 l 2,151,152
 465 193 465 193 465 190 c 1,153,-1
 463 193 l 1,154,-1
 461 193 l 2,155,156
 459 193 459 193 459 195 c 1,157,-1
 461 195 l 1,158,-1
 461 197 l 1,159,-1
 459 197 l 1,160,-1
 459 199 l 1,161,-1
 457 199 l 1,162,-1
 457 197 l 1,163,-1
 455 197 l 1,164,-1
 455 195 l 1,165,-1
 457 195 l 1,166,-1
 455 193 l 2,167,168
 453 193 453 193 453 190 c 1,169,-1
 451 193 l 2,170,171
 449 193 449 193 449 191 c 0,172,173
 449 190 449 190 446 190 c 2,174,-1
 442 188 l 1,175,-1
 442 186 l 1,176,-1
 442 188 l 1,177,178
 440 188 440 188 440 184 c 1,179,-1
 438 184 l 1,180,-1
 436 184 l 1,181,-1
 434 184 l 2,182,183
 432 184 432 184 432 182 c 1,184,-1
 430 182 l 2,185,186
 428 182 428 182 428 180 c 1,187,188
 424 180 424 180 424 178 c 2,189,-1
 424 176 l 1,190,191
 422 176 422 176 422 174 c 2,192,-1
 422 172 l 1,193,194
 420 172 420 172 420 170 c 2,195,-1
 420 168 l 1,196,197
 418 168 418 168 418 166 c 2,198,-1
 420 164 l 1,199,200
 418 164 418 164 418 162 c 2,108,-1
459 164 m 1,201,-1
 455 164 l 1,202,203
 457 164 457 164 457 165 c 128,-1,204
 457 166 457 166 459 166 c 1,205,206
 459 164 459 164 461 164 c 1,207,-1
 459 164 l 1,201,-1
459 172 m 2,208,209
 461 172 461 172 461 170 c 2,210,-1
 459 168 l 1,211,-1
 457 168 l 1,212,-1
 457 170 l 1,213,-1
 455 170 l 1,214,-1
 455 172 l 1,215,-1
 457 172 l 1,216,-1
 459 172 l 2,208,209
459 158 m 0,217,218
 470 158 470 158 487 152 c 1,219,-1
 485 152 l 1,220,-1
 487 150 l 1,221,-1
 485 147 l 2,222,223
 485 145 485 145 483 145 c 0,224,225
 469 152 469 152 459 152 c 0,226,227
 446 152 446 152 432 145 c 1,228,-1
 430 147 l 1,229,-1
 430 150 l 1,230,-1
 430 152 l 1,231,-1
 428 152 l 1,232,-1
 430 152 l 1,233,234
 442 158 442 158 459 158 c 0,217,218
485 158 m 1,235,-1
 485 160 l 1,236,-1
 483 160 l 1,237,-1
 481 160 l 1,238,-1
 485 158 l 1,235,-1
477 160 m 1,239,-1
 477 162 l 1,240,-1
 477 164 l 1,241,242
 475 164 475 164 475 163 c 128,-1,243
 475 162 475 162 473 162 c 1,244,-1
 477 160 l 1,239,-1
469 162 m 1,245,-1
 467 164 l 1,246,-1
 465 164 l 1,247,248
 465 162 465 162 469 162 c 1,245,-1
465 166 m 1,249,-1
 465 168 l 2,250,251
 465 170 465 170 467 170 c 2,252,-1
 469 168 l 1,253,-1
 469 166 l 2,254,255
 469 164 469 164 473 164 c 2,256,-1
 475 166 l 1,257,-1
 473 166 l 1,258,-1
 471 168 l 1,259,260
 473 170 473 170 475 170 c 1,261,-1
 475 172 l 1,262,-1
 477 172 l 1,263,-1
 475 174 l 2,264,265
 471 178 471 178 465 178 c 0,266,267
 461 178 461 178 461 176 c 2,268,-1
 459 174 l 1,269,270
 461 174 461 174 461 172 c 1,271,272
 463 172 463 172 463 170 c 0,273,274
 463 166 463 166 461 166 c 1,275,276
 461 164 461 164 463 164 c 2,277,-1
 465 166 l 1,249,-1
483 162 m 1,278,279
 483 164 483 164 485 164 c 128,-1,280
 487 164 487 164 487 162 c 2,281,-1
 487 160 l 1,282,-1
 489 158 l 1,283,-1
 492 158 l 1,284,-1
 489 158 l 1,285,-1
 489 160 l 2,286,287
 489 161 489 161 492 164 c 1,288,289
 488 170 488 170 481 170 c 1,290,-1
 481 166 l 2,291,292
 481 164 481 164 479 164 c 1,293,294
 479 162 479 162 481 162 c 2,295,-1
 483 162 l 1,278,279
461 180 m 1,296,-1
 465 180 l 2,297,298
 469 180 469 180 475 178 c 1,299,300
 470 186 470 186 461 186 c 1,301,-1
 461 184 l 1,302,-1
 461 182 l 1,303,-1
 461 180 l 1,296,-1
477 170 m 128,-1,305
 475 170 475 170 475 168 c 128,-1,306
 475 166 475 166 477 166 c 128,-1,307
 479 166 479 166 479 168 c 128,-1,304
 479 170 479 170 477 170 c 128,-1,305
483 172 m 1,308,309
 487 172 487 172 489 170 c 1,310,311
 489 173 489 173 481 178 c 1,312,-1
 481 176 l 1,313,-1
 483 174 l 1,314,-1
 483 172 l 1,308,309
496 162 m 1,315,-1
 492 162 l 1,316,-1
 492 158 l 1,317,318
 496 158 496 158 496 160 c 2,319,-1
 496 162 l 1,315,-1
430 158 m 1,320,-1
 430 160 l 1,321,-1
 432 160 l 1,322,-1
 434 160 l 1,323,-1
 430 158 l 1,320,-1
438 160 m 1,324,-1
 438 162 l 1,325,-1
 440 164 l 1,326,327
 440 162 440 162 442 162 c 1,328,329
 440 162 440 162 440 161 c 128,-1,330
 440 160 440 160 438 160 c 1,324,-1
446 162 m 1,331,-1
 449 164 l 1,332,-1
 453 164 l 1,333,334
 451 162 451 162 446 162 c 1,331,-1
451 166 m 1,335,-1
 451 168 l 2,336,337
 451 170 451 170 449 170 c 2,338,-1
 446 168 l 1,339,-1
 446 166 l 1,340,-1
 444 164 l 2,341,342
 442 164 442 164 442 166 c 2,343,-1
 444 168 l 1,344,345
 444 174 444 174 440 170 c 1,346,-1
 440 172 l 1,347,-1
 440 174 l 1,348,349
 444 178 444 178 451 178 c 0,350,351
 455 178 455 178 455 176 c 2,352,-1
 457 174 l 1,353,354
 455 174 455 174 455 172 c 1,355,-1
 453 172 l 1,356,-1
 453 170 l 1,357,-1
 453 168 l 1,358,-1
 455 168 l 1,359,-1
 455 166 l 1,360,-1
 457 166 l 1,361,362
 455 166 455 166 455 165 c 128,-1,363
 455 164 455 164 453 164 c 2,364,-1
 451 166 l 1,335,-1
432 162 m 1,365,366
 432 164 432 164 430 164 c 128,-1,367
 428 164 428 164 428 162 c 2,368,-1
 428 160 l 2,369,370
 428 158 428 158 426 158 c 2,371,-1
 424 158 l 1,372,-1
 426 158 l 1,373,-1
 426 160 l 1,374,-1
 426 164 l 2,375,376
 426 170 426 170 434 170 c 1,377,-1
 434 166 l 2,378,379
 434 164 434 164 436 164 c 2,380,-1
 438 164 l 1,381,382
 438 162 438 162 434 162 c 2,383,-1
 432 162 l 1,365,366
455 180 m 1,384,-1
 451 180 l 2,385,386
 446 180 446 180 440 178 c 1,387,388
 448 186 448 186 455 186 c 1,389,-1
 455 184 l 1,390,-1
 455 182 l 1,391,-1
 455 180 l 1,384,-1
438 170 m 128,-1,393
 440 170 440 170 440 168 c 128,-1,394
 440 166 440 166 438 166 c 128,-1,395
 436 166 436 166 436 168 c 128,-1,392
 436 170 436 170 438 170 c 128,-1,393
434 172 m 1,396,397
 428 172 428 172 426 170 c 1,398,399
 426 173 426 173 434 178 c 1,400,401
 434 176 434 176 436 176 c 1,402,-1
 434 174 l 1,403,-1
 434 172 l 1,396,397
422 162 m 2,404,-1
 424 162 l 1,405,-1
 424 158 l 1,406,407
 420 158 420 158 420 160 c 128,-1,408
 420 162 420 162 422 162 c 2,404,-1
465 117 m 1,409,-1
 459 109 l 1,410,-1
 451 117 l 1,411,-1
 459 117 l 1,412,-1
 465 117 l 1,409,-1
459 143 m 0,413,414
 436 143 436 143 421 128 c 128,-1,415
 406 113 406 113 406 90 c 0,416,417
 406 68 406 68 421 53 c 0,418,419
 435 39 435 39 459 39 c 0,420,421
 482 39 482 39 496 53 c 128,-1,422
 510 67 510 67 510 90 c 0,423,424
 510 114 510 114 496 128 c 0,425,426
 481 143 481 143 459 143 c 0,413,414
852 1214 m 1,427,-1
 553 1214 l 1,428,-1
 272 936 l 1,429,-1
 272 223 l 1,430,-1
 631 223 l 1,431,-1
 631 438 l 1,432,-1
 299 770 l 1,433,-1
 299 924 l 1,434,-1
 379 1004 l 1,435,-1
 852 530 l 1,436,-1
 852 86 l 1,437,-1
 766 0 l 1,438,-1
 137 0 l 1,439,-1
 51 86 l 1,440,-1
 51 1026 l 1,441,-1
 461 1436 l 1,442,-1
 852 1436 l 1,443,-1
 852 1214 l 1,427,-1
831 1235 m 1,444,-1
 831 1247 l 1,445,-1
 539 1247 l 1,446,-1
 240 948 l 1,447,-1
 240 190 l 1,448,-1
 365 190 l 1,449,-1
 365 201 l 1,450,-1
 252 201 l 1,451,-1
 252 944 l 1,452,-1
 543 1235 l 1,453,-1
 831 1235 l 1,444,-1
539 190 m 1,454,-1
 664 190 l 1,455,-1
 664 453 l 1,456,-1
 319 797 l 1,457,-1
 319 780 l 1,458,-1
 651 449 l 1,459,-1
 651 201 l 1,460,-1
 539 201 l 1,461,-1
 539 190 l 1,454,-1
831 1403 m 1,462,-1
 831 1415 l 1,463,-1
 469 1415 l 1,464,-1
 72 1018 l 1,465,-1
 72 96 l 1,466,-1
 145 23 l 1,467,-1
 365 23 l 1,468,-1
 365 33 l 1,469,-1
 152 33 l 1,470,-1
 84 100 l 1,471,-1
 84 1014 l 1,472,-1
 473 1403 l 1,473,-1
 831 1403 l 1,462,-1
539 23 m 1,474,-1
 758 23 l 1,475,-1
 831 96 l 1,476,-1
 831 522 l 1,477,-1
 379 975 l 1,478,-1
 371 967 l 1,479,-1
 819 518 l 1,480,-1
 819 100 l 1,481,-1
 752 33 l 1,482,-1
 539 33 l 1,483,-1
 539 23 l 1,474,-1
EndSplineSet
EndChar

StartChar: acute
Encoding: 180 180 53
Width: 714
GlyphClass: 2
Flags: W
LayerCount: 2
Fore
SplineSet
172 1565 m 2,0,1
 170 1565 170 1565 170 1567 c 2,2,-1
 170 1569 l 1,3,-1
 315 1772 l 2,4,5
 323 1780 323 1780 332 1780 c 2,6,-1
 543 1780 l 2,7,8
 545 1780 545 1780 547 1778 c 0,9,10
 547 1776 547 1776 545 1776 c 2,11,-1
 342 1571 l 2,12,13
 336 1565 336 1565 328 1565 c 2,14,-1
 172 1565 l 2,0,1
EndSplineSet
EndChar

StartChar: Aacute
Encoding: 193 193 54
AltUni2: 0000e1.ffffffff.0 0000e1.ffffffff.0
Width: 823
GlyphClass: 2
Flags: W
LayerCount: 2
Fore
SplineSet
342 1081 m 2,0,-1
 561 862 l 1,1,-1
 565 862 l 1,2,-1
 565 864 l 1,3,-1
 565 1212 l 2,4,5
 565 1225 565 1225 553 1225 c 2,6,-1
 483 1225 l 2,7,8
 471 1225 471 1225 455 1214 c 2,9,-1
 342 1102 l 2,10,11
 332 1092 332 1092 342 1081 c 2,0,-1
745 1432 m 1,12,-1
 758 1432 l 2,13,14
 772 1432 772 1432 772 1417 c 2,15,-1
 772 1405 l 1,16,-1
 772 360 l 1,17,-1
 262 870 l 1,18,-1
 260 870 l 1,19,-1
 258 868 l 1,20,-1
 258 14 l 2,21,22
 258 0 258 0 244 0 c 2,23,-1
 66 0 l 2,24,25
 51 0 51 0 51 14 c 2,26,-1
 51 1085 l 2,27,28
 51 1102 51 1102 63 1114 c 2,29,-1
 369 1419 l 2,30,31
 382 1432 382 1432 397 1432 c 2,32,-1
 745 1432 l 1,12,-1
772 324 m 1,33,-1
 772 14 l 2,34,35
 772 0 772 0 758 0 c 2,36,-1
 580 0 l 2,37,38
 565 0 565 0 565 14 c 2,39,-1
 565 530 l 1,40,-1
 772 324 l 1,33,-1
293 1565 m 2,41,42
 291 1565 291 1565 291 1567 c 2,43,-1
 291 1569 l 1,44,-1
 436 1772 l 2,45,46
 444 1780 444 1780 453 1780 c 2,47,-1
 664 1780 l 2,48,49
 666 1780 666 1780 668 1778 c 0,50,51
 668 1776 668 1776 666 1776 c 2,52,-1
 463 1571 l 2,53,54
 457 1565 457 1565 449 1565 c 2,55,-1
 293 1565 l 2,41,42
EndSplineSet
EndChar

StartChar: Atilde
Encoding: 195 195 55
AltUni2: 0000e3.ffffffff.0 0000e3.ffffffff.0
Width: 823
GlyphClass: 2
Flags: W
LayerCount: 2
Fore
SplineSet
342 1081 m 2,0,-1
 561 862 l 1,1,-1
 565 862 l 1,2,-1
 565 864 l 1,3,-1
 565 1212 l 2,4,5
 565 1225 565 1225 553 1225 c 2,6,-1
 483 1225 l 2,7,8
 471 1225 471 1225 455 1214 c 2,9,-1
 342 1102 l 2,10,11
 332 1092 332 1092 342 1081 c 2,0,-1
745 1432 m 1,12,-1
 758 1432 l 2,13,14
 772 1432 772 1432 772 1417 c 2,15,-1
 772 1405 l 1,16,-1
 772 360 l 1,17,-1
 262 870 l 1,18,-1
 260 870 l 1,19,-1
 258 868 l 1,20,-1
 258 14 l 2,21,22
 258 0 258 0 244 0 c 2,23,-1
 66 0 l 2,24,25
 51 0 51 0 51 14 c 2,26,-1
 51 1085 l 2,27,28
 51 1102 51 1102 63 1114 c 2,29,-1
 369 1419 l 2,30,31
 382 1432 382 1432 397 1432 c 2,32,-1
 745 1432 l 1,12,-1
772 324 m 1,33,-1
 772 14 l 2,34,35
 772 0 772 0 758 0 c 2,36,-1
 580 0 l 2,37,38
 565 0 565 0 565 14 c 2,39,-1
 565 530 l 1,40,-1
 772 324 l 1,33,-1
176 1632 m 2,41,42
 174 1634 174 1634 174 1638 c 0,43,44
 185 1663 185 1663 205 1691 c 0,45,46
 223 1716 223 1716 248 1735 c 0,47,48
 280 1761 280 1761 328 1761 c 0,49,50
 351 1761 351 1761 375 1753 c 0,51,52
 394 1747 394 1747 417 1736 c 0,53,54
 421 1734 421 1734 429 1730 c 128,-1,55
 437 1726 437 1726 443.5 1723 c 128,-1,56
 450 1720 450 1720 456 1718 c 0,57,58
 477 1710 477 1710 496 1710 c 0,59,60
 513 1710 513 1710 534 1718 c 0,61,62
 552 1725 552 1725 571 1755 c 0,63,64
 571 1757 571 1757 573 1757 c 2,65,-1
 575 1757 l 1,66,-1
 645 1710 l 2,67,68
 647 1708 647 1708 647 1704 c 0,69,70
 644 1700 644 1700 625 1666 c 0,71,72
 613 1645 613 1645 594 1626 c 0,73,74
 576 1608 576 1608 552 1593 c 0,75,76
 530 1579 530 1579 496 1579 c 0,77,78
 469 1579 469 1579 447 1587 c 0,79,80
 437 1591 437 1591 406 1606 c 0,81,82
 383 1617 383 1617 366 1624 c 0,83,84
 345 1632 345 1632 324 1632 c 0,85,86
 295 1632 295 1632 278 1615 c 2,87,-1
 250 1587 l 2,88,89
 248 1585 248 1585 244 1585 c 2,90,-1
 176 1632 l 2,41,42
EndSplineSet
EndChar

StartChar: Eacute
Encoding: 201 201 56
AltUni2: 0000e9.ffffffff.0 0000e9.ffffffff.0
Width: 821
GlyphClass: 2
Flags: W
LayerCount: 2
Fore
SplineSet
51 1149 m 2,0,1
 51 1164 51 1164 61 1178 c 2,2,-1
 305 1419 l 2,3,4
 313 1432 313 1432 334 1432 c 2,5,-1
 608 1432 l 1,6,-1
 268 1092 l 2,7,8
 256 1080 256 1080 256 1063 c 2,9,-1
 256 1022 l 2,10,11
 256 1008 256 1008 270 1008 c 2,12,-1
 756 1008 l 2,13,14
 770 1008 770 1008 770 993 c 2,15,-1
 770 815 l 2,16,17
 770 801 770 801 756 801 c 2,18,-1
 270 801 l 2,19,20
 256 801 256 801 256 788 c 2,21,-1
 256 369 l 2,22,23
 256 350 256 350 268 338 c 2,24,-1
 389 217 l 2,25,26
 401 205 401 205 420 205 c 2,27,-1
 756 205 l 2,28,29
 770 205 770 205 770 193 c 2,30,-1
 770 12 l 2,31,32
 770 0 770 0 756 0 c 2,33,-1
 334 0 l 2,34,35
 312 0 312 0 305 12 c 2,36,-1
 61 254 l 2,37,38
 51 268 51 268 51 283 c 2,39,-1
 51 1149 l 2,0,1
645 1432 m 1,40,-1
 756 1432 l 2,41,42
 770 1432 770 1432 770 1417 c 2,43,-1
 770 1239 l 2,44,45
 770 1225 770 1225 756 1225 c 2,46,-1
 438 1225 l 1,47,-1
 645 1432 l 1,40,-1
293 1565 m 2,48,49
 291 1565 291 1565 291 1567 c 2,50,-1
 291 1569 l 1,51,-1
 436 1772 l 2,52,53
 444 1780 444 1780 453 1780 c 2,54,-1
 664 1780 l 2,55,56
 666 1780 666 1780 668 1778 c 0,57,58
 668 1776 668 1776 666 1776 c 2,59,-1
 463 1571 l 2,60,61
 457 1565 457 1565 449 1565 c 2,62,-1
 293 1565 l 2,48,49
EndSplineSet
EndChar

StartChar: Iacute
Encoding: 205 205 57
AltUni2: 0000ed.ffffffff.0 0000ed.ffffffff.0
Width: 309
GlyphClass: 2
Flags: W
LayerCount: 2
Fore
SplineSet
66 1432 m 2,0,-1
 244 1432 l 2,1,2
 258 1432 258 1432 258 1417 c 2,3,-1
 258 14 l 2,4,5
 258 0 258 0 244 0 c 2,6,-1
 66 0 l 2,7,8
 51 0 51 0 51 14 c 2,9,-1
 51 1417 l 2,10,11
 51 1432 51 1432 66 1432 c 2,0,-1
49 1565 m 2,12,13
 47 1565 47 1565 47 1567 c 2,14,-1
 47 1569 l 1,15,-1
 193 1772 l 2,16,17
 201 1780 201 1780 209 1780 c 2,18,-1
 420 1780 l 2,19,20
 422 1780 422 1780 424 1778 c 0,21,22
 424 1776 424 1776 422 1776 c 2,23,-1
 219 1571 l 2,24,25
 213 1565 213 1565 205 1565 c 2,26,-1
 49 1565 l 2,12,13
EndSplineSet
EndChar

StartChar: Ntilde
Encoding: 209 209 58
AltUni2: 0000f1.ffffffff.0 0000f1.ffffffff.0
Width: 821
GlyphClass: 2
Flags: W
LayerCount: 2
Fore
SplineSet
66 0 m 2,0,1
 51 0 51 0 51 12 c 2,2,-1
 51 1151 l 2,3,4
 51 1163 51 1163 59 1171 c 2,5,-1
 311 1423 l 2,6,7
 320 1432 320 1432 332 1432 c 2,8,-1
 610 1432 l 1,9,-1
 266 1085 l 2,10,11
 258 1079 258 1079 258 1067 c 2,12,-1
 258 12 l 2,13,14
 258 0 258 0 244 0 c 2,15,-1
 66 0 l 2,0,1
758 1432 m 2,16,17
 770 1432 770 1432 770 1417 c 2,18,-1
 770 12 l 2,19,20
 770 0 770 0 758 0 c 2,21,-1
 580 0 l 2,22,23
 565 0 565 0 565 12 c 2,24,-1
 565 1212 l 2,25,26
 565 1225 565 1225 551 1225 c 2,27,-1
 442 1225 l 1,28,-1
 647 1432 l 1,29,-1
 758 1432 l 2,16,17
176 1632 m 2,30,31
 174 1634 174 1634 174 1638 c 0,32,33
 185 1663 185 1663 205 1691 c 0,34,35
 223 1716 223 1716 248 1735 c 0,36,37
 280 1761 280 1761 328 1761 c 0,38,39
 351 1761 351 1761 375 1753 c 0,40,41
 394 1747 394 1747 417 1736 c 0,42,43
 421 1734 421 1734 429 1730 c 128,-1,44
 437 1726 437 1726 443.5 1723 c 128,-1,45
 450 1720 450 1720 456 1718 c 0,46,47
 477 1710 477 1710 496 1710 c 0,48,49
 513 1710 513 1710 534 1718 c 0,50,51
 552 1725 552 1725 571 1755 c 0,52,53
 571 1757 571 1757 573 1757 c 2,54,-1
 575 1757 l 1,55,-1
 645 1710 l 2,56,57
 647 1708 647 1708 647 1704 c 0,58,59
 644 1700 644 1700 625 1666 c 0,60,61
 613 1645 613 1645 594 1626 c 0,62,63
 576 1608 576 1608 552 1593 c 0,64,65
 530 1579 530 1579 496 1579 c 0,66,67
 469 1579 469 1579 447 1587 c 0,68,69
 437 1591 437 1591 406 1606 c 0,70,71
 383 1617 383 1617 366 1624 c 0,72,73
 345 1632 345 1632 324 1632 c 0,74,75
 295 1632 295 1632 278 1615 c 2,76,-1
 250 1587 l 2,77,78
 248 1585 248 1585 244 1585 c 2,79,-1
 176 1632 l 2,30,31
EndSplineSet
EndChar

StartChar: Oacute
Encoding: 211 211 59
AltUni2: 0000f3.ffffffff.0 0000f3.ffffffff.0
Width: 872
GlyphClass: 2
Flags: W
LayerCount: 2
Fore
SplineSet
51 1149 m 2,0,1
 51 1166 51 1166 63 1178 c 2,2,-1
 305 1419 l 2,3,4
 318 1432 318 1432 334 1432 c 2,5,-1
 539 1432 l 2,6,7
 554 1432 554 1432 567 1419 c 2,8,-1
 809 1178 l 2,9,10
 821 1166 821 1166 821 1149 c 2,11,-1
 821 283 l 2,12,13
 821 266 821 266 809 254 c 2,14,-1
 567 12 l 2,15,16
 555 0 555 0 539 0 c 2,17,-1
 334 0 l 2,18,19
 317 0 317 0 305 12 c 2,20,-1
 63 254 l 2,21,22
 51 266 51 266 51 283 c 2,23,-1
 51 838 l 1,24,-1
 258 1042 l 1,25,-1
 258 369 l 2,26,27
 258 350 258 350 270 338 c 2,28,-1
 391 217 l 2,29,30
 403 205 403 205 420 205 c 2,31,-1
 453 205 l 2,32,33
 469 205 469 205 481 217 c 2,34,-1
 602 338 l 2,35,36
 614 350 614 350 614 369 c 2,37,-1
 614 1063 l 2,38,39
 614 1080 614 1080 602 1092 c 2,40,-1
 481 1212 l 2,41,42
 468 1225 468 1225 453 1225 c 2,43,-1
 420 1225 l 2,44,45
 404 1225 404 1225 391 1212 c 2,46,-1
 51 874 l 1,47,-1
 51 1149 l 2,0,1
293 1565 m 2,48,49
 291 1565 291 1565 291 1567 c 2,50,-1
 291 1569 l 1,51,-1
 436 1772 l 2,52,53
 444 1780 444 1780 453 1780 c 2,54,-1
 664 1780 l 2,55,56
 666 1780 666 1780 668 1778 c 0,57,58
 668 1776 668 1776 666 1776 c 2,59,-1
 463 1571 l 2,60,61
 457 1565 457 1565 449 1565 c 2,62,-1
 293 1565 l 2,48,49
EndSplineSet
EndChar

StartChar: Otilde
Encoding: 213 213 60
AltUni2: 0000f5.ffffffff.0 0000f5.ffffffff.0
Width: 872
GlyphClass: 2
Flags: W
LayerCount: 2
Fore
SplineSet
51 1149 m 2,0,1
 51 1166 51 1166 63 1178 c 2,2,-1
 305 1419 l 2,3,4
 318 1432 318 1432 334 1432 c 2,5,-1
 539 1432 l 2,6,7
 554 1432 554 1432 567 1419 c 2,8,-1
 809 1178 l 2,9,10
 821 1166 821 1166 821 1149 c 2,11,-1
 821 283 l 2,12,13
 821 266 821 266 809 254 c 2,14,-1
 567 12 l 2,15,16
 555 0 555 0 539 0 c 2,17,-1
 334 0 l 2,18,19
 317 0 317 0 305 12 c 2,20,-1
 63 254 l 2,21,22
 51 266 51 266 51 283 c 2,23,-1
 51 838 l 1,24,-1
 258 1042 l 1,25,-1
 258 369 l 2,26,27
 258 350 258 350 270 338 c 2,28,-1
 391 217 l 2,29,30
 403 205 403 205 420 205 c 2,31,-1
 453 205 l 2,32,33
 469 205 469 205 481 217 c 2,34,-1
 602 338 l 2,35,36
 614 350 614 350 614 369 c 2,37,-1
 614 1063 l 2,38,39
 614 1080 614 1080 602 1092 c 2,40,-1
 481 1212 l 2,41,42
 468 1225 468 1225 453 1225 c 2,43,-1
 420 1225 l 2,44,45
 404 1225 404 1225 391 1212 c 2,46,-1
 51 874 l 1,47,-1
 51 1149 l 2,0,1
176 1632 m 2,48,49
 174 1634 174 1634 174 1638 c 0,50,51
 185 1663 185 1663 205 1691 c 0,52,53
 223 1716 223 1716 248 1735 c 0,54,55
 280 1761 280 1761 328 1761 c 0,56,57
 351 1761 351 1761 375 1753 c 0,58,59
 394 1747 394 1747 417 1736 c 0,60,61
 421 1734 421 1734 429 1730 c 128,-1,62
 437 1726 437 1726 443.5 1723 c 128,-1,63
 450 1720 450 1720 456 1718 c 0,64,65
 477 1710 477 1710 496 1710 c 0,66,67
 513 1710 513 1710 534 1718 c 0,68,69
 552 1725 552 1725 571 1755 c 0,70,71
 571 1757 571 1757 573 1757 c 2,72,-1
 575 1757 l 1,73,-1
 645 1710 l 2,74,75
 647 1708 647 1708 647 1704 c 0,76,77
 644 1700 644 1700 625 1666 c 0,78,79
 613 1645 613 1645 594 1626 c 0,80,81
 576 1608 576 1608 552 1593 c 0,82,83
 530 1579 530 1579 496 1579 c 0,84,85
 469 1579 469 1579 447 1587 c 0,86,87
 437 1591 437 1591 406 1606 c 0,88,89
 383 1617 383 1617 366 1624 c 0,90,91
 345 1632 345 1632 324 1632 c 0,92,93
 295 1632 295 1632 278 1615 c 2,94,-1
 250 1587 l 2,95,96
 248 1585 248 1585 244 1585 c 2,97,-1
 176 1632 l 2,48,49
EndSplineSet
EndChar

StartChar: Uacute
Encoding: 218 218 61
AltUni2: 0000fa.ffffffff.0 0000fa.ffffffff.0
Width: 821
GlyphClass: 2
Flags: W
LayerCount: 2
Fore
SplineSet
244 1432 m 2,0,1
 258 1432 258 1432 258 1417 c 2,2,-1
 258 219 l 2,3,4
 258 205 258 205 270 205 c 2,5,-1
 551 205 l 2,6,7
 563 205 563 205 563 219 c 2,8,-1
 563 1417 l 2,9,10
 563 1432 563 1432 578 1432 c 2,11,-1
 756 1432 l 2,12,13
 770 1432 770 1432 770 1417 c 2,14,-1
 770 12 l 2,15,16
 770 0 770 0 756 0 c 2,17,-1
 66 0 l 2,18,19
 51 0 51 0 51 12 c 2,20,-1
 51 1417 l 2,21,22
 51 1432 51 1432 66 1432 c 2,23,-1
 244 1432 l 2,0,1
293 1565 m 2,24,25
 291 1565 291 1565 291 1567 c 2,26,-1
 291 1569 l 1,27,-1
 436 1772 l 2,28,29
 444 1780 444 1780 453 1780 c 2,30,-1
 664 1780 l 2,31,32
 666 1780 666 1780 668 1778 c 0,33,34
 668 1776 668 1776 666 1776 c 2,35,-1
 463 1571 l 2,36,37
 457 1565 457 1565 449 1565 c 2,38,-1
 293 1565 l 2,24,25
EndSplineSet
EndChar

StartChar: Yacute
Encoding: 221 221 62
AltUni2: 0000fd.ffffffff.0 0000fd.ffffffff.0
Width: 823
GlyphClass: 2
Flags: W
LayerCount: 2
Fore
SplineSet
524 795 m 2,0,1
 512 783 512 783 512 766 c 2,2,-1
 512 12 l 2,3,4
 512 0 512 0 500 0 c 2,5,-1
 319 0 l 2,6,7
 307 0 307 0 307 12 c 2,8,-1
 307 770 l 2,9,10
 307 787 307 787 295 799 c 2,11,-1
 63 1030 l 2,12,13
 51 1042 51 1042 51 1059 c 2,14,-1
 51 1417 l 2,15,16
 51 1432 51 1432 66 1432 c 2,17,-1
 244 1432 l 2,18,19
 256 1432 256 1432 256 1417 c 2,20,-1
 256 1145 l 2,21,22
 256 1128 256 1128 268 1116 c 2,23,-1
 557 827 l 1,24,-1
 524 795 l 2,0,1
430 991 m 1,25,-1
 553 1116 l 2,26,27
 565 1128 565 1128 565 1145 c 2,28,-1
 565 1417 l 2,29,30
 565 1432 565 1432 580 1432 c 2,31,-1
 758 1432 l 2,32,33
 772 1432 772 1432 772 1417 c 2,34,-1
 772 1059 l 2,35,36
 772 1042 772 1042 760 1030 c 2,37,-1
 575 846 l 1,38,-1
 430 991 l 1,25,-1
293 1565 m 2,39,40
 291 1565 291 1565 291 1567 c 2,41,-1
 291 1569 l 1,42,-1
 436 1772 l 2,43,44
 444 1780 444 1780 453 1780 c 2,45,-1
 664 1780 l 2,46,47
 666 1780 666 1780 668 1778 c 0,48,49
 668 1776 668 1776 666 1776 c 2,50,-1
 463 1571 l 2,51,52
 457 1565 457 1565 449 1565 c 2,53,-1
 293 1565 l 2,39,40
EndSplineSet
EndChar

StartChar: tilde
Encoding: 732 732 63
Width: 714
GlyphClass: 2
Flags: W
LayerCount: 2
Fore
SplineSet
123 1634 m 2,0,1
 121 1636 121 1636 121 1640 c 0,2,3
 132 1665 132 1665 152 1693 c 0,4,5
 170 1718 170 1718 195 1737 c 0,6,7
 227 1763 227 1763 274 1763 c 0,8,9
 298 1763 298 1763 322 1755 c 0,10,11
 341 1749 341 1749 364 1738 c 0,12,13
 367 1736 367 1736 380.5 1729.5 c 128,-1,14
 394 1723 394 1723 402 1720 c 0,15,16
 423 1712 423 1712 442 1712 c 0,17,18
 459 1712 459 1712 480 1720 c 0,19,20
 499 1727 499 1727 518 1757 c 0,21,22
 518 1759 518 1759 520 1759 c 2,23,-1
 522 1759 l 1,24,-1
 592 1712 l 2,25,26
 594 1710 594 1710 594 1706 c 0,27,28
 581 1686 581 1686 571 1668 c 0,29,30
 558 1645 558 1645 541 1628 c 0,31,32
 523 1610 523 1610 499 1595 c 0,33,34
 477 1581 477 1581 442 1581 c 0,35,36
 416 1581 416 1581 394 1589 c 0,37,38
 380 1594 380 1594 352 1608 c 0,39,40
 329 1619 329 1619 312 1626 c 0,41,42
 291 1634 291 1634 270 1634 c 0,43,44
 241 1634 241 1634 224 1617 c 2,45,-1
 197 1589 l 2,46,47
 195 1587 195 1587 190 1587 c 2,48,-1
 123 1634 l 2,0,1
EndSplineSet
EndChar
